<svg xmlns="http://www.w3.org/2000/svg" width="500" height="745" viewBox="0 0 500 745">
  <rect width="100%" height="100%" fill="rgb(86,72,53)"/>
  <rect x="-114.00" y="53.50" width="242.00" height="149.00" fill="rgb(133,141,92)" fill-opacity="0.7269" transform="rotate(158.62 7.00 128.00)"/>
  <rect x="359.50" y="-30.00" width="199.00" height="252.00" fill="rgb(125,149,98)" fill-opacity="0.8019" transform="rotate(156.35 459.00 96.00)"/>
  <rect x="115.00" y="239.50" width="254.00" height="109.00" fill="rgb(176,123,53)" fill-opacity="0.7000" transform="rotate(87.30 242.00 294.00)"/>
  <rect x="261.00" y="588.50" width="262.00" height="211.00" fill="rgb(12,0,24)" fill-opacity="0.8435" transform="rotate(224.54 392.00 694.00)"/>
  <rect x="228.00" y="327.50" width="166.00" height="231.00" fill="rgb(71,49,30)" fill-opacity="0.7930" transform="rotate(239.02 311.00 443.00)"/>
  <rect x="219.00" y="315.50" width="54.00" height="61.00" fill="rgb(231,189,98)" fill-opacity="0.8638" transform="rotate(83.01 246.00 346.00)"/>
  <rect x="275.50" y="190.50" width="103.00" height="127.00" fill="rgb(22,10,23)" fill-opacity="0.7067" transform="rotate(99.77 327.00 254.00)"/>
  <rect x="-5.50" y="497.00" width="257.00" height="228.00" fill="rgb(59,36,52)" fill-opacity="0.7214" transform="rotate(89.43 123.00 611.00)"/>
  <rect x="258.00" y="178.00" width="26.00" height="234.00" fill="rgb(110,83,29)" fill-opacity="0.7000" transform="rotate(295.84 271.00 295.00)"/>
  <rect x="30.00" y="605.00" width="242.00" height="224.00" fill="rgb(11,3,26)" fill-opacity="0.8833" transform="rotate(136.82 151.00 717.00)"/>
  <rect x="164.00" y="397.50" width="146.00" height="233.00" fill="rgb(43,27,41)" fill-opacity="0.7881" transform="rotate(285.22 237.00 514.00)"/>
  <rect x="118.00" y="195.00" width="230.00" height="52.00" fill="rgb(165,114,58)" fill-opacity="0.8641" transform="rotate(249.77 233.00 221.00)"/>
  <rect x="361.00" y="12.00" width="102.00" height="190.00" fill="rgb(149,156,99)" fill-opacity="0.7674" transform="rotate(103.45 412.00 107.00)"/>
  <rect x="90.00" y="585.00" width="150.00" height="52.00" fill="rgb(155,104,50)" fill-opacity="0.9078" transform="rotate(303.14 165.00 611.00)"/>
  <rect x="224.00" y="128.00" width="44.00" height="92.00" fill="rgb(194,150,69)" fill-opacity="0.7358" transform="rotate(152.11 246.00 174.00)"/>
  <rect x="-56.00" y="209.50" width="144.00" height="55.00" fill="rgb(72,72,56)" fill-opacity="0.7960" transform="rotate(252.42 16.00 237.00)"/>
  <rect x="107.00" y="0.00" width="150.00" height="148.00" fill="rgb(127,134,77)" fill-opacity="0.7431" transform="rotate(81.36 182.00 74.00)"/>
  <rect x="146.00" y="285.50" width="44.00" height="123.00" fill="rgb(74,32,40)" fill-opacity="0.8218" transform="rotate(219.13 168.00 347.00)"/>
  <rect x="131.00" y="565.00" width="144.00" height="46.00" fill="rgb(188,142,62)" fill-opacity="0.7925" transform="rotate(41.94 203.00 588.00)"/>
  <rect x="55.00" y="57.00" width="222.00" height="36.00" fill="rgb(142,150,90)" fill-opacity="0.8395" transform="rotate(168.71 166.00 75.00)"/>
  <rect x="75.50" y="396.00" width="111.00" height="206.00" fill="rgb(66,44,45)" fill-opacity="0.7972" transform="rotate(48.13 131.00 499.00)"/>
  <rect x="233.00" y="165.50" width="34.00" height="203.00" fill="rgb(90,54,39)" fill-opacity="0.8642" transform="rotate(58.94 250.00 267.00)"/>
  <rect x="68.50" y="54.00" width="37.00" height="150.00" fill="rgb(178,182,117)" fill-opacity="0.7279" transform="rotate(276.50 87.00 129.00)"/>
  <rect x="-16.00" y="590.50" width="150.00" height="149.00" fill="rgb(23,14,40)" fill-opacity="0.8313" transform="rotate(125.56 59.00 665.00)"/>
  <rect x="368.00" y="471.50" width="114.00" height="141.00" fill="rgb(42,34,65)" fill-opacity="0.8121" transform="rotate(321.30 425.00 542.00)"/>
  <rect x="90.00" y="351.00" width="112.00" height="46.00" fill="rgb(37,24,43)" fill-opacity="0.7448" transform="rotate(120.53 146.00 374.00)"/>
  <rect x="222.00" y="-96.00" width="148.00" height="228.00" fill="rgb(97,118,74)" fill-opacity="0.7718" transform="rotate(301.82 296.00 18.00)"/>
  <rect x="210.50" y="75.00" width="39.00" height="34.00" fill="rgb(115,65,24)" fill-opacity="0.9509" transform="rotate(224.21 230.00 92.00)"/>
  <rect x="162.50" y="60.50" width="31.00" height="29.00" fill="rgb(140,147,90)" fill-opacity="0.9115" transform="rotate(267.67 178.00 75.00)"/>
  <rect x="175.00" y="165.00" width="88.00" height="28.00" fill="rgb(209,170,76)" fill-opacity="0.7966" transform="rotate(135.67 219.00 179.00)"/>
  <rect x="287.50" y="179.50" width="147.00" height="43.00" fill="rgb(75,76,54)" fill-opacity="0.7775" transform="rotate(252.96 361.00 201.00)"/>
  <rect x="252.50" y="194.50" width="133.00" height="61.00" fill="rgb(38,28,30)" fill-opacity="0.9326" transform="rotate(285.55 319.00 225.00)"/>
  <rect x="271.50" y="402.50" width="211.00" height="159.00" fill="rgb(29,20,35)" fill-opacity="0.9031" transform="rotate(51.86 377.00 482.00)"/>
  <rect x="471.00" y="463.50" width="54.00" height="75.00" fill="rgb(82,59,60)" fill-opacity="0.9265" transform="rotate(29.02 498.00 501.00)"/>
  <rect x="194.00" y="293.00" width="90.00" height="144.00" fill="rgb(223,192,107)" fill-opacity="0.8359" transform="rotate(72.05 239.00 365.00)"/>
  <rect x="223.50" y="96.50" width="129.00" height="51.00" fill="rgb(46,19,15)" fill-opacity="0.8125" transform="rotate(242.57 288.00 122.00)"/>
  <rect x="115.00" y="426.00" width="128.00" height="118.00" fill="rgb(42,28,42)" fill-opacity="0.8931" transform="rotate(160.13 179.00 485.00)"/>
  <rect x="342.00" y="285.00" width="72.00" height="164.00" fill="rgb(93,47,41)" fill-opacity="0.7840" transform="rotate(289.02 378.00 367.00)"/>
  <rect x="263.00" y="596.50" width="178.00" height="161.00" fill="rgb(6,2,24)" fill-opacity="0.7000" transform="rotate(103.51 352.00 677.00)"/>
  <rect x="-69.50" y="-25.50" width="139.00" height="153.00" fill="rgb(116,138,81)" fill-opacity="0.7000" transform="rotate(22.97 0.00 51.00)"/>
  <rect x="225.00" y="593.00" width="48.00" height="116.00" fill="rgb(101,47,37)" fill-opacity="0.7521" transform="rotate(54.46 249.00 651.00)"/>
  <rect x="122.50" y="615.50" width="141.00" height="37.00" fill="rgb(134,85,47)" fill-opacity="0.7298" transform="rotate(138.17 193.00 634.00)"/>
  <rect x="177.00" y="150.00" width="110.00" height="12.00" fill="rgb(219,180,91)" fill-opacity="0.8946" transform="rotate(242.27 232.00 156.00)"/>
  <rect x="309.50" y="140.50" width="121.00" height="21.00" fill="rgb(121,136,87)" fill-opacity="0.7055" transform="rotate(255.78 370.00 151.00)"/>
  <rect x="107.00" y="101.00" width="60.00" height="24.00" fill="rgb(164,165,109)" fill-opacity="0.9173" transform="rotate(198.11 137.00 113.00)"/>
  <rect x="-40.50" y="404.50" width="171.00" height="65.00" fill="rgb(123,69,52)" fill-opacity="0.7267" transform="rotate(139.99 45.00 437.00)"/>
  <rect x="330.00" y="277.50" width="20.00" height="69.00" fill="rgb(53,20,21)" fill-opacity="0.7036" transform="rotate(114.18 340.00 312.00)"/>
  <rect x="130.00" y="630.50" width="52.00" height="27.00" fill="rgb(187,143,59)" fill-opacity="0.7229" transform="rotate(109.38 156.00 644.00)"/>
  <rect x="216.00" y="424.00" width="46.00" height="36.00" fill="rgb(87,66,44)" fill-opacity="0.7926" transform="rotate(4.67 239.00 442.00)"/>
  <rect x="273.50" y="527.00" width="69.00" height="70.00" fill="rgb(7,1,25)" fill-opacity="0.8807" transform="rotate(5.16 308.00 562.00)"/>
  <rect x="141.00" y="235.50" width="64.00" height="133.00" fill="rgb(45,21,27)" fill-opacity="0.7800" transform="rotate(213.53 173.00 302.00)"/>
  <rect x="200.50" y="108.50" width="57.00" height="61.00" fill="rgb(207,166,84)" fill-opacity="0.8360" transform="rotate(289.89 229.00 139.00)"/>
  <rect x="98.00" y="525.50" width="50.00" height="87.00" fill="rgb(94,69,36)" fill-opacity="0.7630" transform="rotate(313.58 123.00 569.00)"/>
  <rect x="84.00" y="102.00" width="126.00" height="48.00" fill="rgb(153,155,99)" fill-opacity="0.9252" transform="rotate(303.72 147.00 126.00)"/>
  <rect x="223.50" y="285.50" width="55.00" height="101.00" fill="rgb(210,181,77)" fill-opacity="0.7036" transform="rotate(88.76 251.00 336.00)"/>
  <rect x="214.50" y="333.50" width="49.00" height="51.00" fill="rgb(233,196,106)" fill-opacity="0.8328" transform="rotate(299.59 239.00 359.00)"/>
  <rect x="400.00" y="307.50" width="100.00" height="57.00" fill="rgb(116,104,57)" fill-opacity="0.7784" transform="rotate(206.56 450.00 336.00)"/>
  <rect x="60.00" y="330.00" width="108.00" height="36.00" fill="rgb(87,62,32)" fill-opacity="0.7718" transform="rotate(298.36 114.00 348.00)"/>
  <rect x="453.50" y="313.00" width="41.00" height="72.00" fill="rgb(150,137,71)" fill-opacity="0.9210" transform="rotate(303.90 474.00 349.00)"/>
  <rect x="283.00" y="594.00" width="80.00" height="32.00" fill="rgb(116,65,22)" fill-opacity="0.8380" transform="rotate(183.79 323.00 610.00)"/>
  <rect x="-16.50" y="67.00" width="71.00" height="82.00" fill="rgb(145,151,101)" fill-opacity="0.8343" transform="rotate(80.08 19.00 108.00)"/>
  <rect x="42.50" y="374.50" width="37.00" height="51.00" fill="rgb(164,125,54)" fill-opacity="0.7232" transform="rotate(79.14 61.00 400.00)"/>
  <rect x="21.50" y="534.00" width="35.00" height="56.00" fill="rgb(42,32,51)" fill-opacity="0.7339" transform="rotate(194.24 39.00 562.00)"/>
  <rect x="114.00" y="651.00" width="96.00" height="116.00" fill="rgb(35,13,30)" fill-opacity="0.7000" transform="rotate(111.10 162.00 709.00)"/>
  <rect x="137.50" y="396.00" width="105.00" height="44.00" fill="rgb(100,59,23)" fill-opacity="0.7320" transform="rotate(203.23 190.00 418.00)"/>
  <rect x="69.50" y="68.00" width="95.00" height="76.00" fill="rgb(146,147,95)" fill-opacity="0.7253" transform="rotate(132.22 117.00 106.00)"/>
  <rect x="419.50" y="560.50" width="87.00" height="73.00" fill="rgb(31,30,48)" fill-opacity="0.8567" transform="rotate(39.97 463.00 597.00)"/>
  <rect x="274.50" y="26.50" width="53.00" height="57.00" fill="rgb(124,139,93)" fill-opacity="0.7808" transform="rotate(109.30 301.00 55.00)"/>
  <rect x="220.00" y="652.00" width="122.00" height="28.00" fill="rgb(36,16,29)" fill-opacity="0.8014" transform="rotate(158.31 281.00 666.00)"/>
  <rect x="254.00" y="469.00" width="122.00" height="128.00" fill="rgb(18,17,38)" fill-opacity="0.8266" transform="rotate(94.84 315.00 533.00)"/>
  <rect x="310.00" y="625.00" width="12.00" height="20.00" fill="rgb(77,45,24)" fill-opacity="0.8903" transform="rotate(280.13 316.00 635.00)"/>
  <rect x="228.50" y="323.00" width="33.00" height="90.00" fill="rgb(235,200,99)" fill-opacity="0.8646" transform="rotate(106.31 245.00 368.00)"/>
  <rect x="344.50" y="55.00" width="41.00" height="96.00" fill="rgb(135,150,91)" fill-opacity="0.8703" transform="rotate(26.11 365.00 103.00)"/>
  <rect x="89.50" y="388.00" width="77.00" height="104.00" fill="rgb(51,41,48)" fill-opacity="0.8271" transform="rotate(150.15 128.00 440.00)"/>
  <rect x="242.00" y="259.00" width="84.00" height="4.00" fill="rgb(66,39,34)" fill-opacity="0.9800" transform="rotate(61.48 284.00 261.00)"/>
  <rect x="-2.00" y="322.00" width="104.00" height="120.00" fill="rgb(123,81,43)" fill-opacity="0.8224" transform="rotate(265.00 50.00 382.00)"/>
  <rect x="338.50" y="352.00" width="65.00" height="126.00" fill="rgb(52,41,35)" fill-opacity="0.7583" transform="rotate(45.48 371.00 415.00)"/>
  <rect x="402.50" y="188.00" width="103.00" height="144.00" fill="rgb(77,89,72)" fill-opacity="0.8798" transform="rotate(265.31 454.00 260.00)"/>
  <rect x="-57.50" y="381.50" width="115.00" height="19.00" fill="rgb(64,46,58)" fill-opacity="0.8977" transform="rotate(66.46 0.00 391.00)"/>
  <rect x="212.00" y="203.00" width="56.00" height="60.00" fill="rgb(175,129,57)" fill-opacity="0.7053" transform="rotate(20.97 240.00 233.00)"/>
  <rect x="348.50" y="293.50" width="61.00" height="65.00" fill="rgb(59,44,28)" fill-opacity="0.8043" transform="rotate(26.23 379.00 326.00)"/>
  <rect x="169.50" y="530.50" width="91.00" height="33.00" fill="rgb(31,18,37)" fill-opacity="0.8891" transform="rotate(202.76 215.00 547.00)"/>
  <rect x="96.00" y="385.00" width="72.00" height="74.00" fill="rgb(51,38,47)" fill-opacity="0.9190" transform="rotate(59.25 132.00 422.00)"/>
  <rect x="247.00" y="-3.50" width="52.00" height="71.00" fill="rgb(106,125,78)" fill-opacity="0.8123" transform="rotate(40.74 273.00 32.00)"/>
  <rect x="148.00" y="420.00" width="114.00" height="56.00" fill="rgb(64,47,41)" fill-opacity="0.8447" transform="rotate(219.94 205.00 448.00)"/>
  <rect x="418.00" y="379.00" width="28.00" height="82.00" fill="rgb(41,30,45)" fill-opacity="0.8413" transform="rotate(326.44 432.00 420.00)"/>
  <rect x="150.50" y="563.00" width="81.00" height="26.00" fill="rgb(195,149,63)" fill-opacity="0.7661" transform="rotate(12.92 191.00 576.00)"/>
  <rect x="176.00" y="194.50" width="94.00" height="25.00" fill="rgb(176,136,65)" fill-opacity="0.7782" transform="rotate(296.87 223.00 207.00)"/>
  <rect x="414.50" y="126.50" width="71.00" height="73.00" fill="rgb(167,171,104)" fill-opacity="0.7794" transform="rotate(357.59 450.00 163.00)"/>
  <rect x="182.00" y="17.50" width="30.00" height="89.00" fill="rgb(129,134,77)" fill-opacity="0.7536" transform="rotate(83.91 197.00 62.00)"/>
  <rect x="320.50" y="594.00" width="47.00" height="10.00" fill="rgb(97,43,34)" fill-opacity="0.7410" transform="rotate(17.15 344.00 599.00)"/>
  <rect x="398.00" y="314.00" width="22.00" height="24.00" fill="rgb(147,132,57)" fill-opacity="0.7405" transform="rotate(133.61 409.00 326.00)"/>
  <rect x="104.00" y="117.00" width="44.00" height="66.00" fill="rgb(173,177,126)" fill-opacity="0.7020" transform="rotate(139.10 126.00 150.00)"/>
  <rect x="337.50" y="282.00" width="27.00" height="40.00" fill="rgb(39,27,34)" fill-opacity="0.8140" transform="rotate(301.68 351.00 302.00)"/>
  <rect x="328.50" y="605.00" width="63.00" height="44.00" fill="rgb(75,32,27)" fill-opacity="0.7398" transform="rotate(124.82 360.00 627.00)"/>
  <rect x="331.50" y="161.00" width="87.00" height="46.00" fill="rgb(74,85,62)" fill-opacity="0.7784" transform="rotate(33.26 375.00 184.00)"/>
  <rect x="198.00" y="403.50" width="48.00" height="27.00" fill="rgb(120,81,47)" fill-opacity="0.8765" transform="rotate(307.18 222.00 417.00)"/>
  <rect x="118.00" y="213.50" width="24.00" height="61.00" fill="rgb(78,77,54)" fill-opacity="0.9225" transform="rotate(343.28 130.00 244.00)"/>
  <rect x="123.00" y="611.50" width="52.00" height="51.00" fill="rgb(164,116,64)" fill-opacity="0.7000" transform="rotate(146.35 149.00 637.00)"/>
  <rect x="320.00" y="47.50" width="44.00" height="61.00" fill="rgb(137,141,90)" fill-opacity="0.8641" transform="rotate(41.75 342.00 78.00)"/>
  <rect x="192.00" y="91.50" width="36.00" height="13.00" fill="rgb(114,74,24)" fill-opacity="0.7693" transform="rotate(171.08 210.00 98.00)"/>
  <rect x="429.00" y="286.50" width="88.00" height="57.00" fill="rgb(99,89,67)" fill-opacity="0.7000" transform="rotate(208.11 473.00 315.00)"/>
  <rect x="339.00" y="503.00" width="74.00" height="40.00" fill="rgb(36,15,28)" fill-opacity="0.7000" transform="rotate(302.81 376.00 523.00)"/>
  <rect x="315.00" y="578.00" width="10.00" height="36.00" fill="rgb(139,76,32)" fill-opacity="0.8510" transform="rotate(83.50 320.00 596.00)"/>
  <rect x="454.00" y="632.00" width="78.00" height="22.00" fill="rgb(67,31,49)" fill-opacity="0.8707" transform="rotate(84.44 493.00 643.00)"/>
  <rect x="371.00" y="344.50" width="20.00" height="75.00" fill="rgb(34,22,33)" fill-opacity="0.8610" transform="rotate(239.59 381.00 382.00)"/>
  <rect x="-17.00" y="231.00" width="36.00" height="90.00" fill="rgb(55,47,50)" fill-opacity="0.8213" transform="rotate(50.95 1.00 276.00)"/>
  <rect x="123.00" y="261.50" width="30.00" height="53.00" fill="rgb(97,107,83)" fill-opacity="0.7635" transform="rotate(90.51 138.00 288.00)"/>
  <rect x="179.50" y="591.50" width="73.00" height="27.00" fill="rgb(179,124,55)" fill-opacity="0.7599" transform="rotate(151.14 216.00 605.00)"/>
  <rect x="364.50" y="379.50" width="47.00" height="37.00" fill="rgb(24,19,36)" fill-opacity="0.7383" transform="rotate(276.31 388.00 398.00)"/>
  <rect x="247.50" y="258.00" width="29.00" height="34.00" fill="rgb(79,60,29)" fill-opacity="0.9218" transform="rotate(169.37 262.00 275.00)"/>
  <rect x="200.50" y="112.00" width="25.00" height="32.00" fill="rgb(222,179,91)" fill-opacity="0.8747" transform="rotate(89.19 213.00 128.00)"/>
  <rect x="338.00" y="429.50" width="44.00" height="35.00" fill="rgb(84,50,31)" fill-opacity="0.8887" transform="rotate(106.76 360.00 447.00)"/>
  <rect x="140.00" y="224.50" width="66.00" height="29.00" fill="rgb(61,23,31)" fill-opacity="0.7401" transform="rotate(84.44 173.00 239.00)"/>
  <rect x="407.50" y="309.50" width="41.00" height="51.00" fill="rgb(145,117,60)" fill-opacity="0.8411" transform="rotate(337.90 428.00 335.00)"/>
  <rect x="289.50" y="100.50" width="49.00" height="67.00" fill="rgb(25,15,24)" fill-opacity="0.8910" transform="rotate(23.36 314.00 134.00)"/>
  <rect x="212.00" y="117.50" width="36.00" height="25.00" fill="rgb(230,197,91)" fill-opacity="0.7000" transform="rotate(224.54 230.00 130.00)"/>
  <rect x="364.50" y="227.00" width="53.00" height="70.00" fill="rgb(68,83,60)" fill-opacity="0.7550" transform="rotate(24.19 391.00 262.00)"/>
  <rect x="221.50" y="359.50" width="51.00" height="41.00" fill="rgb(240,211,123)" fill-opacity="0.8452" transform="rotate(211.78 247.00 380.00)"/>
  <rect x="123.00" y="262.00" width="30.00" height="44.00" fill="rgb(99,109,76)" fill-opacity="0.8933" transform="rotate(209.49 138.00 284.00)"/>
  <rect x="80.50" y="276.50" width="35.00" height="17.00" fill="rgb(81,103,76)" fill-opacity="0.8100" transform="rotate(173.46 98.00 285.00)"/>
  <rect x="291.50" y="160.00" width="49.00" height="68.00" fill="rgb(34,20,34)" fill-opacity="0.7497" transform="rotate(170.04 316.00 194.00)"/>
  <rect x="247.50" y="117.00" width="33.00" height="24.00" fill="rgb(115,75,27)" fill-opacity="0.8770" transform="rotate(277.11 264.00 129.00)"/>
  <rect x="399.50" y="364.50" width="31.00" height="23.00" fill="rgb(37,22,45)" fill-opacity="0.9237" transform="rotate(159.57 415.00 376.00)"/>
  <rect x="126.50" y="557.00" width="43.00" height="26.00" fill="rgb(202,162,77)" fill-opacity="0.7668" transform="rotate(119.78 148.00 570.00)"/>
  <rect x="47.50" y="291.00" width="33.00" height="30.00" fill="rgb(100,88,62)" fill-opacity="0.8001" transform="rotate(264.86 64.00 306.00)"/>
  <rect x="329.50" y="112.50" width="25.00" height="21.00" fill="rgb(149,155,106)" fill-opacity="0.9012" transform="rotate(127.89 342.00 123.00)"/>
  <rect x="333.50" y="342.00" width="19.00" height="44.00" fill="rgb(151,113,51)" fill-opacity="0.7939" transform="rotate(73.22 343.00 364.00)"/>
  <rect x="87.00" y="160.00" width="28.00" height="32.00" fill="rgb(104,112,69)" fill-opacity="0.8384" transform="rotate(295.39 101.00 176.00)"/>
  <rect x="310.00" y="117.00" width="22.00" height="34.00" fill="rgb(24,11,22)" fill-opacity="0.8066" transform="rotate(125.56 321.00 134.00)"/>
  <rect x="247.00" y="398.00" width="16.00" height="28.00" fill="rgb(117,70,47)" fill-opacity="0.7833" transform="rotate(233.02 255.00 412.00)"/>
  <rect x="265.50" y="137.50" width="25.00" height="21.00" fill="rgb(139,115,49)" fill-opacity="0.9526" transform="rotate(60.46 278.00 148.00)"/>
  <rect x="-12.50" y="420.00" width="25.00" height="40.00" fill="rgb(72,51,67)" fill-opacity="0.7288" transform="rotate(315.79 0.00 440.00)"/>
  <rect x="-7.50" y="157.00" width="19.00" height="26.00" fill="rgb(57,57,51)" fill-opacity="0.8660" transform="rotate(340.40 2.00 170.00)"/>
  <rect x="150.00" y="552.00" width="22.00" height="22.00" fill="rgb(205,162,77)" fill-opacity="0.7487" transform="rotate(350.63 161.00 563.00)"/>
  <rect x="247.00" y="150.00" width="20.00" height="30.00" fill="rgb(114,73,39)" fill-opacity="0.9181" transform="rotate(68.51 257.00 165.00)"/>
  <rect x="68.00" y="115.00" width="20.00" height="42.00" fill="rgb(169,173,117)" fill-opacity="0.8169" transform="rotate(40.42 78.00 136.00)"/>
  <rect x="105.00" y="584.00" width="24.00" height="32.00" fill="rgb(43,27,41)" fill-opacity="0.9296" transform="rotate(317.53 117.00 600.00)"/>
  <rect x="248.50" y="581.50" width="13.00" height="29.00" fill="rgb(165,125,55)" fill-opacity="0.8451" transform="rotate(150.16 255.00 596.00)"/>
  <rect x="296.50" y="364.00" width="21.00" height="26.00" fill="rgb(114,75,22)" fill-opacity="0.7547" transform="rotate(212.67 307.00 377.00)"/>
  <rect x="28.00" y="417.50" width="4.00" height="15.00" fill="rgb(95,47,38)" fill-opacity="0.8144" transform="rotate(4.97 30.00 425.00)"/>
  <rect x="147.00" y="-21.50" width="26.00" height="57.00" fill="rgb(88,109,75)" fill-opacity="0.8285" transform="rotate(262.77 160.00 7.00)"/>
  <rect x="182.00" y="539.00" width="14.00" height="16.00" fill="rgb(39,26,37)" fill-opacity="0.7812" transform="rotate(318.55 189.00 547.00)"/>
  <rect x="260.50" y="394.50" width="41.00" height="17.00" fill="rgb(121,90,33)" fill-opacity="0.8497" transform="rotate(136.23 281.00 403.00)"/>
  <rect x="219.00" y="247.00" width="8.00" height="18.00" fill="rgb(207,159,75)" fill-opacity="0.8225" transform="rotate(127.71 223.00 256.00)"/>
  <rect x="326.50" y="457.50" width="17.00" height="33.00" fill="rgb(56,35,34)" fill-opacity="0.8990" transform="rotate(334.22 335.00 474.00)"/>
  <rect x="240.00" y="130.50" width="32.00" height="23.00" fill="rgb(186,147,64)" fill-opacity="0.8864" transform="rotate(68.12 256.00 142.00)"/>
  <rect x="188.00" y="531.00" width="18.00" height="24.00" fill="rgb(38,26,37)" fill-opacity="0.9785" transform="rotate(3.73 197.00 543.00)"/>
  <rect x="345.00" y="273.50" width="10.00" height="19.00" fill="rgb(26,17,32)" fill-opacity="0.7550" transform="rotate(184.24 350.00 283.00)"/>
  <rect x="166.00" y="181.00" width="18.00" height="30.00" fill="rgb(64,27,28)" fill-opacity="0.8758" transform="rotate(159.41 175.00 196.00)"/>
</svg>