<svg xmlns="http://www.w3.org/2000/svg" width="960" height="1229" viewBox="0 0 960 1229">
  <rect width="100%" height="100%" fill="rgb(132,135,146)"/>
  <ellipse cx="579.00" cy="1082.00" rx="256.00" ry="437.00" fill="rgb(9,5,11)" fill-opacity="0.9309" transform="rotate(124.31 579.00 1082.00)"/>
  <ellipse cx="79.00" cy="1172.00" rx="105.00" ry="154.00" fill="rgb(23,22,21)" fill-opacity="0.7014" transform="rotate(245.52 79.00 1172.00)"/>
  <circle cx="571.00" cy="527.00" r="345.00" fill="rgb(180,188,180)" fill-opacity="0.7810"/>
  <rect x="397.50" y="616.50" width="171.00" height="169.00" fill="rgb(22,26,34)" fill-opacity="0.8986" transform="rotate(116.26 483.00 701.00)"/>
  <circle cx="539.00" cy="474.00" r="497.00" fill="rgb(198,198,208)" fill-opacity="0.8325"/>
  <rect x="315.00" y="699.00" width="500.00" height="466.00" fill="rgb(17,14,17)" fill-opacity="0.7352" transform="rotate(186.54 565.00 932.00)"/>
  <rect x="218.00" y="678.00" width="430.00" height="196.00" fill="rgb(21,28,28)" fill-opacity="0.8892" transform="rotate(290.90 433.00 776.00)"/>
  <circle cx="653.00" cy="727.00" r="139.00" fill="rgb(166,185,184)" fill-opacity="0.9028"/>
  <circle cx="247.00" cy="98.00" r="487.00" fill="rgb(211,217,236)" fill-opacity="0.7952"/>
  <rect x="644.50" y="583.00" width="409.00" height="396.00" fill="rgb(167,174,188)" fill-opacity="0.7697" transform="rotate(132.53 849.00 781.00)"/>
  <ellipse cx="389.00" cy="433.00" rx="121.00" ry="59.00" fill="rgb(183,191,202)" fill-opacity="0.8123" transform="rotate(272.39 389.00 433.00)"/>
  <rect x="-76.00" y="671.00" width="422.00" height="256.00" fill="rgb(123,130,132)" fill-opacity="0.7074" transform="rotate(213.81 135.00 799.00)"/>
  <rect x="441.50" y="821.00" width="167.00" height="88.00" fill="rgb(40,35,39)" fill-opacity="0.7303" transform="rotate(358.22 525.00 865.00)"/>
  <circle cx="467.00" cy="533.00" r="54.00" fill="rgb(36,33,37)" fill-opacity="0.7900"/>
  <circle cx="739.00" cy="672.00" r="40.00" fill="rgb(96,104,113)" fill-opacity="0.9375"/>
  <rect x="234.50" y="532.00" width="51.00" height="372.00" fill="rgb(60,69,71)" fill-opacity="0.7650" transform="rotate(70.73 260.00 718.00)"/>
  <rect x="492.00" y="508.00" width="104.00" height="78.00" fill="rgb(51,53,63)" fill-opacity="0.9765" transform="rotate(81.45 544.00 547.00)"/>
  <rect x="446.00" y="500.50" width="72.00" height="91.00" fill="rgb(39,46,52)" fill-opacity="0.9492" transform="rotate(91.86 482.00 546.00)"/>
  <ellipse cx="296.00" cy="733.00" rx="121.00" ry="77.00" fill="rgb(85,91,94)" fill-opacity="0.8536" transform="rotate(200.51 296.00 733.00)"/>
  <rect x="-46.50" y="465.00" width="307.00" height="190.00" fill="rgb(162,175,188)" fill-opacity="0.9664" transform="rotate(167.37 107.00 560.00)"/>
  <circle cx="175.00" cy="708.00" r="65.00" fill="rgb(53,61,65)" fill-opacity="0.7770"/>
  <rect x="179.50" y="616.00" width="323.00" height="88.00" fill="rgb(175,178,188)" fill-opacity="0.8586" transform="rotate(286.41 341.00 660.00)"/>
  <ellipse cx="490.00" cy="820.00" rx="101.00" ry="146.00" fill="rgb(23,24,28)" fill-opacity="0.7599" transform="rotate(167.91 490.00 820.00)"/>
  <ellipse cx="835.00" cy="1078.00" rx="87.00" ry="256.00" fill="rgb(23,22,27)" fill-opacity="0.9126" transform="rotate(287.37 835.00 1078.00)"/>
  <circle cx="240.00" cy="1211.00" r="245.00" fill="rgb(17,14,19)" fill-opacity="0.8456"/>
  <rect x="342.00" y="716.50" width="118.00" height="215.00" fill="rgb(27,26,34)" fill-opacity="0.8421" transform="rotate(217.77 401.00 824.00)"/>
  <rect x="766.50" y="473.00" width="37.00" height="118.00" fill="rgb(119,121,139)" fill-opacity="0.7433" transform="rotate(81.40 785.00 532.00)"/>
  <rect x="144.00" y="370.00" width="276.00" height="198.00" fill="rgb(186,191,200)" fill-opacity="0.7411" transform="rotate(74.83 282.00 469.00)"/>
  <circle cx="823.00" cy="54.00" r="309.00" fill="rgb(186,195,213)" fill-opacity="0.7627"/>
  <rect x="731.50" y="612.50" width="279.00" height="235.00" fill="rgb(173,175,186)" fill-opacity="0.9117" transform="rotate(280.72 871.00 730.00)"/>
  <rect x="120.00" y="764.50" width="132.00" height="205.00" fill="rgb(178,181,188)" fill-opacity="0.7320" transform="rotate(261.65 186.00 867.00)"/>
  <rect x="214.00" y="858.00" width="152.00" height="144.00" fill="rgb(23,22,27)" fill-opacity="0.7785" transform="rotate(141.53 290.00 930.00)"/>
  <rect x="-53.50" y="414.50" width="249.00" height="73.00" fill="rgb(184,188,194)" fill-opacity="0.8285" transform="rotate(339.51 71.00 451.00)"/>
  <rect x="52.50" y="481.50" width="51.00" height="355.00" fill="rgb(117,135,145)" fill-opacity="0.8937" transform="rotate(215.78 78.00 659.00)"/>
  <circle cx="18.00" cy="802.00" r="28.00" fill="rgb(105,99,100)" fill-opacity="0.7663"/>
  <rect x="478.50" y="882.50" width="223.00" height="171.00" fill="rgb(21,18,24)" fill-opacity="0.8687" transform="rotate(199.84 590.00 968.00)"/>
  <circle cx="487.00" cy="850.00" r="24.00" fill="rgb(22,21,26)" fill-opacity="0.8996"/>
  <ellipse cx="486.00" cy="373.00" rx="59.00" ry="341.00" fill="rgb(207,207,219)" fill-opacity="0.7861" transform="rotate(289.60 486.00 373.00)"/>
  <circle cx="809.00" cy="936.00" r="40.00" fill="rgb(180,178,168)" fill-opacity="0.7386"/>
  <circle cx="213.00" cy="527.00" r="35.00" fill="rgb(159,176,183)" fill-opacity="0.7000"/>
  <ellipse cx="519.00" cy="390.00" rx="17.00" ry="288.00" fill="rgb(202,207,210)" fill-opacity="0.8144" transform="rotate(338.81 519.00 390.00)"/>
  <circle cx="348.00" cy="695.00" r="46.00" fill="rgb(133,153,169)" fill-opacity="0.7000"/>
  <rect x="770.00" y="650.50" width="108.00" height="85.00" fill="rgb(126,137,151)" fill-opacity="0.7105" transform="rotate(5.92 824.00 693.00)"/>
  <rect x="848.00" y="481.50" width="180.00" height="45.00" fill="rgb(121,123,151)" fill-opacity="0.8732" transform="rotate(355.61 938.00 504.00)"/>
  <circle cx="207.00" cy="999.00" r="32.00" fill="rgb(167,170,154)" fill-opacity="0.8938"/>
  <rect x="-11.50" y="725.00" width="95.00" height="218.00" fill="rgb(166,164,160)" fill-opacity="0.7000" transform="rotate(354.78 36.00 834.00)"/>
  <rect x="62.50" y="571.50" width="245.00" height="43.00" fill="rgb(175,184,190)" fill-opacity="0.9446" transform="rotate(34.34 185.00 593.00)"/>
  <circle cx="349.00" cy="793.00" r="52.00" fill="rgb(119,129,137)" fill-opacity="0.7729"/>
  <ellipse cx="336.00" cy="762.00" rx="99.00" ry="37.00" fill="rgb(111,134,140)" fill-opacity="0.7881" transform="rotate(58.29 336.00 762.00)"/>
  <circle cx="850.00" cy="922.00" r="88.00" fill="rgb(155,169,171)" fill-opacity="0.7502"/>
  <ellipse cx="664.00" cy="805.00" rx="33.00" ry="56.00" fill="rgb(182,186,198)" fill-opacity="0.9800" transform="rotate(68.23 664.00 805.00)"/>
  <rect x="179.50" y="500.50" width="67.00" height="205.00" fill="rgb(178,185,196)" fill-opacity="0.7479" transform="rotate(311.07 213.00 603.00)"/>
  <ellipse cx="546.00" cy="753.00" rx="23.00" ry="22.00" fill="rgb(201,202,199)" fill-opacity="0.9454" transform="rotate(188.27 546.00 753.00)"/>
  <circle cx="698.00" cy="643.00" r="23.00" fill="rgb(158,165,176)" fill-opacity="0.8536"/>
  <rect x="378.50" y="723.00" width="55.00" height="244.00" fill="rgb(32,33,34)" fill-opacity="0.8150" transform="rotate(227.96 406.00 845.00)"/>
  <circle cx="208.00" cy="730.00" r="40.00" fill="rgb(76,76,74)" fill-opacity="0.8728"/>
  <circle cx="768.00" cy="690.00" r="45.00" fill="rgb(105,114,131)" fill-opacity="0.7758"/>
  <rect x="570.50" y="631.50" width="117.00" height="153.00" fill="rgb(139,152,168)" fill-opacity="0.7850" transform="rotate(243.74 629.00 708.00)"/>
  <ellipse cx="143.00" cy="973.00" rx="107.00" ry="43.00" fill="rgb(89,122,126)" fill-opacity="0.7616" transform="rotate(332.68 143.00 973.00)"/>
  <circle cx="737.00" cy="470.00" r="57.00" fill="rgb(166,174,190)" fill-opacity="0.9214"/>
  <circle cx="347.00" cy="846.00" r="34.00" fill="rgb(74,67,55)" fill-opacity="0.7761"/>
  <rect x="184.50" y="474.00" width="65.00" height="150.00" fill="rgb(182,188,197)" fill-opacity="0.8260" transform="rotate(257.86 217.00 549.00)"/>
  <ellipse cx="675.00" cy="673.00" rx="66.00" ry="50.00" fill="rgb(105,113,123)" fill-opacity="0.7000" transform="rotate(18.40 675.00 673.00)"/>
  <rect x="183.50" y="343.50" width="105.00" height="171.00" fill="rgb(191,196,208)" fill-opacity="0.8012" transform="rotate(87.03 236.00 429.00)"/>
  <rect x="-22.00" y="714.50" width="104.00" height="95.00" fill="rgb(105,114,129)" fill-opacity="0.7026" transform="rotate(73.04 30.00 762.00)"/>
  <rect x="406.00" y="631.00" width="152.00" height="96.00" fill="rgb(34,24,33)" fill-opacity="0.7041" transform="rotate(10.03 482.00 679.00)"/>
  <ellipse cx="223.00" cy="875.00" rx="56.00" ry="32.00" fill="rgb(157,176,167)" fill-opacity="0.9010" transform="rotate(275.60 223.00 875.00)"/>
  <ellipse cx="157.00" cy="512.00" rx="105.00" ry="20.00" fill="rgb(115,126,145)" fill-opacity="0.8085" transform="rotate(8.54 157.00 512.00)"/>
  <rect x="555.00" y="849.00" width="88.00" height="116.00" fill="rgb(28,29,33)" fill-opacity="0.7314" transform="rotate(51.28 599.00 907.00)"/>
  <circle cx="713.00" cy="947.00" r="18.00" fill="rgb(103,129,134)" fill-opacity="0.7000"/>
  <rect x="90.00" y="983.00" width="34.00" height="68.00" fill="rgb(128,128,137)" fill-opacity="0.9342" transform="rotate(231.64 107.00 1017.00)"/>
  <rect x="350.50" y="854.00" width="217.00" height="46.00" fill="rgb(40,28,35)" fill-opacity="0.7534" transform="rotate(267.24 459.00 877.00)"/>
  <rect x="865.00" y="936.00" width="172.00" height="116.00" fill="rgb(96,127,133)" fill-opacity="0.7508" transform="rotate(210.70 951.00 994.00)"/>
  <circle cx="257.00" cy="701.00" r="48.00" fill="rgb(76,80,79)" fill-opacity="0.7954"/>
  <circle cx="311.00" cy="722.00" r="31.00" fill="rgb(76,80,85)" fill-opacity="0.7410"/>
  <rect x="-38.50" y="525.00" width="77.00" height="38.00" fill="rgb(192,193,206)" fill-opacity="0.7208" transform="rotate(219.25 0.00 544.00)"/>
  <rect x="691.50" y="853.00" width="49.00" height="118.00" fill="rgb(102,114,128)" fill-opacity="0.8594" transform="rotate(308.54 716.00 912.00)"/>
  <circle cx="126.00" cy="900.00" r="99.00" fill="rgb(161,166,175)" fill-opacity="0.7379"/>
  <rect x="560.00" y="446.00" width="168.00" height="98.00" fill="rgb(202,201,208)" fill-opacity="0.7230" transform="rotate(133.97 644.00 495.00)"/>
  <rect x="871.50" y="997.00" width="95.00" height="178.00" fill="rgb(31,31,33)" fill-opacity="0.8835" transform="rotate(85.41 919.00 1086.00)"/>
  <rect x="494.00" y="579.00" width="204.00" height="20.00" fill="rgb(187,192,204)" fill-opacity="0.8827" transform="rotate(118.49 596.00 589.00)"/>
  <rect x="160.50" y="505.00" width="75.00" height="198.00" fill="rgb(174,179,192)" fill-opacity="0.8064" transform="rotate(323.76 198.00 604.00)"/>
  <rect x="143.00" y="804.00" width="186.00" height="38.00" fill="rgb(181,195,181)" fill-opacity="0.7971" transform="rotate(161.10 236.00 823.00)"/>
  <circle cx="626.00" cy="586.00" r="45.00" fill="rgb(186,191,203)" fill-opacity="0.8852"/>
  <circle cx="179.00" cy="949.00" r="31.00" fill="rgb(87,100,118)" fill-opacity="0.9028"/>
  <circle cx="130.00" cy="439.00" r="54.00" fill="rgb(198,199,205)" fill-opacity="0.8060"/>
  <circle cx="732.00" cy="840.00" r="28.00" fill="rgb(159,165,170)" fill-opacity="0.8446"/>
  <rect x="708.50" y="1001.50" width="35.00" height="57.00" fill="rgb(12,11,16)" fill-opacity="0.9632" transform="rotate(347.73 726.00 1030.00)"/>
  <rect x="685.50" y="508.50" width="17.00" height="63.00" fill="rgb(135,151,166)" fill-opacity="0.8571" transform="rotate(280.88 694.00 540.00)"/>
  <ellipse cx="682.00" cy="540.00" rx="19.00" ry="115.00" fill="rgb(141,155,171)" fill-opacity="0.7644" transform="rotate(80.03 682.00 540.00)"/>
  <circle cx="484.00" cy="704.00" r="67.00" fill="rgb(34,37,43)" fill-opacity="0.7009"/>
  <circle cx="601.00" cy="755.00" r="52.00" fill="rgb(171,174,200)" fill-opacity="0.7552"/>
  <rect x="256.50" y="814.50" width="57.00" height="111.00" fill="rgb(49,34,44)" fill-opacity="0.8764" transform="rotate(292.84 285.00 870.00)"/>
  <rect x="119.00" y="678.50" width="52.00" height="135.00" fill="rgb(76,74,82)" fill-opacity="0.7737" transform="rotate(93.16 145.00 746.00)"/>
  <circle cx="22.00" cy="1079.00" r="33.00" fill="rgb(107,114,123)" fill-opacity="0.9439"/>
  <ellipse cx="778.00" cy="943.00" rx="48.00" ry="19.00" fill="rgb(172,176,182)" fill-opacity="0.8954" transform="rotate(357.74 778.00 943.00)"/>
  <circle cx="948.00" cy="1046.00" r="16.00" fill="rgb(150,163,171)" fill-opacity="0.7680"/>
  <rect x="464.50" y="460.00" width="25.00" height="68.00" fill="rgb(45,46,53)" fill-opacity="0.8368" transform="rotate(72.32 477.00 494.00)"/>
  <ellipse cx="482.00" cy="447.00" rx="42.00" ry="22.00" fill="rgb(73,50,49)" fill-opacity="0.7439" transform="rotate(92.80 482.00 447.00)"/>
  <rect x="-8.00" y="736.50" width="144.00" height="23.00" fill="rgb(123,139,160)" fill-opacity="0.9194" transform="rotate(107.23 64.00 748.00)"/>
  <circle cx="246.00" cy="1177.00" r="133.00" fill="rgb(19,16,19)" fill-opacity="0.8108"/>
  <rect x="599.00" y="673.50" width="62.00" height="33.00" fill="rgb(114,135,152)" fill-opacity="0.8237" transform="rotate(42.57 630.00 690.00)"/>
  <rect x="141.00" y="979.50" width="46.00" height="37.00" fill="rgb(164,166,140)" fill-opacity="0.7439" transform="rotate(193.66 164.00 998.00)"/>
  <rect x="-4.00" y="944.00" width="94.00" height="96.00" fill="rgb(103,118,133)" fill-opacity="0.8022" transform="rotate(117.67 43.00 992.00)"/>
  <circle cx="457.00" cy="765.00" r="28.00" fill="rgb(168,172,162)" fill-opacity="0.7900"/>
  <circle cx="934.00" cy="743.00" r="48.00" fill="rgb(202,205,215)" fill-opacity="0.8560"/>
  <rect x="766.00" y="940.50" width="22.00" height="81.00" fill="rgb(29,33,39)" fill-opacity="0.9108" transform="rotate(279.76 777.00 981.00)"/>
  <rect x="256.50" y="854.50" width="57.00" height="101.00" fill="rgb(26,23,28)" fill-opacity="0.8195" transform="rotate(134.93 285.00 905.00)"/>
</svg>