<svg xmlns="http://www.w3.org/2000/svg" width="500" height="745" viewBox="0 0 500 745">
  <rect width="100%" height="100%" fill="rgb(86,72,53)"/>
  <rect x="153.50" y="112.50" width="127.00" height="121.00" fill="rgb(165,83,41)" fill-opacity="0.8123" transform="rotate(45.54 217.00 173.00)"/>
  <rect x="-21.00" y="-56.50" width="246.00" height="257.00" fill="rgb(131,142,89)" fill-opacity="0.7867" transform="rotate(226.44 102.00 72.00)"/>
  <rect x="194.50" y="293.00" width="93.00" height="134.00" fill="rgb(219,184,88)" fill-opacity="0.9662" transform="rotate(141.96 241.00 360.00)"/>
  <rect x="366.50" y="-16.00" width="159.00" height="194.00" fill="rgb(134,151,94)" fill-opacity="0.7941" transform="rotate(354.88 446.00 81.00)"/>
  <rect x="259.50" y="612.50" width="261.00" height="241.00" fill="rgb(10,0,32)" fill-opacity="0.8195" transform="rotate(45.74 390.00 733.00)"/>
  <rect x="-32.00" y="538.50" width="202.00" height="237.00" fill="rgb(16,3,34)" fill-opacity="0.8547" transform="rotate(271.02 69.00 657.00)"/>
  <rect x="83.50" y="-63.00" width="245.00" height="200.00" fill="rgb(128,142,88)" fill-opacity="0.7378" transform="rotate(125.24 206.00 37.00)"/>
  <rect x="119.50" y="573.00" width="313.00" height="154.00" fill="rgb(8,0,16)" fill-opacity="0.8757" transform="rotate(299.32 276.00 650.00)"/>
  <rect x="225.00" y="114.00" width="168.00" height="40.00" fill="rgb(26,20,15)" fill-opacity="0.8513" transform="rotate(238.68 309.00 134.00)"/>
  <rect x="18.00" y="344.00" width="154.00" height="182.00" fill="rgb(48,24,28)" fill-opacity="0.9161" transform="rotate(349.40 95.00 435.00)"/>
  <rect x="-8.00" y="281.50" width="194.00" height="95.00" fill="rgb(117,85,50)" fill-opacity="0.7239" transform="rotate(117.81 89.00 329.00)"/>
  <rect x="154.00" y="184.50" width="38.00" height="181.00" fill="rgb(45,5,11)" fill-opacity="0.7226" transform="rotate(180.37 173.00 275.00)"/>
  <rect x="191.00" y="443.00" width="214.00" height="192.00" fill="rgb(17,16,37)" fill-opacity="0.7246" transform="rotate(146.68 298.00 539.00)"/>
  <rect x="186.00" y="148.00" width="122.00" height="64.00" fill="rgb(219,170,103)" fill-opacity="0.8846" transform="rotate(116.83 247.00 180.00)"/>
  <rect x="284.00" y="157.50" width="22.00" height="85.00" fill="rgb(64,29,24)" fill-opacity="0.7674" transform="rotate(140.79 295.00 200.00)"/>
  <rect x="118.00" y="558.50" width="124.00" height="131.00" fill="rgb(130,78,43)" fill-opacity="0.8716" transform="rotate(3.21 180.00 624.00)"/>
  <rect x="203.00" y="553.00" width="60.00" height="112.00" fill="rgb(191,132,58)" fill-opacity="0.7828" transform="rotate(308.19 233.00 609.00)"/>
  <rect x="288.50" y="-1.50" width="141.00" height="81.00" fill="rgb(114,124,73)" fill-opacity="0.9628" transform="rotate(140.89 359.00 39.00)"/>
  <rect x="377.50" y="370.50" width="45.00" height="81.00" fill="rgb(31,21,33)" fill-opacity="0.7889" transform="rotate(153.33 400.00 411.00)"/>
  <rect x="80.50" y="74.00" width="111.00" height="82.00" fill="rgb(148,155,101)" fill-opacity="0.8647" transform="rotate(335.79 136.00 115.00)"/>
  <rect x="305.50" y="210.00" width="99.00" height="236.00" fill="rgb(46,27,27)" fill-opacity="0.7819" transform="rotate(178.97 355.00 328.00)"/>
  <rect x="208.50" y="573.00" width="143.00" height="244.00" fill="rgb(35,16,30)" fill-opacity="0.7781" transform="rotate(247.69 280.00 695.00)"/>
  <rect x="242.00" y="161.00" width="22.00" height="164.00" fill="rgb(162,120,57)" fill-opacity="0.7561" transform="rotate(22.17 253.00 243.00)"/>
  <rect x="239.50" y="242.00" width="35.00" height="114.00" fill="rgb(158,121,56)" fill-opacity="0.8943" transform="rotate(105.55 257.00 299.00)"/>
  <rect x="-44.50" y="302.00" width="145.00" height="172.00" fill="rgb(117,74,41)" fill-opacity="0.7946" transform="rotate(15.25 28.00 388.00)"/>
  <rect x="388.50" y="104.00" width="171.00" height="116.00" fill="rgb(152,154,103)" fill-opacity="0.7786" transform="rotate(242.32 474.00 162.00)"/>
  <rect x="214.00" y="526.50" width="72.00" height="37.00" fill="rgb(31,21,40)" fill-opacity="0.9367" transform="rotate(329.45 250.00 545.00)"/>
  <rect x="48.50" y="399.50" width="107.00" height="221.00" fill="rgb(63,41,45)" fill-opacity="0.9011" transform="rotate(219.09 102.00 510.00)"/>
  <rect x="49.50" y="206.00" width="181.00" height="90.00" fill="rgb(72,63,44)" fill-opacity="0.7000" transform="rotate(56.33 140.00 251.00)"/>
  <rect x="250.50" y="316.00" width="67.00" height="34.00" fill="rgb(208,167,67)" fill-opacity="0.7739" transform="rotate(60.55 284.00 333.00)"/>
  <rect x="418.50" y="177.50" width="119.00" height="213.00" fill="rgb(85,85,69)" fill-opacity="0.7430" transform="rotate(299.81 478.00 284.00)"/>
  <rect x="196.00" y="101.50" width="64.00" height="63.00" fill="rgb(255,219,115)" fill-opacity="0.8362" transform="rotate(113.96 228.00 133.00)"/>
  <rect x="65.00" y="422.00" width="148.00" height="106.00" fill="rgb(60,39,44)" fill-opacity="0.8186" transform="rotate(134.25 139.00 475.00)"/>
  <rect x="185.50" y="366.50" width="33.00" height="87.00" fill="rgb(118,80,36)" fill-opacity="0.8335" transform="rotate(109.81 202.00 410.00)"/>
  <rect x="198.50" y="147.00" width="89.00" height="26.00" fill="rgb(185,144,60)" fill-opacity="0.7574" transform="rotate(35.24 243.00 160.00)"/>
  <rect x="140.00" y="539.00" width="36.00" height="58.00" fill="rgb(199,158,72)" fill-opacity="0.9222" transform="rotate(246.18 158.00 568.00)"/>
  <rect x="174.00" y="65.50" width="26.00" height="133.00" fill="rgb(108,88,52)" fill-opacity="0.7660" transform="rotate(19.83 187.00 132.00)"/>
  <rect x="260.50" y="35.50" width="35.00" height="53.00" fill="rgb(135,143,95)" fill-opacity="0.7964" transform="rotate(321.84 278.00 62.00)"/>
  <rect x="186.50" y="150.00" width="49.00" height="96.00" fill="rgb(189,143,62)" fill-opacity="0.7000" transform="rotate(180.39 211.00 198.00)"/>
  <rect x="-3.50" y="197.00" width="141.00" height="128.00" fill="rgb(77,78,58)" fill-opacity="0.7698" transform="rotate(178.29 67.00 261.00)"/>
  <rect x="133.50" y="587.50" width="49.00" height="57.00" fill="rgb(170,112,50)" fill-opacity="0.7019" transform="rotate(226.72 158.00 616.00)"/>
  <rect x="168.50" y="71.00" width="139.00" height="24.00" fill="rgb(162,154,23)" fill-opacity="0.7081" transform="rotate(218.01 238.00 83.00)"/>
  <rect x="278.00" y="495.50" width="196.00" height="93.00" fill="rgb(16,5,32)" fill-opacity="0.7614" transform="rotate(94.46 376.00 542.00)"/>
  <rect x="403.50" y="125.00" width="53.00" height="90.00" fill="rgb(178,170,102)" fill-opacity="0.7660" transform="rotate(25.11 430.00 170.00)"/>
  <rect x="181.50" y="41.50" width="123.00" height="139.00" fill="rgb(105,59,28)" fill-opacity="0.8087" transform="rotate(92.19 243.00 111.00)"/>
  <rect x="309.50" y="509.50" width="155.00" height="225.00" fill="rgb(25,19,45)" fill-opacity="0.7528" transform="rotate(255.63 387.00 622.00)"/>
  <rect x="109.00" y="63.50" width="62.00" height="125.00" fill="rgb(143,142,90)" fill-opacity="0.7319" transform="rotate(27.04 140.00 126.00)"/>
  <rect x="177.00" y="13.00" width="156.00" height="56.00" fill="rgb(114,129,82)" fill-opacity="0.9665" transform="rotate(13.59 255.00 41.00)"/>
  <rect x="231.50" y="376.00" width="135.00" height="182.00" fill="rgb(32,21,34)" fill-opacity="0.7108" transform="rotate(72.88 299.00 467.00)"/>
  <rect x="181.00" y="251.00" width="150.00" height="22.00" fill="rgb(95,53,35)" fill-opacity="0.8242" transform="rotate(332.83 256.00 262.00)"/>
  <rect x="296.00" y="572.50" width="40.00" height="161.00" fill="rgb(62,17,36)" fill-opacity="0.8702" transform="rotate(68.04 316.00 653.00)"/>
  <rect x="-24.00" y="380.00" width="48.00" height="156.00" fill="rgb(91,71,58)" fill-opacity="0.8779" transform="rotate(344.91 0.00 458.00)"/>
  <rect x="205.00" y="636.50" width="172.00" height="53.00" fill="rgb(8,10,30)" fill-opacity="0.7713" transform="rotate(111.77 291.00 663.00)"/>
  <rect x="186.00" y="358.00" width="84.00" height="36.00" fill="rgb(245,214,109)" fill-opacity="0.7237" transform="rotate(8.50 228.00 376.00)"/>
  <rect x="313.50" y="659.00" width="105.00" height="148.00" fill="rgb(6,3,22)" fill-opacity="0.7843" transform="rotate(245.16 366.00 733.00)"/>
  <rect x="110.00" y="372.50" width="36.00" height="151.00" fill="rgb(45,34,46)" fill-opacity="0.8132" transform="rotate(330.78 128.00 448.00)"/>
  <rect x="280.00" y="603.50" width="166.00" height="169.00" fill="rgb(8,5,24)" fill-opacity="0.7521" transform="rotate(32.24 363.00 688.00)"/>
  <rect x="150.00" y="280.50" width="86.00" height="39.00" fill="rgb(50,19,25)" fill-opacity="0.7238" transform="rotate(122.73 193.00 300.00)"/>
  <rect x="395.50" y="-42.00" width="21.00" height="86.00" fill="rgb(59,98,66)" fill-opacity="0.8145" transform="rotate(271.40 406.00 1.00)"/>
  <rect x="230.50" y="594.50" width="83.00" height="55.00" fill="rgb(147,94,37)" fill-opacity="0.7697" transform="rotate(185.46 272.00 622.00)"/>
  <rect x="253.00" y="134.50" width="90.00" height="9.00" fill="rgb(43,23,32)" fill-opacity="0.7859" transform="rotate(50.57 298.00 139.00)"/>
  <rect x="308.00" y="185.50" width="188.00" height="63.00" fill="rgb(73,95,70)" fill-opacity="0.8334" transform="rotate(231.11 402.00 217.00)"/>
  <rect x="158.50" y="133.00" width="115.00" height="68.00" fill="rgb(202,160,69)" fill-opacity="0.8473" transform="rotate(279.91 216.00 167.00)"/>
  <rect x="217.50" y="140.00" width="15.00" height="46.00" fill="rgb(139,95,45)" fill-opacity="0.7841" transform="rotate(283.86 225.00 163.00)"/>
  <rect x="102.50" y="-67.50" width="85.00" height="157.00" fill="rgb(93,114,68)" fill-opacity="0.7264" transform="rotate(304.48 145.00 11.00)"/>
  <rect x="345.00" y="424.50" width="188.00" height="51.00" fill="rgb(32,25,48)" fill-opacity="0.7276" transform="rotate(79.11 439.00 450.00)"/>
  <rect x="81.50" y="669.00" width="55.00" height="32.00" fill="rgb(49,29,40)" fill-opacity="0.8509" transform="rotate(180.42 109.00 685.00)"/>
  <rect x="200.00" y="567.50" width="34.00" height="35.00" fill="rgb(190,142,58)" fill-opacity="0.7342" transform="rotate(61.31 217.00 585.00)"/>
  <rect x="53.00" y="342.00" width="32.00" height="146.00" fill="rgb(139,95,43)" fill-opacity="0.9311" transform="rotate(33.30 69.00 415.00)"/>
  <rect x="-13.50" y="379.00" width="43.00" height="128.00" fill="rgb(64,44,63)" fill-opacity="0.7197" transform="rotate(333.98 8.00 443.00)"/>
  <rect x="294.00" y="184.00" width="58.00" height="84.00" fill="rgb(30,23,30)" fill-opacity="0.8162" transform="rotate(5.48 323.00 226.00)"/>
  <rect x="346.00" y="515.00" width="52.00" height="96.00" fill="rgb(33,14,34)" fill-opacity="0.9696" transform="rotate(350.62 372.00 563.00)"/>
  <rect x="150.00" y="62.50" width="38.00" height="69.00" fill="rgb(150,154,98)" fill-opacity="0.7919" transform="rotate(220.87 169.00 97.00)"/>
  <rect x="219.50" y="192.50" width="47.00" height="61.00" fill="rgb(171,122,61)" fill-opacity="0.8722" transform="rotate(199.03 243.00 223.00)"/>
  <rect x="366.50" y="274.00" width="111.00" height="34.00" fill="rgb(73,85,60)" fill-opacity="0.7515" transform="rotate(118.47 422.00 291.00)"/>
  <rect x="-38.00" y="225.00" width="76.00" height="80.00" fill="rgb(61,52,46)" fill-opacity="0.8657" transform="rotate(246.63 0.00 265.00)"/>
  <rect x="232.50" y="374.50" width="37.00" height="15.00" fill="rgb(248,220,129)" fill-opacity="0.7931" transform="rotate(136.86 251.00 382.00)"/>
  <rect x="186.00" y="554.00" width="96.00" height="16.00" fill="rgb(26,19,39)" fill-opacity="0.8811" transform="rotate(200.67 234.00 562.00)"/>
  <rect x="100.00" y="546.50" width="36.00" height="69.00" fill="rgb(80,46,44)" fill-opacity="0.7268" transform="rotate(327.29 118.00 581.00)"/>
  <rect x="-21.50" y="549.00" width="71.00" height="92.00" fill="rgb(34,30,52)" fill-opacity="0.7000" transform="rotate(226.55 14.00 595.00)"/>
  <rect x="430.50" y="289.50" width="75.00" height="107.00" fill="rgb(118,111,69)" fill-opacity="0.7740" transform="rotate(169.95 468.00 343.00)"/>
  <rect x="362.50" y="219.00" width="71.00" height="58.00" fill="rgb(70,83,61)" fill-opacity="0.7841" transform="rotate(244.29 398.00 248.00)"/>
  <rect x="325.50" y="584.00" width="51.00" height="74.00" fill="rgb(78,31,26)" fill-opacity="0.8158" transform="rotate(238.80 351.00 621.00)"/>
  <rect x="207.00" y="237.00" width="18.00" height="20.00" fill="rgb(208,165,77)" fill-opacity="0.7731" transform="rotate(213.93 216.00 247.00)"/>
  <rect x="347.00" y="341.50" width="28.00" height="29.00" fill="rgb(93,73,30)" fill-opacity="0.9498" transform="rotate(154.80 361.00 356.00)"/>
  <rect x="193.50" y="423.00" width="61.00" height="88.00" fill="rgb(71,53,41)" fill-opacity="0.7941" transform="rotate(208.23 224.00 467.00)"/>
  <rect x="184.50" y="342.50" width="45.00" height="57.00" fill="rgb(228,191,94)" fill-opacity="0.9118" transform="rotate(222.41 207.00 371.00)"/>
  <rect x="179.00" y="170.00" width="92.00" height="10.00" fill="rgb(146,103,49)" fill-opacity="0.9017" transform="rotate(3.89 225.00 175.00)"/>
  <rect x="335.00" y="408.00" width="60.00" height="80.00" fill="rgb(59,36,36)" fill-opacity="0.8283" transform="rotate(19.08 365.00 448.00)"/>
  <rect x="38.50" y="533.00" width="79.00" height="12.00" fill="rgb(92,56,34)" fill-opacity="0.8392" transform="rotate(180.65 78.00 539.00)"/>
  <rect x="46.50" y="94.50" width="35.00" height="65.00" fill="rgb(156,159,97)" fill-opacity="0.7569" transform="rotate(344.23 64.00 127.00)"/>
  <rect x="192.50" y="118.00" width="47.00" height="46.00" fill="rgb(223,181,96)" fill-opacity="0.8896" transform="rotate(217.27 216.00 141.00)"/>
  <rect x="84.00" y="647.50" width="82.00" height="137.00" fill="rgb(27,13,32)" fill-opacity="0.7171" transform="rotate(312.13 125.00 716.00)"/>
  <rect x="38.50" y="408.00" width="13.00" height="74.00" fill="rgb(142,106,63)" fill-opacity="0.7389" transform="rotate(53.80 45.00 445.00)"/>
  <rect x="402.50" y="59.00" width="25.00" height="60.00" fill="rgb(146,151,95)" fill-opacity="0.8333" transform="rotate(86.60 415.00 89.00)"/>
  <rect x="229.50" y="-9.00" width="147.00" height="24.00" fill="rgb(76,109,64)" fill-opacity="0.8269" transform="rotate(185.10 303.00 3.00)"/>
  <rect x="129.00" y="479.50" width="90.00" height="49.00" fill="rgb(38,27,40)" fill-opacity="0.8772" transform="rotate(286.09 174.00 504.00)"/>
  <rect x="458.00" y="210.50" width="58.00" height="53.00" fill="rgb(82,89,71)" fill-opacity="0.8498" transform="rotate(254.10 487.00 237.00)"/>
  <rect x="246.00" y="630.00" width="80.00" height="44.00" fill="rgb(48,19,25)" fill-opacity="0.7236" transform="rotate(324.68 286.00 652.00)"/>
  <rect x="263.00" y="319.50" width="24.00" height="63.00" fill="rgb(220,184,90)" fill-opacity="0.7202" transform="rotate(9.35 275.00 351.00)"/>
  <rect x="307.50" y="155.50" width="33.00" height="83.00" fill="rgb(37,19,34)" fill-opacity="0.8906" transform="rotate(359.53 324.00 197.00)"/>
  <rect x="118.50" y="123.50" width="25.00" height="55.00" fill="rgb(171,179,123)" fill-opacity="0.8885" transform="rotate(104.69 131.00 151.00)"/>
  <rect x="293.50" y="593.50" width="67.00" height="35.00" fill="rgb(98,50,22)" fill-opacity="0.8689" transform="rotate(166.99 327.00 611.00)"/>
  <rect x="364.00" y="345.50" width="40.00" height="97.00" fill="rgb(33,21,37)" fill-opacity="0.8505" transform="rotate(59.54 384.00 394.00)"/>
  <rect x="353.50" y="451.50" width="49.00" height="35.00" fill="rgb(26,12,31)" fill-opacity="0.7446" transform="rotate(109.49 378.00 469.00)"/>
  <rect x="92.00" y="524.00" width="20.00" height="68.00" fill="rgb(110,71,40)" fill-opacity="0.8632" transform="rotate(269.03 102.00 558.00)"/>
  <rect x="322.00" y="400.50" width="30.00" height="39.00" fill="rgb(56,48,37)" fill-opacity="0.9800" transform="rotate(31.28 337.00 420.00)"/>
  <rect x="227.50" y="617.00" width="23.00" height="76.00" fill="rgb(93,46,36)" fill-opacity="0.8055" transform="rotate(262.75 239.00 655.00)"/>
  <rect x="169.00" y="160.00" width="14.00" height="90.00" fill="rgb(60,17,25)" fill-opacity="0.9061" transform="rotate(348.03 176.00 205.00)"/>
  <rect x="425.50" y="386.50" width="75.00" height="33.00" fill="rgb(105,58,51)" fill-opacity="0.8710" transform="rotate(62.72 463.00 403.00)"/>
  <rect x="329.00" y="398.50" width="42.00" height="35.00" fill="rgb(62,48,39)" fill-opacity="0.7413" transform="rotate(88.78 350.00 416.00)"/>
  <rect x="264.50" y="87.00" width="65.00" height="34.00" fill="rgb(29,12,17)" fill-opacity="0.8079" transform="rotate(33.34 297.00 104.00)"/>
  <rect x="133.00" y="42.00" width="26.00" height="38.00" fill="rgb(126,135,79)" fill-opacity="0.7391" transform="rotate(141.35 146.00 61.00)"/>
  <rect x="29.50" y="446.00" width="29.00" height="60.00" fill="rgb(92,69,54)" fill-opacity="0.7033" transform="rotate(220.86 44.00 476.00)"/>
  <rect x="315.00" y="37.50" width="44.00" height="103.00" fill="rgb(130,141,89)" fill-opacity="0.7727" transform="rotate(147.02 337.00 89.00)"/>
  <rect x="228.00" y="85.00" width="58.00" height="18.00" fill="rgb(73,41,27)" fill-opacity="0.7805" transform="rotate(223.56 257.00 94.00)"/>
  <rect x="241.50" y="172.50" width="27.00" height="49.00" fill="rgb(215,165,78)" fill-opacity="0.8955" transform="rotate(34.61 255.00 197.00)"/>
  <rect x="133.50" y="251.50" width="23.00" height="45.00" fill="rgb(95,101,69)" fill-opacity="0.8078" transform="rotate(340.18 145.00 274.00)"/>
  <rect x="123.00" y="102.00" width="30.00" height="58.00" fill="rgb(160,160,106)" fill-opacity="0.9254" transform="rotate(260.81 138.00 131.00)"/>
  <rect x="110.50" y="266.00" width="39.00" height="46.00" fill="rgb(110,114,81)" fill-opacity="0.7426" transform="rotate(127.78 130.00 289.00)"/>
  <rect x="309.00" y="303.00" width="28.00" height="56.00" fill="rgb(87,50,29)" fill-opacity="0.7995" transform="rotate(189.05 323.00 331.00)"/>
  <rect x="39.00" y="597.00" width="70.00" height="44.00" fill="rgb(24,16,37)" fill-opacity="0.8406" transform="rotate(11.21 74.00 619.00)"/>
  <rect x="98.00" y="319.50" width="40.00" height="47.00" fill="rgb(93,70,30)" fill-opacity="0.9181" transform="rotate(38.84 118.00 343.00)"/>
  <rect x="15.00" y="508.00" width="50.00" height="38.00" fill="rgb(57,37,48)" fill-opacity="0.8574" transform="rotate(198.79 40.00 527.00)"/>
  <rect x="220.00" y="397.50" width="28.00" height="29.00" fill="rgb(128,84,47)" fill-opacity="0.7340" transform="rotate(64.51 234.00 412.00)"/>
  <rect x="320.00" y="88.50" width="92.00" height="53.00" fill="rgb(147,155,102)" fill-opacity="0.7675" transform="rotate(47.01 366.00 115.00)"/>
  <rect x="141.50" y="703.00" width="75.00" height="10.00" fill="rgb(32,10,30)" fill-opacity="0.9483" transform="rotate(19.08 179.00 708.00)"/>
  <rect x="109.00" y="380.00" width="52.00" height="20.00" fill="rgb(50,32,36)" fill-opacity="0.8082" transform="rotate(298.07 135.00 390.00)"/>
  <rect x="344.50" y="428.50" width="47.00" height="29.00" fill="rgb(92,60,32)" fill-opacity="0.7900" transform="rotate(131.34 368.00 443.00)"/>
  <rect x="158.00" y="43.50" width="76.00" height="37.00" fill="rgb(134,139,80)" fill-opacity="0.8242" transform="rotate(347.02 196.00 62.00)"/>
  <rect x="322.00" y="218.00" width="82.00" height="20.00" fill="rgb(72,80,54)" fill-opacity="0.8535" transform="rotate(267.00 363.00 228.00)"/>
  <rect x="222.00" y="340.50" width="58.00" height="53.00" fill="rgb(235,200,107)" fill-opacity="0.8125" transform="rotate(73.36 251.00 367.00)"/>
  <rect x="28.50" y="155.00" width="33.00" height="60.00" fill="rgb(85,104,68)" fill-opacity="0.7665" transform="rotate(119.28 45.00 185.00)"/>
  <rect x="287.00" y="243.50" width="64.00" height="49.00" fill="rgb(34,21,28)" fill-opacity="0.7797" transform="rotate(68.81 319.00 268.00)"/>
  <rect x="281.00" y="214.50" width="14.00" height="63.00" fill="rgb(55,28,28)" fill-opacity="0.8778" transform="rotate(188.17 288.00 246.00)"/>
  <rect x="115.50" y="309.50" width="47.00" height="41.00" fill="rgb(66,37,33)" fill-opacity="0.8535" transform="rotate(67.45 139.00 330.00)"/>
  <rect x="215.50" y="228.00" width="37.00" height="26.00" fill="rgb(156,110,48)" fill-opacity="0.8128" transform="rotate(63.44 234.00 241.00)"/>
  <rect x="285.50" y="117.50" width="37.00" height="27.00" fill="rgb(29,16,27)" fill-opacity="0.9421" transform="rotate(14.62 304.00 131.00)"/>
  <rect x="204.50" y="107.00" width="35.00" height="36.00" fill="rgb(226,184,87)" fill-opacity="0.8236" transform="rotate(233.07 222.00 125.00)"/>
  <rect x="36.50" y="437.50" width="43.00" height="35.00" fill="rgb(149,107,61)" fill-opacity="0.9141" transform="rotate(7.79 58.00 455.00)"/>
  <rect x="287.00" y="143.00" width="52.00" height="48.00" fill="rgb(27,16,31)" fill-opacity="0.8565" transform="rotate(81.04 313.00 167.00)"/>
  <rect x="409.00" y="301.00" width="50.00" height="56.00" fill="rgb(134,117,62)" fill-opacity="0.8158" transform="rotate(62.87 434.00 329.00)"/>
  <rect x="333.00" y="45.50" width="54.00" height="45.00" fill="rgb(124,137,87)" fill-opacity="0.7000" transform="rotate(357.69 360.00 68.00)"/>
  <rect x="299.50" y="347.00" width="37.00" height="50.00" fill="rgb(132,98,33)" fill-opacity="0.7978" transform="rotate(272.44 318.00 372.00)"/>
  <rect x="-3.50" y="74.50" width="61.00" height="73.00" fill="rgb(147,155,102)" fill-opacity="0.8440" transform="rotate(145.28 27.00 111.00)"/>
  <rect x="294.50" y="411.50" width="11.00" height="25.00" fill="rgb(26,18,28)" fill-opacity="0.7845" transform="rotate(9.11 300.00 424.00)"/>
  <rect x="112.00" y="151.50" width="32.00" height="27.00" fill="rgb(171,173,120)" fill-opacity="0.8566" transform="rotate(56.34 128.00 165.00)"/>
  <rect x="290.00" y="-8.00" width="22.00" height="48.00" fill="rgb(101,118,69)" fill-opacity="0.7381" transform="rotate(290.00 301.00 16.00)"/>
  <rect x="65.50" y="335.00" width="15.00" height="34.00" fill="rgb(150,121,46)" fill-opacity="0.8823" transform="rotate(114.68 73.00 352.00)"/>
  <rect x="168.50" y="249.50" width="41.00" height="61.00" fill="rgb(55,26,31)" fill-opacity="0.8042" transform="rotate(168.25 189.00 280.00)"/>
  <rect x="270.50" y="74.00" width="13.00" height="42.00" fill="rgb(47,29,24)" fill-opacity="0.8687" transform="rotate(145.92 277.00 95.00)"/>
  <rect x="464.50" y="-20.00" width="19.00" height="54.00" fill="rgb(66,98,71)" fill-opacity="0.8334" transform="rotate(81.93 474.00 7.00)"/>
  <rect x="178.00" y="402.00" width="46.00" height="30.00" fill="rgb(115,88,44)" fill-opacity="0.8769" transform="rotate(243.18 201.00 417.00)"/>
  <rect x="475.00" y="532.00" width="20.00" height="70.00" fill="rgb(46,41,55)" fill-opacity="0.8313" transform="rotate(355.53 485.00 567.00)"/>
  <rect x="274.00" y="379.00" width="12.00" height="42.00" fill="rgb(129,101,43)" fill-opacity="0.8349" transform="rotate(221.90 280.00 400.00)"/>
  <rect x="236.00" y="149.50" width="52.00" height="17.00" fill="rgb(161,127,55)" fill-opacity="0.9305" transform="rotate(279.39 262.00 158.00)"/>
  <rect x="333.50" y="139.00" width="21.00" height="8.00" fill="rgb(112,124,79)" fill-opacity="0.8607" transform="rotate(240.47 344.00 143.00)"/>
  <rect x="244.50" y="586.50" width="9.00" height="23.00" fill="rgb(207,155,68)" fill-opacity="0.9491" transform="rotate(102.36 249.00 598.00)"/>
  <rect x="340.00" y="362.00" width="28.00" height="4.00" fill="rgb(159,124,49)" fill-opacity="0.9209" transform="rotate(140.82 354.00 364.00)"/>
  <rect x="215.00" y="243.00" width="12.00" height="22.00" fill="rgb(206,170,86)" fill-opacity="0.8790" transform="rotate(230.49 221.00 254.00)"/>
  <rect x="94.50" y="392.50" width="33.00" height="17.00" fill="rgb(48,32,44)" fill-opacity="0.8368" transform="rotate(152.48 111.00 401.00)"/>
  <rect x="252.00" y="252.00" width="30.00" height="46.00" fill="rgb(78,51,33)" fill-opacity="0.7180" transform="rotate(67.09 267.00 275.00)"/>
  <rect x="154.50" y="352.00" width="55.00" height="4.00" fill="rgb(171,117,40)" fill-opacity="0.8567" transform="rotate(129.34 182.00 354.00)"/>
  <rect x="164.00" y="143.00" width="18.00" height="12.00" fill="rgb(65,30,33)" fill-opacity="0.8470" transform="rotate(258.65 173.00 149.00)"/>
  <rect x="138.00" y="620.00" width="36.00" height="34.00" fill="rgb(178,131,56)" fill-opacity="0.7408" transform="rotate(310.71 156.00 637.00)"/>
  <rect x="28.00" y="394.00" width="48.00" height="44.00" fill="rgb(135,65,39)" fill-opacity="0.8872" transform="rotate(351.82 52.00 416.00)"/>
  <rect x="241.00" y="620.50" width="50.00" height="9.00" fill="rgb(81,27,27)" fill-opacity="0.8298" transform="rotate(41.69 266.00 625.00)"/>
  <rect x="390.50" y="445.50" width="35.00" height="19.00" fill="rgb(27,22,40)" fill-opacity="0.8771" transform="rotate(108.69 408.00 455.00)"/>
  <rect x="152.50" y="177.00" width="5.00" height="10.00" fill="rgb(153,146,102)" fill-opacity="0.9533" transform="rotate(164.36 155.00 182.00)"/>
  <rect x="323.50" y="383.50" width="17.00" height="21.00" fill="rgb(26,33,35)" fill-opacity="0.7388" transform="rotate(125.59 332.00 394.00)"/>
  <rect x="371.50" y="155.00" width="39.00" height="14.00" fill="rgb(118,127,79)" fill-opacity="0.7389" transform="rotate(356.31 391.00 162.00)"/>
  <rect x="466.00" y="442.50" width="18.00" height="31.00" fill="rgb(115,84,63)" fill-opacity="0.7408" transform="rotate(136.35 475.00 458.00)"/>
  <rect x="68.50" y="118.00" width="37.00" height="32.00" fill="rgb(162,165,107)" fill-opacity="0.8186" transform="rotate(349.07 87.00 134.00)"/>
  <rect x="172.00" y="354.50" width="30.00" height="5.00" fill="rgb(200,169,55)" fill-opacity="0.8198" transform="rotate(135.93 187.00 357.00)"/>
  <rect x="219.00" y="217.00" width="22.00" height="4.00" fill="rgb(91,56,24)" fill-opacity="0.8152" transform="rotate(149.10 230.00 219.00)"/>
  <rect x="165.50" y="557.00" width="37.00" height="32.00" fill="rgb(194,150,67)" fill-opacity="0.7916" transform="rotate(196.57 184.00 573.00)"/>
  <rect x="-4.00" y="533.00" width="12.00" height="78.00" fill="rgb(97,66,68)" fill-opacity="0.8209" transform="rotate(181.79 2.00 572.00)"/>
  <rect x="61.00" y="128.00" width="18.00" height="20.00" fill="rgb(163,168,124)" fill-opacity="0.8640" transform="rotate(131.62 70.00 138.00)"/>
  <rect x="276.00" y="123.00" width="18.00" height="18.00" fill="rgb(72,34,25)" fill-opacity="0.7756" transform="rotate(275.59 285.00 132.00)"/>
  <rect x="346.00" y="298.00" width="20.00" height="24.00" fill="rgb(37,25,31)" fill-opacity="0.9064" transform="rotate(9.42 356.00 310.00)"/>
</svg>