<svg xmlns="http://www.w3.org/2000/svg" width="500" height="745" viewBox="0 0 500 745">
  <rect width="100%" height="100%" fill="rgb(86,72,53)"/>
  <rect x="71.50" y="-24.50" width="223.00" height="209.00" fill="rgb(140,153,92)" fill-opacity="0.9171" transform="rotate(19.30 183.00 80.00)"/>
  <circle cx="308.00" cy="57.00" r="206.00" fill="rgb(121,136,87)" fill-opacity="0.8845"/>
  <ellipse cx="313.00" cy="151.00" rx="31.00" ry="99.00" fill="rgb(29,6,11)" fill-opacity="0.8273" transform="rotate(148.34 313.00 151.00)"/>
  <rect x="-20.50" y="-4.00" width="107.00" height="194.00" fill="rgb(147,158,107)" fill-opacity="0.7792" transform="rotate(109.87 33.00 93.00)"/>
  <circle cx="284.00" cy="688.00" r="190.00" fill="rgb(11,0,24)" fill-opacity="0.8886"/>
  <rect x="267.00" y="311.50" width="54.00" height="21.00" fill="rgb(193,153,66)" fill-opacity="0.9431" transform="rotate(28.33 294.00 322.00)"/>
  <ellipse cx="87.00" cy="597.00" rx="177.00" ry="176.00" fill="rgb(59,36,48)" fill-opacity="0.7946" transform="rotate(269.60 87.00 597.00)"/>
  <ellipse cx="212.00" cy="376.00" rx="71.00" ry="37.00" fill="rgb(189,175,50)" fill-opacity="0.8513" transform="rotate(159.88 212.00 376.00)"/>
  <rect x="267.50" y="160.00" width="45.00" height="226.00" fill="rgb(75,43,31)" fill-opacity="0.8203" transform="rotate(82.20 290.00 273.00)"/>
  <circle cx="348.00" cy="403.00" r="104.00" fill="rgb(63,49,19)" fill-opacity="0.7198"/>
  <rect x="126.00" y="-56.00" width="184.00" height="134.00" fill="rgb(96,119,77)" fill-opacity="0.9357" transform="rotate(138.34 218.00 11.00)"/>
  <rect x="174.00" y="334.50" width="66.00" height="65.00" fill="rgb(227,190,95)" fill-opacity="0.7000" transform="rotate(1.95 207.00 367.00)"/>
  <ellipse cx="198.00" cy="311.00" rx="30.00" ry="203.00" fill="rgb(88,56,29)" fill-opacity="0.8142" transform="rotate(228.03 198.00 311.00)"/>
  <rect x="72.00" y="545.50" width="192.00" height="61.00" fill="rgb(197,156,67)" fill-opacity="0.8827" transform="rotate(207.07 168.00 576.00)"/>
  <circle cx="230.00" cy="126.00" r="51.00" fill="rgb(115,62,34)" fill-opacity="0.8992"/>
  <rect x="114.00" y="79.50" width="138.00" height="93.00" fill="rgb(227,180,82)" fill-opacity="0.7549" transform="rotate(237.28 183.00 126.00)"/>
  <ellipse cx="215.00" cy="456.00" rx="21.00" ry="195.00" fill="rgb(57,30,37)" fill-opacity="0.7861" transform="rotate(242.53 215.00 456.00)"/>
  <rect x="234.00" y="329.00" width="130.00" height="50.00" fill="rgb(203,153,59)" fill-opacity="0.8809" transform="rotate(121.77 299.00 354.00)"/>
  <circle cx="88.00" cy="518.00" r="72.00" fill="rgb(57,39,47)" fill-opacity="0.8606"/>
  <ellipse cx="134.00" cy="110.00" rx="72.00" ry="80.00" fill="rgb(134,145,87)" fill-opacity="0.9277" transform="rotate(69.24 134.00 110.00)"/>
  <ellipse cx="342.00" cy="553.00" rx="101.00" ry="93.00" fill="rgb(48,14,28)" fill-opacity="0.7143" transform="rotate(224.45 342.00 553.00)"/>
  <rect x="33.00" y="652.00" width="168.00" height="144.00" fill="rgb(15,3,27)" fill-opacity="0.7562" transform="rotate(29.27 117.00 724.00)"/>
  <rect x="141.00" y="207.00" width="82.00" height="50.00" fill="rgb(62,34,25)" fill-opacity="0.7257" transform="rotate(56.38 182.00 232.00)"/>
  <ellipse cx="199.00" cy="615.00" rx="11.00" ry="73.00" fill="rgb(165,125,47)" fill-opacity="0.9127" transform="rotate(267.09 199.00 615.00)"/>
  <rect x="178.50" y="102.50" width="85.00" height="91.00" fill="rgb(192,156,66)" fill-opacity="0.7735" transform="rotate(232.84 221.00 148.00)"/>
  <rect x="30.50" y="425.50" width="139.00" height="33.00" fill="rgb(55,41,53)" fill-opacity="0.9215" transform="rotate(122.93 100.00 442.00)"/>
  <ellipse cx="137.00" cy="431.00" rx="67.00" ry="56.00" fill="rgb(50,32,40)" fill-opacity="0.7219" transform="rotate(121.41 137.00 431.00)"/>
  <ellipse cx="499.00" cy="329.00" rx="61.00" ry="168.00" fill="rgb(97,86,75)" fill-opacity="0.9670" transform="rotate(309.73 499.00 329.00)"/>
  <ellipse cx="437.00" cy="145.00" rx="96.00" ry="43.00" fill="rgb(172,173,109)" fill-opacity="0.7845" transform="rotate(196.75 437.00 145.00)"/>
  <circle cx="475.00" cy="323.00" r="91.00" fill="rgb(105,89,62)" fill-opacity="0.7000"/>
  <ellipse cx="341.00" cy="490.00" rx="121.00" ry="92.00" fill="rgb(21,16,34)" fill-opacity="0.7864" transform="rotate(49.71 341.00 490.00)"/>
  <circle cx="45.00" cy="428.00" r="44.00" fill="rgb(131,73,44)" fill-opacity="0.8720"/>
  <circle cx="7.00" cy="460.00" r="52.00" fill="rgb(84,61,54)" fill-opacity="0.7882"/>
  <rect x="179.50" y="575.00" width="9.00" height="84.00" fill="rgb(148,88,49)" fill-opacity="0.9651" transform="rotate(129.32 184.00 617.00)"/>
  <circle cx="50.00" cy="3.00" r="69.00" fill="rgb(112,132,78)" fill-opacity="0.8185"/>
  <rect x="141.00" y="566.50" width="60.00" height="169.00" fill="rgb(154,104,46)" fill-opacity="0.7071" transform="rotate(256.02 171.00 651.00)"/>
  <circle cx="464.00" cy="586.00" r="92.00" fill="rgb(29,17,49)" fill-opacity="0.7000"/>
  <circle cx="347.00" cy="365.00" r="44.00" fill="rgb(100,78,42)" fill-opacity="0.7000"/>
  <circle cx="89.00" cy="170.00" r="52.00" fill="rgb(194,182,128)" fill-opacity="0.8904"/>
  <ellipse cx="225.00" cy="208.00" rx="56.00" ry="38.00" fill="rgb(188,129,68)" fill-opacity="0.7872" transform="rotate(75.30 225.00 208.00)"/>
  <circle cx="442.00" cy="744.00" r="127.00" fill="rgb(6,7,23)" fill-opacity="0.7999"/>
  <ellipse cx="287.00" cy="360.00" rx="40.00" ry="17.00" fill="rgb(163,101,17)" fill-opacity="0.7518" transform="rotate(297.11 287.00 360.00)"/>
  <circle cx="375.00" cy="226.00" r="75.00" fill="rgb(75,96,65)" fill-opacity="0.7238"/>
  <circle cx="73.00" cy="677.00" r="89.00" fill="rgb(25,14,36)" fill-opacity="0.9491"/>
  <rect x="123.00" y="-34.50" width="198.00" height="105.00" fill="rgb(105,120,69)" fill-opacity="0.7195" transform="rotate(182.68 222.00 18.00)"/>
  <rect x="220.00" y="59.00" width="30.00" height="56.00" fill="rgb(95,60,26)" fill-opacity="0.7366" transform="rotate(93.27 235.00 87.00)"/>
  <rect x="175.00" y="543.50" width="14.00" height="105.00" fill="rgb(186,129,57)" fill-opacity="0.7358" transform="rotate(55.44 182.00 596.00)"/>
  <circle cx="301.00" cy="184.00" r="39.00" fill="rgb(73,35,19)" fill-opacity="0.8247"/>
  <ellipse cx="274.00" cy="636.00" rx="130.00" ry="28.00" fill="rgb(70,35,24)" fill-opacity="0.7733" transform="rotate(161.59 274.00 636.00)"/>
  <circle cx="387.00" cy="401.00" r="55.00" fill="rgb(38,26,36)" fill-opacity="0.9340"/>
  <rect x="215.00" y="304.50" width="36.00" height="117.00" fill="rgb(242,207,116)" fill-opacity="0.7348" transform="rotate(261.75 233.00 363.00)"/>
  <circle cx="301.00" cy="372.00" r="42.00" fill="rgb(123,88,30)" fill-opacity="0.7413"/>
  <ellipse cx="331.00" cy="250.00" rx="66.00" ry="10.00" fill="rgb(25,18,31)" fill-opacity="0.7750" transform="rotate(99.24 331.00 250.00)"/>
  <ellipse cx="324.00" cy="254.00" rx="101.00" ry="20.00" fill="rgb(39,27,35)" fill-opacity="0.7805" transform="rotate(267.32 324.00 254.00)"/>
  <rect x="184.00" y="135.00" width="92.00" height="100.00" fill="rgb(174,129,62)" fill-opacity="0.7944" transform="rotate(300.69 230.00 185.00)"/>
  <rect x="118.00" y="448.00" width="56.00" height="124.00" fill="rgb(48,35,44)" fill-opacity="0.7547" transform="rotate(265.06 146.00 510.00)"/>
  <rect x="225.00" y="206.50" width="50.00" height="25.00" fill="rgb(160,111,45)" fill-opacity="0.8120" transform="rotate(343.62 250.00 219.00)"/>
  <ellipse cx="256.00" cy="405.00" rx="62.00" ry="22.00" fill="rgb(157,115,51)" fill-opacity="0.7000" transform="rotate(309.61 256.00 405.00)"/>
  <circle cx="314.00" cy="174.00" r="30.00" fill="rgb(22,13,30)" fill-opacity="0.7447"/>
  <rect x="103.50" y="292.50" width="83.00" height="61.00" fill="rgb(44,26,32)" fill-opacity="0.7221" transform="rotate(233.09 145.00 323.00)"/>
  <rect x="27.00" y="87.50" width="90.00" height="75.00" fill="rgb(148,157,94)" fill-opacity="0.7365" transform="rotate(162.19 72.00 125.00)"/>
  <ellipse cx="146.00" cy="225.00" rx="13.00" ry="86.00" fill="rgb(70,76,52)" fill-opacity="0.7795" transform="rotate(202.69 146.00 225.00)"/>
  <rect x="418.00" y="206.50" width="92.00" height="71.00" fill="rgb(91,103,74)" fill-opacity="0.8572" transform="rotate(292.69 464.00 242.00)"/>
  <circle cx="180.00" cy="280.00" r="39.00" fill="rgb(56,18,27)" fill-opacity="0.7566"/>
  <rect x="-17.00" y="367.00" width="132.00" height="84.00" fill="rgb(135,78,42)" fill-opacity="0.7266" transform="rotate(117.33 49.00 409.00)"/>
  <circle cx="388.00" cy="224.00" r="21.00" fill="rgb(64,89,63)" fill-opacity="0.7941"/>
  <circle cx="106.00" cy="25.00" r="28.00" fill="rgb(106,120,74)" fill-opacity="0.7673"/>
  <ellipse cx="324.00" cy="256.00" rx="51.00" ry="56.00" fill="rgb(34,15,28)" fill-opacity="0.7649" transform="rotate(179.16 324.00 256.00)"/>
  <rect x="42.50" y="198.50" width="47.00" height="135.00" fill="rgb(44,45,43)" fill-opacity="0.9800" transform="rotate(260.31 66.00 266.00)"/>
  <ellipse cx="381.00" cy="285.00" rx="75.00" ry="24.00" fill="rgb(73,85,60)" fill-opacity="0.8571" transform="rotate(268.01 381.00 285.00)"/>
  <rect x="53.50" y="103.50" width="109.00" height="99.00" fill="rgb(162,164,105)" fill-opacity="0.7104" transform="rotate(348.53 108.00 153.00)"/>
  <circle cx="230.00" cy="445.00" r="37.00" fill="rgb(84,64,36)" fill-opacity="0.9344"/>
  <ellipse cx="226.00" cy="59.00" rx="129.00" ry="16.00" fill="rgb(124,134,89)" fill-opacity="0.9337" transform="rotate(178.39 226.00 59.00)"/>
  <ellipse cx="418.00" cy="0.00" rx="98.00" ry="19.00" fill="rgb(78,105,68)" fill-opacity="0.8783" transform="rotate(352.58 418.00 0.00)"/>
  <ellipse cx="158.00" cy="202.00" rx="15.00" ry="90.00" fill="rgb(75,45,27)" fill-opacity="0.8618" transform="rotate(13.30 158.00 202.00)"/>
  <rect x="217.50" y="191.50" width="29.00" height="75.00" fill="rgb(152,108,57)" fill-opacity="0.7818" transform="rotate(290.83 232.00 229.00)"/>
  <ellipse cx="347.00" cy="424.00" rx="46.00" ry="47.00" fill="rgb(73,53,34)" fill-opacity="0.8269" transform="rotate(211.83 347.00 424.00)"/>
  <rect x="324.50" y="65.50" width="83.00" height="63.00" fill="rgb(139,145,92)" fill-opacity="0.9191" transform="rotate(337.02 366.00 97.00)"/>
  <rect x="43.00" y="165.50" width="88.00" height="131.00" fill="rgb(83,87,62)" fill-opacity="0.9710" transform="rotate(335.29 87.00 231.00)"/>
  <rect x="192.00" y="329.00" width="78.00" height="46.00" fill="rgb(214,180,66)" fill-opacity="0.7039" transform="rotate(6.92 231.00 352.00)"/>
  <rect x="74.00" y="232.50" width="128.00" height="23.00" fill="rgb(99,96,74)" fill-opacity="0.8117" transform="rotate(250.70 138.00 244.00)"/>
  <rect x="3.00" y="226.00" width="152.00" height="54.00" fill="rgb(73,71,51)" fill-opacity="0.7026" transform="rotate(324.40 79.00 253.00)"/>
  <rect x="412.50" y="412.50" width="49.00" height="109.00" fill="rgb(47,37,52)" fill-opacity="0.7404" transform="rotate(150.36 437.00 467.00)"/>
  <circle cx="253.00" cy="553.00" r="30.00" fill="rgb(26,21,39)" fill-opacity="0.8485"/>
  <rect x="137.00" y="540.50" width="32.00" height="33.00" fill="rgb(215,172,82)" fill-opacity="0.8143" transform="rotate(263.08 153.00 557.00)"/>
  <circle cx="253.00" cy="360.00" r="42.00" fill="rgb(237,203,86)" fill-opacity="0.7260"/>
  <circle cx="141.00" cy="670.00" r="19.00" fill="rgb(151,113,36)" fill-opacity="0.8943"/>
  <rect x="137.50" y="647.50" width="47.00" height="85.00" fill="rgb(44,19,34)" fill-opacity="0.7037" transform="rotate(107.03 161.00 690.00)"/>
  <rect x="123.00" y="617.50" width="62.00" height="37.00" fill="rgb(165,118,55)" fill-opacity="0.8850" transform="rotate(304.85 154.00 636.00)"/>
  <circle cx="363.00" cy="309.00" r="21.00" fill="rgb(33,27,32)" fill-opacity="0.7736"/>
  <circle cx="255.00" cy="190.00" r="23.00" fill="rgb(225,182,82)" fill-opacity="0.8099"/>
  <ellipse cx="290.00" cy="604.00" rx="26.00" ry="14.00" fill="rgb(161,109,44)" fill-opacity="0.7940" transform="rotate(163.64 290.00 604.00)"/>
  <rect x="345.50" y="132.50" width="47.00" height="45.00" fill="rgb(105,125,71)" fill-opacity="0.7017" transform="rotate(145.73 369.00 155.00)"/>
  <circle cx="20.00" cy="591.00" r="48.00" fill="rgb(36,27,51)" fill-opacity="0.7037"/>
  <rect x="97.00" y="138.00" width="60.00" height="46.00" fill="rgb(167,176,113)" fill-opacity="0.9062" transform="rotate(26.25 127.00 161.00)"/>
  <ellipse cx="460.00" cy="257.00" rx="34.00" ry="74.00" fill="rgb(77,86,69)" fill-opacity="0.9461" transform="rotate(58.52 460.00 257.00)"/>
  <rect x="350.00" y="219.50" width="92.00" height="41.00" fill="rgb(67,76,62)" fill-opacity="0.8333" transform="rotate(198.98 396.00 240.00)"/>
  <circle cx="433.00" cy="321.00" r="37.00" fill="rgb(130,118,56)" fill-opacity="0.7438"/>
  <rect x="134.50" y="515.50" width="31.00" height="33.00" fill="rgb(33,2,39)" fill-opacity="0.8238" transform="rotate(357.85 150.00 532.00)"/>
  <rect x="108.50" y="188.00" width="35.00" height="4.00" fill="rgb(89,94,61)" fill-opacity="0.7122" transform="rotate(329.79 126.00 190.00)"/>
  <rect x="193.00" y="217.00" width="24.00" height="26.00" fill="rgb(190,143,66)" fill-opacity="0.8256" transform="rotate(164.56 205.00 230.00)"/>
  <rect x="434.50" y="431.50" width="53.00" height="65.00" fill="rgb(46,38,49)" fill-opacity="0.7085" transform="rotate(57.28 461.00 464.00)"/>
  <rect x="50.00" y="284.00" width="98.00" height="44.00" fill="rgb(107,89,63)" fill-opacity="0.7045" transform="rotate(320.66 99.00 306.00)"/>
  <ellipse cx="242.00" cy="354.00" rx="49.00" ry="53.00" fill="rgb(230,192,103)" fill-opacity="0.8474" transform="rotate(346.50 242.00 354.00)"/>
  <circle cx="240.00" cy="292.00" r="24.00" fill="rgb(182,141,66)" fill-opacity="0.7428"/>
  <rect x="440.00" y="367.00" width="44.00" height="58.00" fill="rgb(97,47,46)" fill-opacity="0.7479" transform="rotate(172.97 462.00 396.00)"/>
  <circle cx="204.00" cy="198.00" r="21.00" fill="rgb(208,167,83)" fill-opacity="0.8846"/>
  <rect x="200.00" y="100.50" width="30.00" height="55.00" fill="rgb(212,171,76)" fill-opacity="0.7515" transform="rotate(10.44 215.00 128.00)"/>
  <circle cx="87.00" cy="345.00" r="26.00" fill="rgb(128,96,38)" fill-opacity="0.8684"/>
  <ellipse cx="172.00" cy="222.00" rx="42.00" ry="10.00" fill="rgb(56,25,31)" fill-opacity="0.9364" transform="rotate(86.18 172.00 222.00)"/>
  <rect x="381.50" y="384.50" width="81.00" height="35.00" fill="rgb(37,21,44)" fill-opacity="0.7078" transform="rotate(240.37 422.00 402.00)"/>
  <circle cx="219.00" cy="416.00" r="33.00" fill="rgb(113,82,49)" fill-opacity="0.7541"/>
  <ellipse cx="170.00" cy="514.00" rx="47.00" ry="29.00" fill="rgb(35,26,41)" fill-opacity="0.8716" transform="rotate(222.50 170.00 514.00)"/>
  <circle cx="257.00" cy="158.00" r="28.00" fill="rgb(167,119,55)" fill-opacity="0.8528"/>
  <ellipse cx="496.00" cy="481.00" rx="100.00" ry="30.00" fill="rgb(100,64,66)" fill-opacity="0.7585" transform="rotate(80.32 496.00 481.00)"/>
  <rect x="307.50" y="44.00" width="79.00" height="58.00" fill="rgb(130,134,83)" fill-opacity="0.9112" transform="rotate(315.11 347.00 73.00)"/>
  <ellipse cx="55.00" cy="175.00" rx="41.00" ry="20.00" fill="rgb(115,107,71)" fill-opacity="0.8650" transform="rotate(338.16 55.00 175.00)"/>
  <circle cx="320.00" cy="316.00" r="25.00" fill="rgb(83,46,29)" fill-opacity="0.7961"/>
  <circle cx="280.00" cy="613.00" r="25.00" fill="rgb(98,56,25)" fill-opacity="0.7000"/>
  <rect x="92.50" y="605.50" width="83.00" height="27.00" fill="rgb(138,89,39)" fill-opacity="0.7547" transform="rotate(275.30 134.00 619.00)"/>
  <rect x="364.50" y="342.00" width="9.00" height="36.00" fill="rgb(142,116,53)" fill-opacity="0.7572" transform="rotate(240.83 369.00 360.00)"/>
  <rect x="345.00" y="304.50" width="28.00" height="51.00" fill="rgb(55,27,34)" fill-opacity="0.9539" transform="rotate(246.47 359.00 330.00)"/>
  <rect x="290.50" y="327.50" width="9.00" height="63.00" fill="rgb(188,151,53)" fill-opacity="0.7218" transform="rotate(4.97 295.00 359.00)"/>
  <ellipse cx="263.00" cy="603.00" rx="34.00" ry="3.00" fill="rgb(158,97,55)" fill-opacity="0.7097" transform="rotate(230.73 263.00 603.00)"/>
  <ellipse cx="236.00" cy="381.00" rx="38.00" ry="17.00" fill="rgb(243,211,124)" fill-opacity="0.7513" transform="rotate(178.65 236.00 381.00)"/>
  <circle cx="283.00" cy="304.00" r="23.00" fill="rgb(181,143,67)" fill-opacity="0.7000"/>
  <ellipse cx="266.00" cy="277.00" rx="41.00" ry="15.00" fill="rgb(81,50,31)" fill-opacity="0.9072" transform="rotate(9.23 266.00 277.00)"/>
  <ellipse cx="375.00" cy="395.00" rx="31.00" ry="23.00" fill="rgb(24,19,34)" fill-opacity="0.9074" transform="rotate(12.74 375.00 395.00)"/>
  <ellipse cx="143.00" cy="127.00" rx="23.00" ry="39.00" fill="rgb(164,163,109)" fill-opacity="0.7853" transform="rotate(65.68 143.00 127.00)"/>
  <ellipse cx="315.00" cy="427.00" rx="46.00" ry="27.00" fill="rgb(35,29,37)" fill-opacity="0.8189" transform="rotate(110.23 315.00 427.00)"/>
  <rect x="343.50" y="324.50" width="13.00" height="75.00" fill="rgb(128,94,37)" fill-opacity="0.8514" transform="rotate(62.29 350.00 362.00)"/>
  <circle cx="243.00" cy="244.00" r="11.00" fill="rgb(163,121,56)" fill-opacity="0.8691"/>
  <rect x="295.50" y="187.00" width="37.00" height="44.00" fill="rgb(41,21,31)" fill-opacity="0.7310" transform="rotate(110.34 314.00 209.00)"/>
  <rect x="231.50" y="251.50" width="53.00" height="9.00" fill="rgb(97,58,32)" fill-opacity="0.7000" transform="rotate(160.38 258.00 256.00)"/>
  <circle cx="114.00" cy="503.00" r="35.00" fill="rgb(59,41,42)" fill-opacity="0.7425"/>
  <ellipse cx="443.00" cy="109.00" rx="49.00" ry="64.00" fill="rgb(151,156,99)" fill-opacity="0.8149" transform="rotate(53.78 443.00 109.00)"/>
  <circle cx="219.00" cy="244.00" r="12.00" fill="rgb(206,166,78)" fill-opacity="0.8164"/>
  <ellipse cx="325.00" cy="609.00" rx="23.00" ry="28.00" fill="rgb(106,46,18)" fill-opacity="0.7689" transform="rotate(48.63 325.00 609.00)"/>
  <ellipse cx="129.00" cy="197.00" rx="10.00" ry="69.00" fill="rgb(87,79,57)" fill-opacity="0.8416" transform="rotate(239.42 129.00 197.00)"/>
  <circle cx="477.00" cy="177.00" r="34.00" fill="rgb(133,138,93)" fill-opacity="0.7280"/>
  <circle cx="483.00" cy="360.00" r="23.00" fill="rgb(156,135,81)" fill-opacity="0.7123"/>
  <rect x="451.00" y="289.50" width="18.00" height="47.00" fill="rgb(113,105,61)" fill-opacity="0.8454" transform="rotate(355.21 460.00 313.00)"/>
  <ellipse cx="302.00" cy="554.00" rx="43.00" ry="26.00" fill="rgb(15,13,36)" fill-opacity="0.7544" transform="rotate(301.27 302.00 554.00)"/>
  <circle cx="230.00" cy="463.00" r="34.00" fill="rgb(61,43,41)" fill-opacity="0.8275"/>
  <rect x="201.50" y="79.00" width="17.00" height="38.00" fill="rgb(114,74,24)" fill-opacity="0.7540" transform="rotate(269.74 210.00 98.00)"/>
  <circle cx="223.00" cy="134.00" r="30.00" fill="rgb(219,177,87)" fill-opacity="0.9679"/>
  <ellipse cx="254.00" cy="527.00" rx="29.00" ry="52.00" fill="rgb(34,23,38)" fill-opacity="0.8221" transform="rotate(47.60 254.00 527.00)"/>
  <circle cx="345.00" cy="693.00" r="32.00" fill="rgb(7,5,26)" fill-opacity="0.8994"/>
  <circle cx="391.00" cy="469.00" r="24.00" fill="rgb(30,16,32)" fill-opacity="0.8349"/>
  <ellipse cx="211.00" cy="282.00" rx="21.00" ry="19.00" fill="rgb(51,28,31)" fill-opacity="0.8638" transform="rotate(262.90 211.00 282.00)"/>
  <ellipse cx="248.00" cy="630.00" rx="3.00" ry="34.00" fill="rgb(148,95,42)" fill-opacity="0.9800" transform="rotate(133.28 248.00 630.00)"/>
  <rect x="171.00" y="368.50" width="32.00" height="17.00" fill="rgb(216,180,78)" fill-opacity="0.7647" transform="rotate(38.47 187.00 377.00)"/>
  <circle cx="380.00" cy="347.00" r="17.00" fill="rgb(56,26,25)" fill-opacity="0.7979"/>
  <ellipse cx="474.00" cy="653.00" rx="49.00" ry="45.00" fill="rgb(40,23,40)" fill-opacity="0.8135" transform="rotate(46.27 474.00 653.00)"/>
  <rect x="396.50" y="437.00" width="25.00" height="28.00" fill="rgb(29,24,42)" fill-opacity="0.8994" transform="rotate(255.97 409.00 451.00)"/>
  <ellipse cx="107.00" cy="171.00" rx="12.00" ry="14.00" fill="rgb(94,93,74)" fill-opacity="0.8186" transform="rotate(245.76 107.00 171.00)"/>
  <circle cx="88.00" cy="552.00" r="34.00" fill="rgb(100,53,39)" fill-opacity="0.7886"/>
  <circle cx="205.00" cy="370.00" r="20.00" fill="rgb(232,192,99)" fill-opacity="0.7951"/>
  <ellipse cx="317.00" cy="346.00" rx="17.00" ry="14.00" fill="rgb(87,44,23)" fill-opacity="0.7264" transform="rotate(290.12 317.00 346.00)"/>
  <circle cx="24.00" cy="138.00" r="24.00" fill="rgb(148,151,100)" fill-opacity="0.7246"/>
  <ellipse cx="1.00" cy="426.00" rx="36.00" ry="23.00" fill="rgb(62,46,62)" fill-opacity="0.7902" transform="rotate(68.36 1.00 426.00)"/>
  <ellipse cx="0.00" cy="550.00" rx="66.00" ry="3.00" fill="rgb(101,78,66)" fill-opacity="0.7396" transform="rotate(91.07 0.00 550.00)"/>
  <rect x="116.00" y="574.00" width="20.00" height="36.00" fill="rgb(63,47,40)" fill-opacity="0.8073" transform="rotate(99.35 126.00 592.00)"/>
  <circle cx="118.00" cy="606.00" r="12.00" fill="rgb(39,22,41)" fill-opacity="0.8867"/>
  <circle cx="250.00" cy="210.00" r="15.00" fill="rgb(209,163,81)" fill-opacity="0.8394"/>
  <rect x="457.00" y="340.00" width="4.00" height="24.00" fill="rgb(167,156,96)" fill-opacity="0.8854" transform="rotate(107.78 459.00 352.00)"/>
  <circle cx="1.00" cy="410.00" r="22.00" fill="rgb(62,39,59)" fill-opacity="0.7000"/>
  <ellipse cx="237.00" cy="170.00" rx="14.00" ry="15.00" fill="rgb(146,105,48)" fill-opacity="0.9334" transform="rotate(188.97 237.00 170.00)"/>
  <ellipse cx="280.00" cy="346.00" rx="32.00" ry="11.00" fill="rgb(214,177,77)" fill-opacity="0.7304" transform="rotate(89.13 280.00 346.00)"/>
  <ellipse cx="269.00" cy="285.00" rx="9.00" ry="26.00" fill="rgb(122,88,35)" fill-opacity="0.7580" transform="rotate(260.65 269.00 285.00)"/>
  <rect x="221.00" y="621.50" width="8.00" height="31.00" fill="rgb(170,118,47)" fill-opacity="0.8144" transform="rotate(130.06 225.00 637.00)"/>
  <ellipse cx="257.00" cy="81.00" rx="26.00" ry="12.00" fill="rgb(62,40,26)" fill-opacity="0.7630" transform="rotate(21.47 257.00 81.00)"/>
  <ellipse cx="488.00" cy="0.00" rx="12.00" ry="42.00" fill="rgb(68,99,79)" fill-opacity="0.7721" transform="rotate(284.89 488.00 0.00)"/>
  <circle cx="174.00" cy="146.00" r="10.00" fill="rgb(68,40,34)" fill-opacity="0.8566"/>
  <circle cx="439.00" cy="178.00" r="30.00" fill="rgb(171,168,111)" fill-opacity="0.7781"/>
  <rect x="417.50" y="194.00" width="23.00" height="16.00" fill="rgb(140,141,93)" fill-opacity="0.8488" transform="rotate(332.57 429.00 202.00)"/>
  <ellipse cx="175.00" cy="178.00" rx="8.00" ry="3.00" fill="rgb(73,35,41)" fill-opacity="0.9797" transform="rotate(229.34 175.00 178.00)"/>
  <ellipse cx="408.00" cy="203.00" rx="6.00" ry="11.00" fill="rgb(112,132,95)" fill-opacity="0.9265" transform="rotate(72.39 408.00 203.00)"/>
  <ellipse cx="274.00" cy="163.00" rx="25.00" ry="3.00" fill="rgb(113,76,38)" fill-opacity="0.8051" transform="rotate(149.08 274.00 163.00)"/>
  <ellipse cx="176.00" cy="348.00" rx="13.00" ry="11.00" fill="rgb(156,74,34)" fill-opacity="0.8150" transform="rotate(135.83 176.00 348.00)"/>
</svg>