<svg xmlns="http://www.w3.org/2000/svg" width="500" height="745" viewBox="0 0 500 745">
  <rect width="100%" height="100%" fill="rgb(86,72,53)"/>
  <rect x="120.00" y="437.50" width="254.00" height="265.00" fill="rgb(23,10,35)" fill-opacity="0.8584" transform="rotate(1.18 247.00 570.00)"/>
  <rect x="360.00" y="17.50" width="190.00" height="185.00" fill="rgb(134,147,95)" fill-opacity="0.7729" transform="rotate(79.54 455.00 110.00)"/>
  <rect x="84.50" y="-21.00" width="239.00" height="222.00" fill="rgb(133,126,61)" fill-opacity="0.8488" transform="rotate(293.65 204.00 90.00)"/>
  <rect x="230.50" y="351.50" width="39.00" height="59.00" fill="rgb(249,221,130)" fill-opacity="0.9394" transform="rotate(264.56 250.00 381.00)"/>
  <rect x="284.50" y="562.00" width="137.00" height="270.00" fill="rgb(0,0,19)" fill-opacity="0.7530" transform="rotate(258.36 353.00 697.00)"/>
  <rect x="121.50" y="558.50" width="103.00" height="107.00" fill="rgb(154,100,52)" fill-opacity="0.9595" transform="rotate(74.76 173.00 612.00)"/>
  <rect x="142.00" y="-53.00" width="218.00" height="142.00" fill="rgb(93,121,74)" fill-opacity="0.7798" transform="rotate(357.44 251.00 18.00)"/>
  <rect x="169.50" y="130.50" width="101.00" height="57.00" fill="rgb(176,136,59)" fill-opacity="0.7920" transform="rotate(97.27 220.00 159.00)"/>
  <rect x="-104.50" y="-16.00" width="213.00" height="190.00" fill="rgb(120,149,88)" fill-opacity="0.7000" transform="rotate(137.33 2.00 79.00)"/>
  <rect x="138.00" y="321.00" width="166.00" height="68.00" fill="rgb(231,194,102)" fill-opacity="0.8053" transform="rotate(358.93 221.00 355.00)"/>
  <rect x="0.50" y="622.50" width="235.00" height="233.00" fill="rgb(0,2,25)" fill-opacity="0.8571" transform="rotate(189.59 118.00 739.00)"/>
  <rect x="223.50" y="519.50" width="39.00" height="163.00" fill="rgb(176,120,55)" fill-opacity="0.9484" transform="rotate(101.25 243.00 601.00)"/>
  <rect x="-73.50" y="555.50" width="233.00" height="193.00" fill="rgb(26,15,41)" fill-opacity="0.7000" transform="rotate(209.63 43.00 652.00)"/>
  <rect x="323.50" y="16.50" width="85.00" height="167.00" fill="rgb(133,141,88)" fill-opacity="0.9800" transform="rotate(323.46 366.00 100.00)"/>
  <rect x="344.50" y="266.00" width="89.00" height="230.00" fill="rgb(35,22,42)" fill-opacity="0.8809" transform="rotate(325.58 389.00 381.00)"/>
  <rect x="213.50" y="287.50" width="69.00" height="87.00" fill="rgb(223,186,81)" fill-opacity="0.8057" transform="rotate(113.54 248.00 331.00)"/>
  <rect x="245.00" y="61.50" width="58.00" height="77.00" fill="rgb(57,35,19)" fill-opacity="0.7960" transform="rotate(92.05 274.00 100.00)"/>
  <rect x="293.50" y="220.00" width="37.00" height="230.00" fill="rgb(102,55,12)" fill-opacity="0.7000" transform="rotate(350.45 312.00 335.00)"/>
  <rect x="162.50" y="621.50" width="155.00" height="55.00" fill="rgb(89,54,38)" fill-opacity="0.8377" transform="rotate(151.97 240.00 649.00)"/>
  <rect x="176.00" y="569.50" width="36.00" height="119.00" fill="rgb(146,81,33)" fill-opacity="0.9096" transform="rotate(271.44 194.00 629.00)"/>
  <rect x="348.00" y="480.00" width="102.00" height="208.00" fill="rgb(15,4,29)" fill-opacity="0.7591" transform="rotate(181.97 399.00 584.00)"/>
  <rect x="277.50" y="381.00" width="125.00" height="212.00" fill="rgb(26,16,33)" fill-opacity="0.8012" transform="rotate(13.97 340.00 487.00)"/>
  <rect x="8.50" y="43.50" width="171.00" height="135.00" fill="rgb(134,134,87)" fill-opacity="0.7674" transform="rotate(255.84 94.00 111.00)"/>
  <rect x="409.50" y="166.50" width="161.00" height="221.00" fill="rgb(88,92,65)" fill-opacity="0.7545" transform="rotate(60.06 490.00 277.00)"/>
  <rect x="207.50" y="178.50" width="85.00" height="85.00" fill="rgb(190,150,61)" fill-opacity="0.7042" transform="rotate(15.60 250.00 221.00)"/>
  <rect x="314.00" y="104.50" width="30.00" height="153.00" fill="rgb(40,24,38)" fill-opacity="0.7000" transform="rotate(132.49 329.00 181.00)"/>
  <rect x="145.00" y="244.00" width="72.00" height="162.00" fill="rgb(107,61,32)" fill-opacity="0.8985" transform="rotate(28.09 181.00 325.00)"/>
  <rect x="268.50" y="168.00" width="89.00" height="120.00" fill="rgb(31,15,25)" fill-opacity="0.7770" transform="rotate(21.52 313.00 228.00)"/>
  <rect x="284.50" y="590.50" width="93.00" height="41.00" fill="rgb(87,45,29)" fill-opacity="0.7767" transform="rotate(182.62 331.00 611.00)"/>
  <rect x="143.00" y="551.50" width="44.00" height="125.00" fill="rgb(173,131,67)" fill-opacity="0.7638" transform="rotate(1.00 165.00 614.00)"/>
  <rect x="332.50" y="155.50" width="105.00" height="81.00" fill="rgb(72,88,62)" fill-opacity="0.8385" transform="rotate(240.04 385.00 196.00)"/>
  <rect x="382.50" y="98.00" width="151.00" height="54.00" fill="rgb(158,158,99)" fill-opacity="0.7545" transform="rotate(344.46 458.00 125.00)"/>
  <rect x="127.00" y="633.50" width="82.00" height="133.00" fill="rgb(41,9,30)" fill-opacity="0.7625" transform="rotate(281.18 168.00 700.00)"/>
  <rect x="113.50" y="338.00" width="41.00" height="100.00" fill="rgb(55,36,38)" fill-opacity="0.8226" transform="rotate(206.37 134.00 388.00)"/>
  <rect x="150.00" y="24.50" width="28.00" height="147.00" fill="rgb(157,160,93)" fill-opacity="0.7450" transform="rotate(229.81 164.00 98.00)"/>
  <rect x="443.00" y="300.50" width="34.00" height="183.00" fill="rgb(108,60,50)" fill-opacity="0.8835" transform="rotate(336.75 460.00 392.00)"/>
  <rect x="14.00" y="388.50" width="202.00" height="49.00" fill="rgb(38,25,38)" fill-opacity="0.7551" transform="rotate(285.06 115.00 413.00)"/>
  <rect x="263.50" y="92.50" width="69.00" height="63.00" fill="rgb(27,12,19)" fill-opacity="0.7840" transform="rotate(22.67 298.00 124.00)"/>
  <rect x="33.00" y="497.00" width="124.00" height="64.00" fill="rgb(74,46,44)" fill-opacity="0.9153" transform="rotate(99.52 95.00 529.00)"/>
  <rect x="210.00" y="203.00" width="46.00" height="70.00" fill="rgb(154,108,56)" fill-opacity="0.8077" transform="rotate(297.04 233.00 238.00)"/>
  <rect x="182.50" y="204.00" width="177.00" height="30.00" fill="rgb(130,90,42)" fill-opacity="0.7578" transform="rotate(275.52 271.00 219.00)"/>
  <rect x="286.00" y="300.00" width="12.00" height="40.00" fill="rgb(193,153,64)" fill-opacity="0.9015" transform="rotate(169.25 292.00 320.00)"/>
  <rect x="270.00" y="651.50" width="142.00" height="97.00" fill="rgb(7,6,24)" fill-opacity="0.8103" transform="rotate(186.22 341.00 700.00)"/>
  <rect x="172.00" y="330.50" width="108.00" height="79.00" fill="rgb(234,199,108)" fill-opacity="0.7194" transform="rotate(36.48 226.00 370.00)"/>
  <rect x="304.00" y="215.50" width="34.00" height="189.00" fill="rgb(61,41,30)" fill-opacity="0.7887" transform="rotate(125.70 321.00 310.00)"/>
  <rect x="408.00" y="76.00" width="134.00" height="132.00" fill="rgb(152,157,99)" fill-opacity="0.9417" transform="rotate(348.04 475.00 142.00)"/>
  <rect x="192.50" y="425.00" width="85.00" height="194.00" fill="rgb(37,23,37)" fill-opacity="0.7290" transform="rotate(299.95 235.00 522.00)"/>
  <rect x="155.00" y="431.00" width="130.00" height="48.00" fill="rgb(67,39,26)" fill-opacity="0.8885" transform="rotate(168.28 220.00 455.00)"/>
  <rect x="117.00" y="380.50" width="88.00" height="161.00" fill="rgb(60,43,49)" fill-opacity="0.7000" transform="rotate(106.29 161.00 461.00)"/>
  <rect x="4.00" y="105.50" width="52.00" height="177.00" fill="rgb(73,81,58)" fill-opacity="0.7650" transform="rotate(107.81 30.00 194.00)"/>
  <rect x="159.50" y="328.50" width="97.00" height="19.00" fill="rgb(226,188,101)" fill-opacity="0.7770" transform="rotate(299.91 208.00 338.00)"/>
  <rect x="435.50" y="256.50" width="89.00" height="149.00" fill="rgb(108,97,64)" fill-opacity="0.8197" transform="rotate(96.77 480.00 331.00)"/>
  <rect x="186.50" y="118.50" width="81.00" height="43.00" fill="rgb(228,164,78)" fill-opacity="0.7230" transform="rotate(313.73 227.00 140.00)"/>
  <rect x="140.50" y="559.50" width="93.00" height="31.00" fill="rgb(198,154,74)" fill-opacity="0.8442" transform="rotate(13.09 187.00 575.00)"/>
  <rect x="387.00" y="359.00" width="28.00" height="88.00" fill="rgb(36,25,36)" fill-opacity="0.8664" transform="rotate(18.98 401.00 403.00)"/>
  <rect x="107.00" y="629.00" width="50.00" height="40.00" fill="rgb(128,80,48)" fill-opacity="0.9087" transform="rotate(41.92 132.00 649.00)"/>
  <rect x="49.50" y="175.50" width="65.00" height="51.00" fill="rgb(87,96,64)" fill-opacity="0.8489" transform="rotate(319.26 82.00 201.00)"/>
  <rect x="192.50" y="173.00" width="15.00" height="94.00" fill="rgb(202,150,76)" fill-opacity="0.8729" transform="rotate(340.24 200.00 220.00)"/>
  <rect x="456.00" y="645.00" width="76.00" height="128.00" fill="rgb(35,14,32)" fill-opacity="0.7910" transform="rotate(324.15 494.00 709.00)"/>
  <rect x="227.50" y="186.50" width="27.00" height="55.00" fill="rgb(195,143,73)" fill-opacity="0.7536" transform="rotate(280.57 241.00 214.00)"/>
  <rect x="315.00" y="130.50" width="22.00" height="123.00" fill="rgb(32,19,31)" fill-opacity="0.7591" transform="rotate(185.66 326.00 192.00)"/>
  <rect x="230.00" y="614.50" width="126.00" height="53.00" fill="rgb(72,35,26)" fill-opacity="0.8279" transform="rotate(330.29 293.00 641.00)"/>
  <rect x="-12.50" y="307.00" width="141.00" height="68.00" fill="rgb(107,70,38)" fill-opacity="0.7166" transform="rotate(172.08 58.00 341.00)"/>
  <rect x="91.00" y="537.00" width="46.00" height="48.00" fill="rgb(98,68,43)" fill-opacity="0.8305" transform="rotate(185.23 114.00 561.00)"/>
  <rect x="265.50" y="27.00" width="71.00" height="46.00" fill="rgb(118,129,80)" fill-opacity="0.7933" transform="rotate(291.09 301.00 50.00)"/>
  <rect x="222.50" y="224.00" width="37.00" height="34.00" fill="rgb(161,119,58)" fill-opacity="0.7599" transform="rotate(140.11 241.00 241.00)"/>
  <rect x="125.00" y="236.50" width="106.00" height="49.00" fill="rgb(47,13,15)" fill-opacity="0.8335" transform="rotate(49.24 178.00 261.00)"/>
  <rect x="322.50" y="305.00" width="141.00" height="16.00" fill="rgb(82,85,39)" fill-opacity="0.8738" transform="rotate(125.92 393.00 313.00)"/>
  <rect x="309.00" y="398.50" width="84.00" height="35.00" fill="rgb(59,45,34)" fill-opacity="0.7842" transform="rotate(211.76 351.00 416.00)"/>
  <rect x="436.00" y="531.50" width="78.00" height="75.00" fill="rgb(47,39,68)" fill-opacity="0.7468" transform="rotate(19.15 475.00 569.00)"/>
  <rect x="320.00" y="-31.50" width="90.00" height="103.00" fill="rgb(107,127,77)" fill-opacity="0.7000" transform="rotate(58.26 365.00 20.00)"/>
  <rect x="183.50" y="559.50" width="21.00" height="109.00" fill="rgb(155,103,45)" fill-opacity="0.7990" transform="rotate(113.55 194.00 614.00)"/>
  <rect x="291.00" y="500.50" width="36.00" height="99.00" fill="rgb(21,12,40)" fill-opacity="0.7461" transform="rotate(55.48 309.00 550.00)"/>
  <rect x="403.00" y="208.00" width="106.00" height="82.00" fill="rgb(74,82,68)" fill-opacity="0.8897" transform="rotate(354.08 456.00 249.00)"/>
  <rect x="238.50" y="184.50" width="37.00" height="27.00" fill="rgb(212,166,79)" fill-opacity="0.8371" transform="rotate(343.99 257.00 198.00)"/>
  <rect x="410.00" y="339.00" width="116.00" height="32.00" fill="rgb(139,123,70)" fill-opacity="0.9260" transform="rotate(208.90 468.00 355.00)"/>
  <rect x="40.00" y="563.50" width="28.00" height="77.00" fill="rgb(43,24,54)" fill-opacity="0.7322" transform="rotate(151.69 54.00 602.00)"/>
  <rect x="212.50" y="71.00" width="29.00" height="46.00" fill="rgb(122,55,21)" fill-opacity="0.7798" transform="rotate(61.36 227.00 94.00)"/>
  <rect x="192.50" y="405.50" width="93.00" height="43.00" fill="rgb(99,73,50)" fill-opacity="0.8076" transform="rotate(5.36 239.00 427.00)"/>
  <rect x="451.00" y="400.00" width="60.00" height="126.00" fill="rgb(58,35,63)" fill-opacity="0.7899" transform="rotate(220.10 481.00 463.00)"/>
  <rect x="30.00" y="395.50" width="92.00" height="29.00" fill="rgb(145,101,35)" fill-opacity="0.8034" transform="rotate(110.20 76.00 410.00)"/>
  <rect x="114.50" y="229.50" width="113.00" height="77.00" fill="rgb(54,38,31)" fill-opacity="0.7317" transform="rotate(240.08 171.00 268.00)"/>
  <rect x="351.50" y="79.50" width="27.00" height="65.00" fill="rgb(147,155,102)" fill-opacity="0.8233" transform="rotate(88.07 365.00 112.00)"/>
  <rect x="257.00" y="422.00" width="56.00" height="76.00" fill="rgb(32,26,35)" fill-opacity="0.9443" transform="rotate(219.38 285.00 460.00)"/>
  <rect x="387.50" y="246.00" width="63.00" height="42.00" fill="rgb(73,86,62)" fill-opacity="0.7690" transform="rotate(340.11 419.00 267.00)"/>
  <rect x="117.50" y="139.00" width="45.00" height="28.00" fill="rgb(188,187,128)" fill-opacity="0.7379" transform="rotate(269.69 140.00 153.00)"/>
  <rect x="155.00" y="40.00" width="120.00" height="38.00" fill="rgb(132,131,85)" fill-opacity="0.8877" transform="rotate(173.86 215.00 59.00)"/>
  <rect x="305.50" y="227.00" width="37.00" height="52.00" fill="rgb(36,23,32)" fill-opacity="0.7698" transform="rotate(151.14 324.00 253.00)"/>
  <rect x="159.50" y="157.50" width="97.00" height="37.00" fill="rgb(195,166,80)" fill-opacity="0.9380" transform="rotate(270.00 208.00 176.00)"/>
  <rect x="-36.00" y="227.50" width="84.00" height="57.00" fill="rgb(53,46,44)" fill-opacity="0.7000" transform="rotate(48.52 6.00 256.00)"/>
  <rect x="49.00" y="85.50" width="22.00" height="97.00" fill="rgb(168,174,122)" fill-opacity="0.9230" transform="rotate(270.07 60.00 134.00)"/>
  <rect x="394.50" y="515.00" width="101.00" height="68.00" fill="rgb(32,26,46)" fill-opacity="0.8158" transform="rotate(83.12 445.00 549.00)"/>
  <rect x="434.50" y="591.00" width="55.00" height="44.00" fill="rgb(32,21,52)" fill-opacity="0.7887" transform="rotate(7.47 462.00 613.00)"/>
  <rect x="99.00" y="187.00" width="72.00" height="82.00" fill="rgb(79,76,54)" fill-opacity="0.8737" transform="rotate(102.23 135.00 228.00)"/>
  <rect x="85.00" y="81.50" width="62.00" height="95.00" fill="rgb(167,161,104)" fill-opacity="0.7705" transform="rotate(109.27 116.00 129.00)"/>
  <rect x="22.00" y="385.50" width="66.00" height="59.00" fill="rgb(139,70,43)" fill-opacity="0.9167" transform="rotate(230.28 55.00 415.00)"/>
  <rect x="395.50" y="370.00" width="49.00" height="26.00" fill="rgb(39,25,42)" fill-opacity="0.8655" transform="rotate(207.93 420.00 383.00)"/>
  <rect x="127.50" y="322.00" width="79.00" height="42.00" fill="rgb(56,25,29)" fill-opacity="0.7612" transform="rotate(123.45 167.00 343.00)"/>
  <rect x="7.00" y="74.50" width="78.00" height="75.00" fill="rgb(145,152,96)" fill-opacity="0.8402" transform="rotate(203.24 46.00 112.00)"/>
  <rect x="39.00" y="604.00" width="96.00" height="58.00" fill="rgb(36,20,36)" fill-opacity="0.7542" transform="rotate(70.18 87.00 633.00)"/>
  <rect x="209.50" y="522.50" width="11.00" height="69.00" fill="rgb(38,21,40)" fill-opacity="0.8028" transform="rotate(113.86 215.00 557.00)"/>
  <rect x="213.50" y="212.00" width="11.00" height="52.00" fill="rgb(193,147,63)" fill-opacity="0.7730" transform="rotate(345.93 219.00 238.00)"/>
  <rect x="16.50" y="592.00" width="87.00" height="78.00" fill="rgb(29,15,40)" fill-opacity="0.8170" transform="rotate(336.11 60.00 631.00)"/>
  <rect x="-16.00" y="408.50" width="48.00" height="29.00" fill="rgb(61,45,57)" fill-opacity="0.9487" transform="rotate(45.52 8.00 423.00)"/>
  <rect x="-21.50" y="490.00" width="99.00" height="62.00" fill="rgb(58,43,53)" fill-opacity="0.7652" transform="rotate(173.07 28.00 521.00)"/>
  <rect x="275.50" y="575.00" width="9.00" height="50.00" fill="rgb(152,92,31)" fill-opacity="0.8373" transform="rotate(251.12 280.00 600.00)"/>
  <rect x="457.50" y="411.50" width="51.00" height="55.00" fill="rgb(107,67,58)" fill-opacity="0.7366" transform="rotate(159.69 483.00 439.00)"/>
  <rect x="147.50" y="226.50" width="49.00" height="27.00" fill="rgb(66,26,32)" fill-opacity="0.8510" transform="rotate(102.63 172.00 240.00)"/>
  <rect x="197.50" y="590.00" width="53.00" height="34.00" fill="rgb(185,131,56)" fill-opacity="0.7399" transform="rotate(96.49 224.00 607.00)"/>
  <rect x="289.50" y="516.50" width="55.00" height="67.00" fill="rgb(15,14,34)" fill-opacity="0.8600" transform="rotate(290.76 317.00 550.00)"/>
  <rect x="73.50" y="332.00" width="33.00" height="58.00" fill="rgb(128,99,41)" fill-opacity="0.8840" transform="rotate(137.18 90.00 361.00)"/>
  <rect x="205.00" y="105.50" width="36.00" height="43.00" fill="rgb(231,185,90)" fill-opacity="0.7619" transform="rotate(329.14 223.00 127.00)"/>
  <rect x="158.00" y="166.50" width="20.00" height="65.00" fill="rgb(64,19,22)" fill-opacity="0.8100" transform="rotate(184.69 168.00 199.00)"/>
  <rect x="295.00" y="356.50" width="64.00" height="23.00" fill="rgb(137,87,49)" fill-opacity="0.7692" transform="rotate(160.34 327.00 368.00)"/>
  <rect x="304.50" y="216.00" width="45.00" height="44.00" fill="rgb(37,18,33)" fill-opacity="0.7127" transform="rotate(147.23 327.00 238.00)"/>
  <rect x="108.00" y="252.50" width="50.00" height="33.00" fill="rgb(83,90,63)" fill-opacity="0.7932" transform="rotate(302.10 133.00 269.00)"/>
  <rect x="342.00" y="300.50" width="44.00" height="45.00" fill="rgb(49,23,29)" fill-opacity="0.9286" transform="rotate(179.13 364.00 323.00)"/>
  <rect x="22.50" y="159.00" width="37.00" height="40.00" fill="rgb(99,106,72)" fill-opacity="0.7912" transform="rotate(75.30 41.00 179.00)"/>
  <rect x="205.50" y="193.50" width="45.00" height="9.00" fill="rgb(159,125,61)" fill-opacity="0.7165" transform="rotate(277.87 228.00 198.00)"/>
  <rect x="305.50" y="160.50" width="35.00" height="47.00" fill="rgb(31,20,33)" fill-opacity="0.7490" transform="rotate(126.03 323.00 184.00)"/>
  <rect x="137.00" y="551.50" width="24.00" height="27.00" fill="rgb(206,165,79)" fill-opacity="0.7270" transform="rotate(38.89 149.00 565.00)"/>
  <rect x="33.00" y="439.50" width="24.00" height="37.00" fill="rgb(139,106,75)" fill-opacity="0.7762" transform="rotate(289.83 45.00 458.00)"/>
  <rect x="131.50" y="21.00" width="27.00" height="26.00" fill="rgb(105,114,68)" fill-opacity="0.9718" transform="rotate(223.76 145.00 34.00)"/>
  <rect x="269.50" y="290.00" width="31.00" height="20.00" fill="rgb(169,126,55)" fill-opacity="0.7166" transform="rotate(26.11 285.00 300.00)"/>
  <rect x="126.00" y="482.50" width="56.00" height="53.00" fill="rgb(37,23,39)" fill-opacity="0.8549" transform="rotate(242.17 154.00 509.00)"/>
  <rect x="292.50" y="-13.00" width="29.00" height="32.00" fill="rgb(78,112,70)" fill-opacity="0.7546" transform="rotate(231.55 307.00 3.00)"/>
  <rect x="75.50" y="-8.50" width="47.00" height="65.00" fill="rgb(113,126,74)" fill-opacity="0.8841" transform="rotate(286.88 99.00 24.00)"/>
  <rect x="241.50" y="661.00" width="41.00" height="32.00" fill="rgb(35,14,30)" fill-opacity="0.7723" transform="rotate(156.64 262.00 677.00)"/>
  <rect x="45.50" y="154.00" width="25.00" height="38.00" fill="rgb(110,114,78)" fill-opacity="0.8830" transform="rotate(269.62 58.00 173.00)"/>
  <rect x="282.50" y="558.00" width="23.00" height="50.00" fill="rgb(10,10,35)" fill-opacity="0.8663" transform="rotate(100.22 294.00 583.00)"/>
  <rect x="177.00" y="642.00" width="26.00" height="22.00" fill="rgb(80,50,35)" fill-opacity="0.9387" transform="rotate(2.76 190.00 653.00)"/>
  <rect x="327.50" y="-20.00" width="53.00" height="50.00" fill="rgb(90,112,67)" fill-opacity="0.7320" transform="rotate(119.01 354.00 5.00)"/>
  <rect x="261.50" y="111.00" width="15.00" height="22.00" fill="rgb(106,69,27)" fill-opacity="0.8387" transform="rotate(300.43 269.00 122.00)"/>
  <rect x="166.00" y="152.00" width="26.00" height="12.00" fill="rgb(50,17,30)" fill-opacity="0.7479" transform="rotate(68.40 179.00 158.00)"/>
  <rect x="44.00" y="288.00" width="12.00" height="32.00" fill="rgb(81,99,94)" fill-opacity="0.8797" transform="rotate(96.12 50.00 304.00)"/>
  <rect x="253.00" y="619.50" width="8.00" height="33.00" fill="rgb(164,95,41)" fill-opacity="0.8501" transform="rotate(307.37 257.00 636.00)"/>
  <rect x="384.00" y="157.50" width="30.00" height="23.00" fill="rgb(102,114,85)" fill-opacity="0.9124" transform="rotate(39.67 399.00 169.00)"/>
  <rect x="471.50" y="153.00" width="43.00" height="48.00" fill="rgb(122,130,102)" fill-opacity="0.8568" transform="rotate(83.13 493.00 177.00)"/>
  <rect x="345.00" y="635.00" width="30.00" height="20.00" fill="rgb(49,21,26)" fill-opacity="0.8659" transform="rotate(303.00 360.00 645.00)"/>
  <rect x="336.50" y="434.00" width="31.00" height="28.00" fill="rgb(87,64,37)" fill-opacity="0.8018" transform="rotate(174.12 352.00 448.00)"/>
  <rect x="252.00" y="131.00" width="22.00" height="28.00" fill="rgb(185,143,64)" fill-opacity="0.8918" transform="rotate(132.73 263.00 145.00)"/>
  <rect x="298.00" y="595.00" width="44.00" height="28.00" fill="rgb(109,52,17)" fill-opacity="0.7428" transform="rotate(4.84 320.00 609.00)"/>
  <rect x="118.00" y="258.50" width="38.00" height="43.00" fill="rgb(104,113,87)" fill-opacity="0.7404" transform="rotate(271.74 137.00 280.00)"/>
  <rect x="399.00" y="203.00" width="18.00" height="4.00" fill="rgb(113,133,94)" fill-opacity="0.9345" transform="rotate(9.16 408.00 205.00)"/>
  <rect x="118.50" y="549.50" width="9.00" height="55.00" fill="rgb(91,59,47)" fill-opacity="0.9032" transform="rotate(324.10 123.00 577.00)"/>
  <rect x="355.00" y="121.00" width="46.00" height="20.00" fill="rgb(152,159,102)" fill-opacity="0.7477" transform="rotate(242.16 378.00 131.00)"/>
  <rect x="273.50" y="611.50" width="25.00" height="15.00" fill="rgb(113,66,24)" fill-opacity="0.9075" transform="rotate(110.85 286.00 619.00)"/>
  <rect x="442.50" y="360.00" width="17.00" height="36.00" fill="rgb(96,58,53)" fill-opacity="0.9217" transform="rotate(230.16 451.00 378.00)"/>
  <rect x="30.50" y="454.00" width="47.00" height="18.00" fill="rgb(157,120,66)" fill-opacity="0.7535" transform="rotate(189.73 54.00 463.00)"/>
  <rect x="186.00" y="615.50" width="10.00" height="31.00" fill="rgb(130,75,43)" fill-opacity="0.8414" transform="rotate(338.00 191.00 631.00)"/>
</svg>