<svg xmlns="http://www.w3.org/2000/svg" width="500" height="745" viewBox="0 0 500 745">
  <rect width="100%" height="100%" fill="rgb(86,72,53)"/>
  <rect x="61.50" y="379.50" width="153.00" height="93.00" fill="rgb(40,35,43)" fill-opacity="0.7414" transform="rotate(272.82 138.00 426.00)" />
  <rect x="249.50" y="595.50" width="147.00" height="139.00" fill="rgb(26,20,26)" fill-opacity="0.9800" transform="rotate(110.44 323.00 665.00)" />
  <rect x="74.50" y="-1.00" width="141.00" height="88.00" fill="rgb(108,119,67)" fill-opacity="0.8913" transform="rotate(54.63 145.00 43.00)" />
  <rect x="340.50" y="529.50" width="123.00" height="157.00" fill="rgb(43,17,40)" fill-opacity="0.8455" transform="rotate(29.80 402.00 608.00)" />
  <rect x="454.00" y="212.50" width="60.00" height="35.00" fill="rgb(101,104,87)" fill-opacity="0.6844" transform="rotate(132.37 484.00 230.00)" />
  <rect x="247.00" y="28.00" width="40.00" height="6.00" fill="rgb(113,127,79)" fill-opacity="0.6970" transform="rotate(75.72 267.00 31.00)" />
  <rect x="390.50" y="675.50" width="143.00" height="13.00" fill="rgb(30,5,19)" fill-opacity="0.7956" transform="rotate(333.56 462.00 682.00)" />
  <rect x="-41.00" y="365.50" width="120.00" height="105.00" fill="rgb(51,41,38)" fill-opacity="0.9584" transform="rotate(328.16 19.00 418.00)" />
  <rect x="145.50" y="360.00" width="41.00" height="16.00" fill="rgb(152,105,43)" fill-opacity="0.6721" transform="rotate(48.56 166.00 368.00)" />
  <rect x="30.00" y="400.50" width="38.00" height="161.00" fill="rgb(98,78,64)" fill-opacity="0.7270" transform="rotate(97.68 49.00 481.00)" />
  <rect x="49.50" y="392.00" width="99.00" height="92.00" fill="rgb(46,33,46)" fill-opacity="0.6853" transform="rotate(16.97 99.00 438.00)" />
  <rect x="336.50" y="-67.50" width="47.00" height="151.00" fill="rgb(81,106,58)" fill-opacity="0.9228" transform="rotate(21.59 360.00 8.00)" />
  <rect x="66.50" y="692.00" width="9.00" height="4.00" fill="rgb(16,13,36)" fill-opacity="0.6592" transform="rotate(248.50 71.00 694.00)" />
  <rect x="120.00" y="274.50" width="126.00" height="111.00" fill="rgb(87,49,32)" fill-opacity="0.8828" transform="rotate(68.43 183.00 330.00)" />
  <rect x="381.00" y="200.50" width="162.00" height="57.00" fill="rgb(124,125,79)" fill-opacity="0.7612" transform="rotate(267.04 462.00 229.00)" />
  <rect x="300.50" y="505.50" width="169.00" height="69.00" fill="rgb(27,24,41)" fill-opacity="0.7244" transform="rotate(321.01 385.00 540.00)" />
  <rect x="346.00" y="210.00" width="168.00" height="150.00" fill="rgb(88,92,68)" fill-opacity="0.7226" transform="rotate(54.58 430.00 285.00)" />
  <rect x="-25.50" y="305.50" width="125.00" height="71.00" fill="rgb(107,61,21)" fill-opacity="0.7446" transform="rotate(146.13 37.00 341.00)" />
  <rect x="196.50" y="37.00" width="101.00" height="144.00" fill="rgb(173,125,50)" fill-opacity="0.7708" transform="rotate(102.22 247.00 109.00)" />
  <rect x="242.00" y="18.00" width="152.00" height="118.00" fill="rgb(134,145,82)" fill-opacity="0.7509" transform="rotate(186.04 318.00 77.00)" />
  <rect x="226.00" y="94.00" width="74.00" height="76.00" fill="rgb(165,124,53)" fill-opacity="0.9162" transform="rotate(38.54 263.00 132.00)" />
  <rect x="379.00" y="-5.00" width="176.00" height="108.00" fill="rgb(107,126,69)" fill-opacity="0.8121" transform="rotate(74.22 467.00 49.00)" />
  <rect x="35.00" y="420.50" width="94.00" height="153.00" fill="rgb(65,53,59)" fill-opacity="0.7808" transform="rotate(307.59 82.00 497.00)" />
  <rect x="243.50" y="573.00" width="155.00" height="80.00" fill="rgb(127,78,31)" fill-opacity="0.6623" transform="rotate(46.67 321.00 613.00)" />
  <rect x="143.50" y="168.00" width="51.00" height="150.00" fill="rgb(49,15,18)" fill-opacity="0.7894" transform="rotate(169.88 169.00 243.00)" />
  <rect x="107.00" y="297.50" width="42.00" height="99.00" fill="rgb(96,77,30)" fill-opacity="0.8510" transform="rotate(40.31 128.00 347.00)" />
  <rect x="187.00" y="52.00" width="72.00" height="160.00" fill="rgb(213,172,79)" fill-opacity="0.9800" transform="rotate(359.93 223.00 132.00)" />
  <rect x="411.50" y="-34.00" width="7.00" height="88.00" fill="rgb(92,118,71)" fill-opacity="0.7656" transform="rotate(21.27 415.00 10.00)" />
  <rect x="-33.00" y="12.00" width="78.00" height="86.00" fill="rgb(118,125,66)" fill-opacity="0.6710" transform="rotate(180.08 6.00 55.00)" />
  <rect x="364.50" y="652.50" width="143.00" height="105.00" fill="rgb(9,0,26)" fill-opacity="0.7162" transform="rotate(188.32 436.00 705.00)" />
  <rect x="378.00" y="135.00" width="116.00" height="34.00" fill="rgb(170,163,96)" fill-opacity="0.8314" transform="rotate(278.52 436.00 152.00)" />
  <rect x="412.50" y="586.00" width="71.00" height="24.00" fill="rgb(27,30,56)" fill-opacity="0.7670" transform="rotate(85.54 448.00 598.00)" />
  <rect x="415.00" y="353.50" width="82.00" height="121.00" fill="rgb(103,58,53)" fill-opacity="0.6782" transform="rotate(292.95 456.00 414.00)" />
  <rect x="390.50" y="380.50" width="119.00" height="31.00" fill="rgb(117,63,46)" fill-opacity="0.8634" transform="rotate(6.64 450.00 396.00)" />
  <rect x="10.50" y="26.00" width="37.00" height="88.00" fill="rgb(132,140,87)" fill-opacity="0.8482" transform="rotate(302.25 29.00 70.00)" />
  <rect x="410.50" y="661.50" width="77.00" height="77.00" fill="rgb(15,6,21)" fill-opacity="0.7381" transform="rotate(119.18 449.00 700.00)" />
  <rect x="154.50" y="358.00" width="101.00" height="68.00" fill="rgb(193,158,68)" fill-opacity="0.7117" transform="rotate(102.89 205.00 392.00)" />
  <rect x="191.50" y="272.50" width="17.00" height="13.00" fill="rgb(30,17,21)" fill-opacity="0.6500" transform="rotate(301.03 200.00 279.00)" />
  <rect x="229.00" y="81.00" width="110.00" height="116.00" fill="rgb(65,37,36)" fill-opacity="0.9203" transform="rotate(72.54 284.00 139.00)" />
  <rect x="148.50" y="77.50" width="125.00" height="23.00" fill="rgb(81,45,23)" fill-opacity="0.7077" transform="rotate(64.05 211.00 89.00)" />
  <rect x="383.00" y="438.50" width="94.00" height="75.00" fill="rgb(50,43,57)" fill-opacity="0.6636" transform="rotate(347.13 430.00 476.00)" />
  <rect x="426.00" y="203.00" width="74.00" height="74.00" fill="rgb(81,91,76)" fill-opacity="0.8217" transform="rotate(199.63 463.00 240.00)" />
  <rect x="60.00" y="457.00" width="112.00" height="14.00" fill="rgb(55,43,61)" fill-opacity="0.7408" transform="rotate(357.58 116.00 464.00)" />
  <rect x="429.00" y="710.00" width="78.00" height="4.00" fill="rgb(27,15,33)" fill-opacity="0.7393" transform="rotate(14.54 468.00 712.00)" />
  <rect x="111.00" y="258.00" width="4.00" height="154.00" fill="rgb(59,38,18)" fill-opacity="0.9489" transform="rotate(260.20 113.00 335.00)" />
  <rect x="210.50" y="166.50" width="61.00" height="101.00" fill="rgb(174,122,53)" fill-opacity="0.7713" transform="rotate(47.43 241.00 217.00)" />
  <rect x="296.00" y="-54.00" width="62.00" height="142.00" fill="rgb(107,121,66)" fill-opacity="0.8836" transform="rotate(187.42 327.00 17.00)" />
  <rect x="277.50" y="547.00" width="173.00" height="80.00" fill="rgb(15,0,14)" fill-opacity="0.8533" transform="rotate(12.29 364.00 587.00)" />
  <rect x="468.00" y="582.00" width="24.00" height="136.00" fill="rgb(34,8,28)" fill-opacity="0.9800" transform="rotate(135.51 480.00 650.00)" />
  <rect x="336.00" y="546.00" width="22.00" height="44.00" fill="rgb(16,12,38)" fill-opacity="0.8263" transform="rotate(187.23 347.00 568.00)" />
  <rect x="27.50" y="297.00" width="63.00" height="64.00" fill="rgb(110,83,33)" fill-opacity="0.8981" transform="rotate(124.74 59.00 329.00)" />
  <rect x="-16.00" y="25.50" width="78.00" height="49.00" fill="rgb(136,150,111)" fill-opacity="0.8620" transform="rotate(24.89 23.00 50.00)" />
  <rect x="214.00" y="72.50" width="126.00" height="105.00" fill="rgb(79,46,23)" fill-opacity="0.9577" transform="rotate(82.61 277.00 125.00)" />
  <rect x="17.00" y="475.50" width="156.00" height="73.00" fill="rgb(71,39,48)" fill-opacity="0.6592" transform="rotate(21.67 95.00 512.00)" />
  <rect x="405.50" y="610.00" width="83.00" height="126.00" fill="rgb(20,7,22)" fill-opacity="0.8300" transform="rotate(217.96 447.00 673.00)" />
  <rect x="195.50" y="18.00" width="29.00" height="32.00" fill="rgb(99,120,76)" fill-opacity="0.6703" transform="rotate(25.39 210.00 34.00)" />
  <rect x="172.00" y="604.00" width="70.00" height="120.00" fill="rgb(85,46,34)" fill-opacity="0.7911" transform="rotate(104.35 207.00 664.00)" />
  <rect x="53.50" y="376.50" width="167.00" height="25.00" fill="rgb(57,37,37)" fill-opacity="0.9498" transform="rotate(206.26 137.00 389.00)" />
  <rect x="205.00" y="386.00" width="92.00" height="142.00" fill="rgb(88,65,46)" fill-opacity="0.7422" transform="rotate(279.51 251.00 457.00)" />
  <rect x="78.50" y="2.50" width="17.00" height="119.00" fill="rgb(122,130,80)" fill-opacity="0.8044" transform="rotate(145.94 87.00 62.00)" />
  <rect x="366.50" y="361.50" width="81.00" height="159.00" fill="rgb(19,12,43)" fill-opacity="0.6746" transform="rotate(162.92 407.00 441.00)" />
  <rect x="9.50" y="75.50" width="37.00" height="157.00" fill="rgb(80,89,49)" fill-opacity="0.8074" transform="rotate(36.09 28.00 154.00)" />
  <rect x="192.00" y="532.50" width="38.00" height="175.00" fill="rgb(183,131,60)" fill-opacity="0.7066" transform="rotate(58.79 211.00 620.00)" />
  <rect x="350.50" y="-6.00" width="25.00" height="150.00" fill="rgb(120,133,78)" fill-opacity="0.7750" transform="rotate(190.99 363.00 69.00)" />
  <rect x="225.00" y="-47.50" width="98.00" height="163.00" fill="rgb(109,126,77)" fill-opacity="0.8527" transform="rotate(261.46 274.00 34.00)" />
  <rect x="473.50" y="42.50" width="51.00" height="115.00" fill="rgb(89,131,81)" fill-opacity="0.6827" transform="rotate(108.29 499.00 100.00)" />
  <rect x="298.50" y="235.00" width="103.00" height="104.00" fill="rgb(34,24,32)" fill-opacity="0.9376" transform="rotate(85.13 350.00 287.00)" />
  <rect x="415.50" y="526.50" width="77.00" height="135.00" fill="rgb(23,33,49)" fill-opacity="0.7451" transform="rotate(27.71 454.00 594.00)" />
  <rect x="343.50" y="1.50" width="57.00" height="49.00" fill="rgb(103,116,64)" fill-opacity="0.6656" transform="rotate(46.57 372.00 26.00)" />
  <rect x="336.00" y="97.50" width="124.00" height="47.00" fill="rgb(161,163,110)" fill-opacity="0.7143" transform="rotate(87.52 398.00 121.00)" />
  <rect x="448.50" y="-3.00" width="73.00" height="102.00" fill="rgb(124,137,83)" fill-opacity="0.8765" transform="rotate(139.30 485.00 48.00)" />
  <rect x="261.50" y="521.50" width="193.00" height="157.00" fill="rgb(62,19,24)" fill-opacity="0.6782" transform="rotate(164.59 358.00 600.00)" />
  <rect x="114.00" y="98.00" width="92.00" height="94.00" fill="rgb(111,100,44)" fill-opacity="0.7625" transform="rotate(215.96 160.00 145.00)" />
  <rect x="30.50" y="223.00" width="151.00" height="134.00" fill="rgb(81,95,62)" fill-opacity="0.7082" transform="rotate(249.96 106.00 290.00)" />
  <rect x="69.00" y="648.50" width="18.00" height="75.00" fill="rgb(23,10,32)" fill-opacity="0.8943" transform="rotate(176.41 78.00 686.00)" />
  <rect x="163.00" y="137.50" width="36.00" height="59.00" fill="rgb(107,67,47)" fill-opacity="0.8546" transform="rotate(68.97 181.00 167.00)" />
  <rect x="48.50" y="259.00" width="101.00" height="76.00" fill="rgb(110,83,57)" fill-opacity="0.7261" transform="rotate(273.53 99.00 297.00)" />
  <rect x="44.00" y="255.50" width="44.00" height="41.00" fill="rgb(75,81,61)" fill-opacity="0.6500" transform="rotate(116.61 66.00 276.00)" />
  <rect x="90.00" y="30.00" width="136.00" height="76.00" fill="rgb(136,141,80)" fill-opacity="0.8968" transform="rotate(77.85 158.00 68.00)" />
  <rect x="151.00" y="428.00" width="102.00" height="156.00" fill="rgb(45,18,32)" fill-opacity="0.6655" transform="rotate(204.07 202.00 506.00)" />
  <rect x="32.00" y="621.00" width="50.00" height="188.00" fill="rgb(30,15,38)" fill-opacity="0.9425" transform="rotate(283.59 57.00 715.00)" />
  <rect x="89.50" y="561.00" width="139.00" height="136.00" fill="rgb(186,133,70)" fill-opacity="0.9800" transform="rotate(85.89 159.00 629.00)" />
  <rect x="427.50" y="537.50" width="57.00" height="35.00" fill="rgb(49,41,62)" fill-opacity="0.8081" transform="rotate(137.01 456.00 555.00)" />
  <rect x="30.50" y="436.00" width="47.00" height="68.00" fill="rgb(85,59,51)" fill-opacity="0.8899" transform="rotate(295.55 54.00 470.00)" />
  <rect x="397.50" y="31.50" width="121.00" height="173.00" fill="rgb(164,162,104)" fill-opacity="0.8424" transform="rotate(279.36 458.00 118.00)" />
  <rect x="294.50" y="440.00" width="141.00" height="166.00" fill="rgb(22,19,41)" fill-opacity="0.8657" transform="rotate(201.16 365.00 523.00)" />
  <rect x="207.50" y="53.00" width="33.00" height="116.00" fill="rgb(190,148,56)" fill-opacity="0.8427" transform="rotate(350.47 224.00 111.00)" />
  <rect x="366.00" y="585.50" width="106.00" height="47.00" fill="rgb(38,25,48)" fill-opacity="0.6500" transform="rotate(284.24 419.00 609.00)" />
  <rect x="264.00" y="626.50" width="74.00" height="159.00" fill="rgb(4,0,31)" fill-opacity="0.7910" transform="rotate(53.63 301.00 706.00)" />
  <rect x="220.00" y="220.00" width="58.00" height="4.00" fill="rgb(175,135,62)" fill-opacity="0.8233" transform="rotate(249.95 249.00 222.00)" />
  <rect x="237.50" y="276.00" width="87.00" height="152.00" fill="rgb(207,163,75)" fill-opacity="0.6909" transform="rotate(120.85 281.00 352.00)" />
  <rect x="294.00" y="2.50" width="116.00" height="99.00" fill="rgb(119,126,80)" fill-opacity="0.6616" transform="rotate(147.32 352.00 52.00)" />
  <rect x="202.00" y="603.00" width="162.00" height="154.00" fill="rgb(22,4,23)" fill-opacity="0.7157" transform="rotate(262.11 283.00 680.00)" />
  <rect x="62.50" y="104.50" width="123.00" height="33.00" fill="rgb(153,155,97)" fill-opacity="0.9453" transform="rotate(159.68 124.00 121.00)" />
  <rect x="194.00" y="117.00" width="82.00" height="114.00" fill="rgb(190,143,78)" fill-opacity="0.8927" transform="rotate(173.71 235.00 174.00)" />
  <rect x="-11.00" y="-85.00" width="174.00" height="172.00" fill="rgb(106,117,70)" fill-opacity="0.9268" transform="rotate(317.66 76.00 1.00)" />
  <rect x="-41.00" y="224.00" width="116.00" height="50.00" fill="rgb(60,53,37)" fill-opacity="0.7063" transform="rotate(83.77 17.00 249.00)" />
  <rect x="-31.50" y="294.00" width="147.00" height="64.00" fill="rgb(74,68,51)" fill-opacity="0.6812" transform="rotate(232.74 42.00 326.00)" />
  <rect x="408.00" y="638.50" width="96.00" height="49.00" fill="rgb(71,32,40)" fill-opacity="0.9244" transform="rotate(204.44 456.00 663.00)" />
  <rect x="-27.50" y="512.50" width="55.00" height="81.00" fill="rgb(119,77,69)" fill-opacity="0.7804" transform="rotate(102.63 0.00 553.00)" />
  <rect x="416.50" y="673.50" width="49.00" height="61.00" fill="rgb(20,5,16)" fill-opacity="0.9698" transform="rotate(217.47 441.00 704.00)" />
  <rect x="33.00" y="2.50" width="38.00" height="175.00" fill="rgb(138,141,91)" fill-opacity="0.8867" transform="rotate(258.99 52.00 90.00)" />
  <rect x="356.50" y="631.50" width="175.00" height="113.00" fill="rgb(19,10,24)" fill-opacity="0.8009" transform="rotate(358.34 444.00 688.00)" />
  <rect x="14.50" y="534.00" width="103.00" height="170.00" fill="rgb(31,24,57)" fill-opacity="0.6727" transform="rotate(238.16 66.00 619.00)" />
  <rect x="29.00" y="157.50" width="88.00" height="49.00" fill="rgb(94,92,52)" fill-opacity="0.7347" transform="rotate(94.46 73.00 182.00)" />
  <rect x="273.50" y="668.50" width="167.00" height="15.00" fill="rgb(10,7,18)" fill-opacity="0.7736" transform="rotate(48.67 357.00 676.00)" />
  <rect x="278.50" y="214.00" width="121.00" height="48.00" fill="rgb(30,19,29)" fill-opacity="0.9587" transform="rotate(227.18 339.00 238.00)" />
  <rect x="94.00" y="678.00" width="66.00" height="38.00" fill="rgb(41,15,29)" fill-opacity="0.6973" transform="rotate(310.76 127.00 697.00)" />
  <rect x="393.00" y="255.50" width="70.00" height="141.00" fill="rgb(146,115,81)" fill-opacity="0.8252" transform="rotate(321.17 428.00 326.00)" />
  <rect x="81.00" y="194.00" width="70.00" height="142.00" fill="rgb(70,71,55)" fill-opacity="0.7712" transform="rotate(336.64 116.00 265.00)" />
  <rect x="144.50" y="661.50" width="99.00" height="61.00" fill="rgb(38,19,28)" fill-opacity="0.9405" transform="rotate(149.26 194.00 692.00)" />
  <rect x="220.50" y="340.00" width="77.00" height="52.00" fill="rgb(236,185,110)" fill-opacity="0.9430" transform="rotate(269.77 259.00 366.00)" />
  <rect x="27.50" y="65.50" width="65.00" height="123.00" fill="rgb(157,153,98)" fill-opacity="0.9333" transform="rotate(271.48 60.00 127.00)" />
  <rect x="-26.50" y="354.00" width="81.00" height="166.00" fill="rgb(77,60,71)" fill-opacity="0.7657" transform="rotate(215.40 14.00 437.00)" />
  <rect x="185.00" y="643.50" width="96.00" height="41.00" fill="rgb(69,36,31)" fill-opacity="0.8314" transform="rotate(125.92 233.00 664.00)" />
  <rect x="429.50" y="5.50" width="49.00" height="79.00" fill="rgb(118,134,84)" fill-opacity="0.8058" transform="rotate(349.05 454.00 45.00)" />
  <rect x="-5.50" y="702.50" width="47.00" height="77.00" fill="rgb(19,10,39)" fill-opacity="0.7650" transform="rotate(299.19 18.00 741.00)" />
  <rect x="37.00" y="334.00" width="72.00" height="154.00" fill="rgb(155,104,42)" fill-opacity="0.6500" transform="rotate(210.63 73.00 411.00)" />
  <rect x="245.00" y="582.00" width="134.00" height="12.00" fill="rgb(8,3,32)" fill-opacity="0.6500" transform="rotate(104.06 312.00 588.00)" />
  <rect x="375.00" y="611.50" width="100.00" height="85.00" fill="rgb(16,8,29)" fill-opacity="0.8345" transform="rotate(89.83 425.00 654.00)" />
  <rect x="-10.00" y="644.50" width="100.00" height="89.00" fill="rgb(18,12,34)" fill-opacity="0.8098" transform="rotate(346.54 40.00 689.00)" />
  <rect x="419.50" y="612.50" width="29.00" height="87.00" fill="rgb(23,15,33)" fill-opacity="0.7546" transform="rotate(195.86 434.00 656.00)" />
  <rect x="142.00" y="646.00" width="98.00" height="180.00" fill="rgb(19,11,26)" fill-opacity="0.6653" transform="rotate(191.15 191.00 736.00)" />
  <rect x="121.00" y="388.50" width="170.00" height="53.00" fill="rgb(105,74,48)" fill-opacity="0.7639" transform="rotate(213.60 206.00 415.00)" />
  <rect x="359.50" y="213.00" width="67.00" height="100.00" fill="rgb(74,91,70)" fill-opacity="0.7717" transform="rotate(155.51 393.00 263.00)" />
  <rect x="254.00" y="587.00" width="88.00" height="62.00" fill="rgb(110,63,33)" fill-opacity="0.7175" transform="rotate(336.03 298.00 618.00)" />
  <rect x="72.50" y="298.50" width="155.00" height="33.00" fill="rgb(64,54,42)" fill-opacity="0.6518" transform="rotate(286.01 150.00 315.00)" />
  <rect x="153.50" y="565.50" width="41.00" height="131.00" fill="rgb(163,120,55)" fill-opacity="0.8525" transform="rotate(268.53 174.00 631.00)" />
  <rect x="444.50" y="400.00" width="65.00" height="48.00" fill="rgb(101,59,48)" fill-opacity="0.9146" transform="rotate(150.66 477.00 424.00)" />
  <rect x="455.50" y="354.00" width="67.00" height="26.00" fill="rgb(147,125,64)" fill-opacity="0.6684" transform="rotate(315.60 489.00 367.00)" />
  <rect x="286.00" y="362.00" width="62.00" height="92.00" fill="rgb(35,31,42)" fill-opacity="0.9198" transform="rotate(197.23 317.00 408.00)" />
  <rect x="177.50" y="325.00" width="69.00" height="76.00" fill="rgb(231,195,98)" fill-opacity="0.9135" transform="rotate(222.86 212.00 363.00)" />
  <rect x="142.00" y="209.50" width="28.00" height="139.00" fill="rgb(97,106,68)" fill-opacity="0.8865" transform="rotate(71.04 156.00 279.00)" />
  <rect x="376.50" y="326.00" width="17.00" height="114.00" fill="rgb(9,17,13)" fill-opacity="0.9800" transform="rotate(67.99 385.00 383.00)" />
  <rect x="19.50" y="508.50" width="119.00" height="177.00" fill="rgb(25,20,34)" fill-opacity="0.8301" transform="rotate(12.66 79.00 597.00)" />
  <rect x="130.50" y="382.00" width="69.00" height="74.00" fill="rgb(65,38,40)" fill-opacity="0.9192" transform="rotate(29.01 165.00 419.00)" />
  <rect x="2.00" y="103.50" width="120.00" height="85.00" fill="rgb(121,134,63)" fill-opacity="0.8892" transform="rotate(55.86 62.00 146.00)" />
  <rect x="125.50" y="639.50" width="131.00" height="45.00" fill="rgb(85,45,38)" fill-opacity="0.6933" transform="rotate(165.81 191.00 662.00)" />
  <rect x="-68.50" y="58.50" width="147.00" height="153.00" fill="rgb(128,135,87)" fill-opacity="0.7845" transform="rotate(180.52 5.00 135.00)" />
  <rect x="250.50" y="430.50" width="51.00" height="107.00" fill="rgb(25,16,28)" fill-opacity="0.7188" transform="rotate(15.22 276.00 484.00)" />
  <rect x="25.00" y="480.50" width="130.00" height="63.00" fill="rgb(63,38,47)" fill-opacity="0.7803" transform="rotate(81.08 90.00 512.00)" />
  <rect x="70.00" y="67.50" width="50.00" height="143.00" fill="rgb(172,172,113)" fill-opacity="0.7450" transform="rotate(292.67 95.00 139.00)" />
  <rect x="317.50" y="105.50" width="57.00" height="123.00" fill="rgb(74,87,62)" fill-opacity="0.8338" transform="rotate(41.40 346.00 167.00)" />
  <rect x="-34.00" y="519.00" width="86.00" height="118.00" fill="rgb(43,30,43)" fill-opacity="0.7482" transform="rotate(307.20 9.00 578.00)" />
  <rect x="95.50" y="412.50" width="19.00" height="81.00" fill="rgb(44,19,43)" fill-opacity="0.7657" transform="rotate(35.32 105.00 453.00)" />
  <rect x="320.00" y="367.50" width="10.00" height="43.00" fill="rgb(47,36,29)" fill-opacity="0.7653" transform="rotate(51.93 325.00 389.00)" />
  <rect x="316.50" y="295.00" width="139.00" height="146.00" fill="rgb(62,34,39)" fill-opacity="0.6894" transform="rotate(129.68 386.00 368.00)" />
  <rect x="35.00" y="297.50" width="80.00" height="133.00" fill="rgb(109,74,47)" fill-opacity="0.8455" transform="rotate(309.52 75.00 364.00)" />
  <rect x="143.00" y="242.00" width="54.00" height="140.00" fill="rgb(44,32,26)" fill-opacity="0.8298" transform="rotate(198.23 170.00 312.00)" />
  <rect x="451.00" y="212.50" width="74.00" height="31.00" fill="rgb(92,94,69)" fill-opacity="0.8287" transform="rotate(358.28 488.00 228.00)" />
</svg>
