<svg xmlns="http://www.w3.org/2000/svg" width="1280" height="860" viewBox="0 0 1280 860">
  <rect width="100%" height="100%" fill="rgb(191,193,182)"/>
  <circle cx="139.00" cy="437.00" r="64.00" fill="rgb(27,85,123)" fill-opacity="0.8612" />
  <circle cx="801.00" cy="602.00" r="407.00" fill="rgb(243,246,228)" fill-opacity="0.7000" />
  <circle cx="888.00" cy="787.00" r="320.00" fill="rgb(228,214,183)" fill-opacity="0.9513" />
  <ellipse cx="1231.00" cy="610.00" rx="381.00" ry="205.00" fill="rgb(247,226,215)" fill-opacity="0.9414" transform="rotate(270.47 1231.00 610.00)" />
  <ellipse cx="53.00" cy="450.00" rx="23.00" ry="400.00" fill="rgb(218,205,171)" fill-opacity="0.8181" transform="rotate(188.40 53.00 450.00)" />
  <ellipse cx="599.00" cy="490.00" rx="75.00" ry="223.00" fill="rgb(221,196,164)" fill-opacity="0.8583" transform="rotate(305.91 599.00 490.00)" />
  <circle cx="1134.00" cy="727.00" r="288.00" fill="rgb(177,197,191)" fill-opacity="0.7354" />
  <circle cx="447.00" cy="331.00" r="82.00" fill="rgb(24,74,101)" fill-opacity="0.7858" />
  <circle cx="640.00" cy="354.00" r="423.00" fill="rgb(255,247,219)" fill-opacity="0.7663" />
  <circle cx="1220.00" cy="715.00" r="104.00" fill="rgb(40,105,134)" fill-opacity="0.7423" />
  <circle cx="268.00" cy="859.00" r="93.00" fill="rgb(20,47,76)" fill-opacity="0.8181" />
  <rect x="364.50" y="307.50" width="121.00" height="235.00" fill="rgb(44,71,110)" fill-opacity="0.8511" transform="rotate(183.03 425.00 425.00)" />
  <rect x="80.50" y="731.50" width="149.00" height="97.00" fill="rgb(59,93,141)" fill-opacity="0.9014" transform="rotate(104.52 155.00 780.00)" />
  <circle cx="319.00" cy="510.00" r="73.00" fill="rgb(34,54,88)" fill-opacity="0.7850" />
  <rect x="352.50" y="102.50" width="189.00" height="273.00" fill="rgb(7,53,93)" fill-opacity="0.7688" transform="rotate(229.62 447.00 239.00)" />
  <ellipse cx="1142.00" cy="553.00" rx="114.00" ry="392.00" fill="rgb(243,234,198)" fill-opacity="0.9258" transform="rotate(354.77 1142.00 553.00)" />
  <rect x="7.00" y="791.50" width="258.00" height="135.00" fill="rgb(21,48,79)" fill-opacity="0.7533" transform="rotate(202.06 136.00 859.00)" />
  <circle cx="300.00" cy="432.00" r="15.00" fill="rgb(216,228,224)" fill-opacity="0.7752" />
  <circle cx="1215.00" cy="591.00" r="89.00" fill="rgb(218,230,216)" fill-opacity="0.7319" />
  <rect x="1176.00" y="509.00" width="86.00" height="82.00" fill="rgb(34,119,148)" fill-opacity="0.8784" transform="rotate(189.62 1219.00 550.00)" />
  <ellipse cx="912.00" cy="834.00" rx="393.00" ry="184.00" fill="rgb(216,230,206)" fill-opacity="0.7578" transform="rotate(72.16 912.00 834.00)" />
  <ellipse cx="576.00" cy="786.00" rx="175.00" ry="97.00" fill="rgb(36,67,98)" fill-opacity="0.7276" transform="rotate(340.68 576.00 786.00)" />
  <ellipse cx="1207.00" cy="736.00" rx="350.00" ry="49.00" fill="rgb(49,80,101)" fill-opacity="0.7227" transform="rotate(342.58 1207.00 736.00)" />
  <rect x="76.50" y="453.00" width="63.00" height="404.00" fill="rgb(247,243,216)" fill-opacity="0.9240" transform="rotate(88.93 108.00 655.00)" />
  <rect x="612.00" y="280.00" width="198.00" height="230.00" fill="rgb(241,234,197)" fill-opacity="0.8620" transform="rotate(359.81 711.00 395.00)" />
  <rect x="761.50" y="740.00" width="353.00" height="48.00" fill="rgb(9,72,112)" fill-opacity="0.8160" transform="rotate(334.05 938.00 764.00)" />
  <rect x="525.50" y="524.50" width="279.00" height="251.00" fill="rgb(72,106,145)" fill-opacity="0.7609" transform="rotate(271.12 665.00 650.00)" />
  <rect x="33.50" y="250.50" width="179.00" height="105.00" fill="rgb(236,243,221)" fill-opacity="0.7000" transform="rotate(129.09 123.00 303.00)" />
  <rect x="1060.50" y="449.00" width="249.00" height="40.00" fill="rgb(253,250,233)" fill-opacity="0.7555" transform="rotate(310.72 1185.00 469.00)" />
  <circle cx="437.00" cy="530.00" r="50.00" fill="rgb(255,255,242)" fill-opacity="0.8830" />
  <rect x="848.00" y="503.50" width="254.00" height="141.00" fill="rgb(128,127,122)" fill-opacity="0.7000" transform="rotate(179.33 975.00 574.00)" />
  <rect x="101.50" y="425.50" width="299.00" height="143.00" fill="rgb(52,88,124)" fill-opacity="0.7746" transform="rotate(351.60 251.00 497.00)" />
  <rect x="635.50" y="713.00" width="269.00" height="56.00" fill="rgb(157,161,186)" fill-opacity="0.9520" transform="rotate(260.06 770.00 741.00)" />
  <ellipse cx="496.00" cy="737.00" rx="325.00" ry="77.00" fill="rgb(209,214,184)" fill-opacity="0.7405" transform="rotate(298.11 496.00 737.00)" />
  <circle cx="570.00" cy="738.00" r="55.00" fill="rgb(25,65,93)" fill-opacity="0.8403" />
  <ellipse cx="926.00" cy="851.00" rx="32.00" ry="244.00" fill="rgb(216,229,211)" fill-opacity="0.7970" transform="rotate(111.41 926.00 851.00)" />
  <ellipse cx="552.00" cy="630.00" rx="128.00" ry="83.00" fill="rgb(252,244,231)" fill-opacity="0.8598" transform="rotate(356.21 552.00 630.00)" />
  <circle cx="122.00" cy="594.00" r="48.00" fill="rgb(47,77,120)" fill-opacity="0.8869" />
  <rect x="201.00" y="-46.00" width="150.00" height="340.00" fill="rgb(247,232,213)" fill-opacity="0.9107" transform="rotate(97.39 276.00 124.00)" />
  <rect x="-123.50" y="224.00" width="333.00" height="94.00" fill="rgb(214,195,155)" fill-opacity="0.7000" transform="rotate(344.94 43.00 271.00)" />
  <rect x="752.00" y="738.00" width="96.00" height="36.00" fill="rgb(21,69,107)" fill-opacity="0.8929" transform="rotate(201.84 800.00 756.00)" />
  <rect x="415.00" y="199.00" width="92.00" height="246.00" fill="rgb(30,62,100)" fill-opacity="0.8165" transform="rotate(0.18 461.00 322.00)" />
  <rect x="1061.00" y="541.50" width="110.00" height="131.00" fill="rgb(238,242,231)" fill-opacity="0.7670" transform="rotate(254.96 1116.00 607.00)" />
  <rect x="577.00" y="810.50" width="160.00" height="35.00" fill="rgb(22,57,87)" fill-opacity="0.7592" transform="rotate(1.72 657.00 828.00)" />
  <rect x="171.50" y="203.50" width="157.00" height="293.00" fill="rgb(255,243,221)" fill-opacity="0.8664" transform="rotate(331.00 250.00 350.00)" />
  <rect x="46.50" y="312.00" width="229.00" height="24.00" fill="rgb(243,234,217)" fill-opacity="0.8393" transform="rotate(114.55 161.00 324.00)" />
  <rect x="21.00" y="2.00" width="196.00" height="184.00" fill="rgb(236,224,184)" fill-opacity="0.7193" transform="rotate(301.79 119.00 94.00)" />
  <circle cx="313.00" cy="378.00" r="91.00" fill="rgb(205,223,221)" fill-opacity="0.8787" />
  <circle cx="1275.00" cy="513.00" r="54.00" fill="rgb(25,90,117)" fill-opacity="0.8489" />
  <ellipse cx="41.00" cy="274.00" rx="65.00" ry="170.00" fill="rgb(216,200,164)" fill-opacity="0.8479" transform="rotate(197.72 41.00 274.00)" />
  <ellipse cx="1192.00" cy="782.00" rx="19.00" ry="90.00" fill="rgb(39,69,97)" fill-opacity="0.9150" transform="rotate(82.65 1192.00 782.00)" />
  <rect x="458.50" y="75.50" width="91.00" height="121.00" fill="rgb(255,239,238)" fill-opacity="0.8462" transform="rotate(123.45 504.00 136.00)" />
  <rect x="413.50" y="609.50" width="131.00" height="129.00" fill="rgb(221,226,201)" fill-opacity="0.8983" transform="rotate(209.96 479.00 674.00)" />
  <rect x="589.00" y="752.00" width="242.00" height="64.00" fill="rgb(163,170,156)" fill-opacity="0.8541" transform="rotate(213.11 710.00 784.00)" />
  <rect x="700.00" y="588.50" width="278.00" height="99.00" fill="rgb(118,121,119)" fill-opacity="0.7336" transform="rotate(146.95 839.00 638.00)" />
  <ellipse cx="869.00" cy="670.00" rx="8.00" ry="234.00" fill="rgb(215,233,219)" fill-opacity="0.8334" transform="rotate(337.66 869.00 670.00)" />
  <circle cx="523.00" cy="698.00" r="25.00" fill="rgb(59,91,108)" fill-opacity="0.8345" />
  <rect x="227.50" y="661.50" width="145.00" height="121.00" fill="rgb(198,215,212)" fill-opacity="0.9420" transform="rotate(217.45 300.00 722.00)" />
  <circle cx="770.00" cy="353.00" r="208.00" fill="rgb(244,233,215)" fill-opacity="0.7819" />
  <circle cx="658.00" cy="601.00" r="90.00" fill="rgb(128,142,130)" fill-opacity="0.8770" />
  <rect x="1146.00" y="472.00" width="92.00" height="60.00" fill="rgb(245,247,221)" fill-opacity="0.8618" transform="rotate(344.63 1192.00 502.00)" />
  <rect x="161.50" y="583.00" width="55.00" height="248.00" fill="rgb(245,232,211)" fill-opacity="0.7773" transform="rotate(95.37 189.00 707.00)" />
  <rect x="542.50" y="721.00" width="45.00" height="190.00" fill="rgb(230,232,211)" fill-opacity="0.9722" transform="rotate(305.26 565.00 816.00)" />
  <ellipse cx="535.00" cy="517.00" rx="103.00" ry="17.00" fill="rgb(31,60,96)" fill-opacity="0.8577" transform="rotate(231.52 535.00 517.00)" />
  <circle cx="393.00" cy="434.00" r="58.00" fill="rgb(40,77,100)" fill-opacity="0.8823" />
  <circle cx="1171.00" cy="665.00" r="71.00" fill="rgb(219,231,217)" fill-opacity="0.7565" />
  <rect x="969.50" y="564.50" width="51.00" height="117.00" fill="rgb(248,233,216)" fill-opacity="0.8504" transform="rotate(246.56 995.00 623.00)" />
  <ellipse cx="271.00" cy="356.00" rx="187.00" ry="29.00" fill="rgb(209,229,207)" fill-opacity="0.8139" transform="rotate(187.72 271.00 356.00)" />
  <rect x="75.00" y="476.00" width="108.00" height="188.00" fill="rgb(177,186,183)" fill-opacity="0.7172" transform="rotate(95.35 129.00 570.00)" />
  <rect x="766.00" y="773.50" width="172.00" height="119.00" fill="rgb(243,231,203)" fill-opacity="0.7607" transform="rotate(173.47 852.00 833.00)" />
  <circle cx="1107.00" cy="673.00" r="16.00" fill="rgb(71,104,154)" fill-opacity="0.8903" />
  <ellipse cx="349.00" cy="22.00" rx="127.00" ry="220.00" fill="rgb(246,227,194)" fill-opacity="0.8014" transform="rotate(23.50 349.00 22.00)" />
  <rect x="560.00" y="822.00" width="108.00" height="22.00" fill="rgb(245,246,211)" fill-opacity="0.8873" transform="rotate(204.33 614.00 833.00)" />
  <ellipse cx="144.00" cy="777.00" rx="84.00" ry="17.00" fill="rgb(43,79,90)" fill-opacity="0.7716" transform="rotate(195.53 144.00 777.00)" />
  <ellipse cx="614.00" cy="799.00" rx="54.00" ry="26.00" fill="rgb(51,79,115)" fill-opacity="0.8958" transform="rotate(217.11 614.00 799.00)" />
  <circle cx="247.00" cy="504.00" r="55.00" fill="rgb(32,79,109)" fill-opacity="0.7896" />
  <ellipse cx="408.00" cy="377.00" rx="40.00" ry="24.00" fill="rgb(255,237,218)" fill-opacity="0.8921" transform="rotate(76.34 408.00 377.00)" />
  <ellipse cx="1025.00" cy="728.00" rx="35.00" ry="49.00" fill="rgb(61,104,136)" fill-opacity="0.8386" transform="rotate(262.56 1025.00 728.00)" />
  <rect x="695.00" y="532.50" width="28.00" height="187.00" fill="rgb(122,124,113)" fill-opacity="0.8875" transform="rotate(114.14 709.00 626.00)" />
  <ellipse cx="1043.00" cy="770.00" rx="101.00" ry="19.00" fill="rgb(253,251,226)" fill-opacity="0.9315" transform="rotate(155.16 1043.00 770.00)" />
  <rect x="222.50" y="462.00" width="69.00" height="106.00" fill="rgb(47,83,130)" fill-opacity="0.7470" transform="rotate(226.73 257.00 515.00)" />
  <rect x="1096.50" y="679.50" width="59.00" height="89.00" fill="rgb(215,233,219)" fill-opacity="0.8153" transform="rotate(182.65 1126.00 724.00)" />
  <rect x="1215.50" y="641.00" width="69.00" height="110.00" fill="rgb(32,76,116)" fill-opacity="0.7279" transform="rotate(60.54 1250.00 696.00)" />
  <circle cx="405.00" cy="657.00" r="104.00" fill="rgb(225,244,225)" fill-opacity="0.8076" />
  <circle cx="90.00" cy="606.00" r="47.00" fill="rgb(30,61,104)" fill-opacity="0.7295" />
  <circle cx="324.00" cy="816.00" r="23.00" fill="rgb(243,239,221)" fill-opacity="0.9564" />
  <circle cx="690.00" cy="791.00" r="28.00" fill="rgb(199,172,153)" fill-opacity="0.9423" />
  <circle cx="33.00" cy="377.00" r="90.00" fill="rgb(189,204,191)" fill-opacity="0.8575" />
  <rect x="338.50" y="210.50" width="119.00" height="81.00" fill="rgb(24,56,94)" fill-opacity="0.7022" transform="rotate(112.44 398.00 251.00)" />
  <circle cx="384.00" cy="783.00" r="49.00" fill="rgb(208,229,219)" fill-opacity="0.9725" />
  <ellipse cx="603.00" cy="620.00" rx="33.00" ry="36.00" fill="rgb(255,255,246)" fill-opacity="0.8909" transform="rotate(354.08 603.00 620.00)" />
  <rect x="867.00" y="619.00" width="48.00" height="144.00" fill="rgb(250,245,227)" fill-opacity="0.7276" transform="rotate(92.34 891.00 691.00)" />
  <ellipse cx="1090.00" cy="409.00" rx="75.00" ry="164.00" fill="rgb(246,240,218)" fill-opacity="0.8426" transform="rotate(302.02 1090.00 409.00)" />
  <ellipse cx="509.00" cy="251.00" rx="65.00" ry="51.00" fill="rgb(32,63,99)" fill-opacity="0.9030" transform="rotate(77.03 509.00 251.00)" />
  <circle cx="236.00" cy="402.00" r="51.00" fill="rgb(178,202,205)" fill-opacity="0.7938" />
  <ellipse cx="471.00" cy="858.00" rx="80.00" ry="67.00" fill="rgb(86,95,116)" fill-opacity="0.7791" transform="rotate(89.03 471.00 858.00)" />
  <circle cx="641.00" cy="150.00" r="128.00" fill="rgb(248,234,197)" fill-opacity="0.8312" />
  <rect x="831.00" y="711.50" width="32.00" height="155.00" fill="rgb(219,173,140)" fill-opacity="0.7803" transform="rotate(92.34 847.00 789.00)" />
  <circle cx="795.00" cy="690.00" r="38.00" fill="rgb(219,239,227)" fill-opacity="0.9028" />
  <ellipse cx="1126.00" cy="671.00" rx="16.00" ry="30.00" fill="rgb(23,57,85)" fill-opacity="0.7561" transform="rotate(227.85 1126.00 671.00)" />
  <rect x="1051.00" y="669.50" width="4.00" height="51.00" fill="rgb(211,216,193)" fill-opacity="0.7494" transform="rotate(85.58 1053.00 695.00)" />
  <ellipse cx="601.00" cy="799.00" rx="17.00" ry="35.00" fill="rgb(34,70,104)" fill-opacity="0.8525" transform="rotate(105.42 601.00 799.00)" />
  <circle cx="1102.00" cy="506.00" r="26.00" fill="rgb(67,114,153)" fill-opacity="0.8604" />
  <circle cx="934.00" cy="755.00" r="45.00" fill="rgb(74,109,129)" fill-opacity="0.7341" />
  <circle cx="435.00" cy="609.00" r="97.00" fill="rgb(250,247,228)" fill-opacity="0.8716" />
  <ellipse cx="23.00" cy="686.00" rx="93.00" ry="30.00" fill="rgb(234,223,201)" fill-opacity="0.7714" transform="rotate(91.75 23.00 686.00)" />
  <ellipse cx="149.00" cy="234.00" rx="75.00" ry="18.00" fill="rgb(220,202,169)" fill-opacity="0.9009" transform="rotate(311.88 149.00 234.00)" />
  <ellipse cx="575.00" cy="367.00" rx="66.00" ry="41.00" fill="rgb(246,235,214)" fill-opacity="0.8956" transform="rotate(25.06 575.00 367.00)" />
  <ellipse cx="573.00" cy="213.00" rx="73.00" ry="54.00" fill="rgb(200,217,207)" fill-opacity="0.7767" transform="rotate(209.68 573.00 213.00)" />
  <ellipse cx="395.00" cy="844.00" rx="94.00" ry="83.00" fill="rgb(212,211,191)" fill-opacity="0.7275" transform="rotate(246.35 395.00 844.00)" />
</svg>
