<svg xmlns="http://www.w3.org/2000/svg" width="960" height="1229" viewBox="0 0 960 1229">
  <rect width="100%" height="100%" fill="rgb(132,135,146)"/>
  <rect x="287.50" y="813.50" width="491.00" height="473.00" fill="rgb(0,0,0)" fill-opacity="0.8524" transform="rotate(227.61 533.00 1050.00)" />
  <rect x="682.00" y="1041.00" width="374.00" height="242.00" fill="rgb(18,15,16)" fill-opacity="0.8839" transform="rotate(194.50 869.00 1162.00)" />
  <rect x="209.50" y="-98.00" width="469.00" height="440.00" fill="rgb(213,219,237)" fill-opacity="0.8379" transform="rotate(296.69 444.00 122.00)" />
  <rect x="-14.00" y="1061.00" width="360.00" height="314.00" fill="rgb(13,10,18)" fill-opacity="0.9380" transform="rotate(152.14 166.00 1218.00)" />
  <rect x="267.00" y="884.50" width="52.00" height="121.00" fill="rgb(16,12,18)" fill-opacity="0.8201" transform="rotate(339.00 293.00 945.00)" />
  <rect x="373.00" y="497.50" width="184.00" height="195.00" fill="rgb(23,30,39)" fill-opacity="0.9062" transform="rotate(304.06 465.00 595.00)" />
  <rect x="168.50" y="544.50" width="315.00" height="87.00" fill="rgb(208,194,214)" fill-opacity="0.8264" transform="rotate(65.74 326.00 588.00)" />
  <rect x="121.00" y="134.50" width="460.00" height="467.00" fill="rgb(204,211,225)" fill-opacity="0.8881" transform="rotate(337.24 351.00 368.00)" />
  <rect x="-169.50" y="183.50" width="459.00" height="371.00" fill="rgb(212,215,228)" fill-opacity="0.7442" transform="rotate(99.54 60.00 369.00)" />
  <rect x="-25.50" y="-115.00" width="291.00" height="456.00" fill="rgb(203,209,230)" fill-opacity="0.9352" transform="rotate(287.94 120.00 113.00)" />
  <rect x="549.00" y="32.50" width="312.00" height="475.00" fill="rgb(196,201,217)" fill-opacity="0.8582" transform="rotate(182.92 705.00 270.00)" />
  <rect x="658.50" y="47.50" width="479.00" height="377.00" fill="rgb(189,193,209)" fill-opacity="0.8971" transform="rotate(85.45 898.00 236.00)" />
  <rect x="15.00" y="1036.00" width="56.00" height="58.00" fill="rgb(110,119,124)" fill-opacity="0.8408" transform="rotate(359.50 43.00 1065.00)" />
  <rect x="568.00" y="549.00" width="340.00" height="90.00" fill="rgb(199,200,215)" fill-opacity="0.7000" transform="rotate(357.43 738.00 594.00)" />
  <rect x="188.00" y="709.00" width="138.00" height="52.00" fill="rgb(67,68,70)" fill-opacity="0.9359" transform="rotate(20.01 257.00 735.00)" />
  <rect x="719.50" y="652.00" width="365.00" height="180.00" fill="rgb(191,195,205)" fill-opacity="0.7317" transform="rotate(119.26 902.00 742.00)" />
  <rect x="528.00" y="410.00" width="232.00" height="154.00" fill="rgb(200,201,210)" fill-opacity="0.8686" transform="rotate(266.08 644.00 487.00)" />
  <rect x="859.00" y="813.50" width="28.00" height="283.00" fill="rgb(156,165,178)" fill-opacity="0.8751" transform="rotate(273.29 873.00 955.00)" />
  <rect x="260.00" y="789.50" width="126.00" height="215.00" fill="rgb(30,27,30)" fill-opacity="0.8771" transform="rotate(75.08 323.00 897.00)" />
  <rect x="85.00" y="684.50" width="60.00" height="153.00" fill="rgb(31,34,40)" fill-opacity="0.7488" transform="rotate(28.89 115.00 761.00)" />
  <rect x="481.50" y="376.00" width="55.00" height="240.00" fill="rgb(37,47,55)" fill-opacity="0.8723" transform="rotate(154.14 509.00 496.00)" />
  <rect x="413.00" y="396.50" width="90.00" height="367.00" fill="rgb(44,41,41)" fill-opacity="0.9446" transform="rotate(6.52 458.00 580.00)" />
  <rect x="370.50" y="687.50" width="327.00" height="29.00" fill="rgb(28,35,34)" fill-opacity="0.7922" transform="rotate(72.54 534.00 702.00)" />
  <rect x="111.50" y="514.00" width="295.00" height="102.00" fill="rgb(178,185,196)" fill-opacity="0.8585" transform="rotate(223.10 259.00 565.00)" />
  <rect x="122.50" y="676.50" width="197.00" height="91.00" fill="rgb(74,68,67)" fill-opacity="0.7879" transform="rotate(16.80 221.00 722.00)" />
  <rect x="-156.00" y="480.50" width="380.00" height="57.00" fill="rgb(128,145,163)" fill-opacity="0.7766" transform="rotate(212.53 34.00 509.00)" />
  <rect x="44.50" y="776.00" width="165.00" height="232.00" fill="rgb(163,168,180)" fill-opacity="0.8362" transform="rotate(143.25 127.00 892.00)" />
  <rect x="682.50" y="619.00" width="131.00" height="348.00" fill="rgb(176,181,191)" fill-opacity="0.9251" transform="rotate(89.06 748.00 793.00)" />
  <rect x="187.50" y="558.50" width="91.00" height="113.00" fill="rgb(205,211,207)" fill-opacity="0.8144" transform="rotate(289.37 233.00 615.00)" />
  <rect x="249.50" y="677.50" width="127.00" height="165.00" fill="rgb(100,108,112)" fill-opacity="0.7704" transform="rotate(246.02 313.00 760.00)" />
  <rect x="192.50" y="902.00" width="209.00" height="102.00" fill="rgb(21,20,25)" fill-opacity="0.7002" transform="rotate(274.92 297.00 953.00)" />
  <rect x="821.50" y="755.50" width="125.00" height="225.00" fill="rgb(155,159,176)" fill-opacity="0.8274" transform="rotate(257.60 884.00 868.00)" />
  <rect x="85.50" y="367.50" width="235.00" height="367.00" fill="rgb(189,192,202)" fill-opacity="0.7939" transform="rotate(104.47 203.00 551.00)" />
  <rect x="14.50" y="845.50" width="41.00" height="253.00" fill="rgb(89,104,119)" fill-opacity="0.8681" transform="rotate(141.64 35.00 972.00)" />
  <rect x="338.50" y="765.50" width="271.00" height="49.00" fill="rgb(36,25,32)" fill-opacity="0.8421" transform="rotate(111.06 474.00 790.00)" />
  <rect x="398.00" y="683.50" width="114.00" height="77.00" fill="rgb(59,69,83)" fill-opacity="0.7000" transform="rotate(263.49 455.00 722.00)" />
  <rect x="142.50" y="951.00" width="223.00" height="268.00" fill="rgb(19,17,17)" fill-opacity="0.7743" transform="rotate(132.58 254.00 1085.00)" />
  <rect x="651.50" y="530.00" width="83.00" height="40.00" fill="rgb(122,144,157)" fill-opacity="0.7933" transform="rotate(164.26 693.00 550.00)" />
  <rect x="319.50" y="287.00" width="49.00" height="396.00" fill="rgb(194,196,209)" fill-opacity="0.8242" transform="rotate(231.41 344.00 485.00)" />
  <rect x="445.00" y="668.00" width="94.00" height="62.00" fill="rgb(4,7,17)" fill-opacity="0.8047" transform="rotate(200.96 492.00 699.00)" />
  <rect x="457.50" y="729.00" width="47.00" height="222.00" fill="rgb(40,40,39)" fill-opacity="0.7433" transform="rotate(299.34 481.00 840.00)" />
  <rect x="284.50" y="398.50" width="251.00" height="93.00" fill="rgb(185,195,207)" fill-opacity="0.8444" transform="rotate(180.27 410.00 445.00)" />
  <rect x="47.50" y="831.00" width="179.00" height="50.00" fill="rgb(174,179,173)" fill-opacity="0.9439" transform="rotate(352.63 137.00 856.00)" />
  <rect x="140.50" y="1006.50" width="107.00" height="11.00" fill="rgb(151,157,140)" fill-opacity="0.7180" transform="rotate(6.44 194.00 1012.00)" />
  <rect x="-94.50" y="1016.50" width="197.00" height="47.00" fill="rgb(104,124,133)" fill-opacity="0.9708" transform="rotate(292.10 4.00 1040.00)" />
  <rect x="723.00" y="588.50" width="78.00" height="183.00" fill="rgb(104,112,119)" fill-opacity="0.7351" transform="rotate(105.42 762.00 680.00)" />
  <rect x="410.00" y="627.00" width="56.00" height="98.00" fill="rgb(7,27,0)" fill-opacity="0.8856" transform="rotate(359.97 438.00 676.00)" />
  <rect x="121.00" y="610.00" width="100.00" height="228.00" fill="rgb(72,71,85)" fill-opacity="0.9491" transform="rotate(76.10 171.00 724.00)" />
  <rect x="237.00" y="742.50" width="88.00" height="69.00" fill="rgb(186,183,171)" fill-opacity="0.7695" transform="rotate(260.68 281.00 777.00)" />
  <rect x="189.50" y="596.00" width="249.00" height="228.00" fill="rgb(78,77,76)" fill-opacity="0.7220" transform="rotate(28.19 314.00 710.00)" />
  <rect x="480.00" y="529.50" width="94.00" height="39.00" fill="rgb(47,48,57)" fill-opacity="0.8830" transform="rotate(10.05 527.00 549.00)" />
  <rect x="247.50" y="529.50" width="117.00" height="191.00" fill="rgb(179,186,195)" fill-opacity="0.9276" transform="rotate(111.88 306.00 625.00)" />
  <rect x="-42.50" y="1018.00" width="237.00" height="4.00" fill="rgb(126,134,143)" fill-opacity="0.8813" transform="rotate(344.17 76.00 1020.00)" />
  <rect x="50.00" y="998.50" width="110.00" height="13.00" fill="rgb(139,141,143)" fill-opacity="0.7900" transform="rotate(5.11 105.00 1005.00)" />
  <rect x="447.00" y="476.00" width="104.00" height="270.00" fill="rgb(43,47,53)" fill-opacity="0.8071" transform="rotate(9.56 499.00 611.00)" />
  <rect x="234.00" y="690.00" width="132.00" height="100.00" fill="rgb(117,121,122)" fill-opacity="0.7043" transform="rotate(63.92 300.00 740.00)" />
  <rect x="189.00" y="740.00" width="46.00" height="150.00" fill="rgb(175,168,172)" fill-opacity="0.7744" transform="rotate(79.62 212.00 815.00)" />
  <rect x="540.50" y="833.00" width="123.00" height="56.00" fill="rgb(29,34,44)" fill-opacity="0.8262" transform="rotate(214.58 602.00 861.00)" />
  <rect x="448.50" y="265.00" width="135.00" height="234.00" fill="rgb(206,207,213)" fill-opacity="0.9557" transform="rotate(308.96 516.00 382.00)" />
  <rect x="11.00" y="1035.50" width="32.00" height="175.00" fill="rgb(30,27,30)" fill-opacity="0.8698" transform="rotate(230.84 27.00 1123.00)" />
  <rect x="381.50" y="462.00" width="289.00" height="24.00" fill="rgb(195,198,206)" fill-opacity="0.9800" transform="rotate(51.52 526.00 474.00)" />
  <rect x="589.50" y="641.00" width="21.00" height="36.00" fill="rgb(170,179,194)" fill-opacity="0.9093" transform="rotate(210.57 600.00 659.00)" />
  <rect x="406.00" y="647.00" width="112.00" height="80.00" fill="rgb(28,32,40)" fill-opacity="0.8012" transform="rotate(338.34 462.00 687.00)" />
  <rect x="286.50" y="699.00" width="35.00" height="216.00" fill="rgb(175,175,168)" fill-opacity="0.8915" transform="rotate(275.37 304.00 807.00)" />
  <rect x="371.50" y="741.50" width="251.00" height="79.00" fill="rgb(31,33,37)" fill-opacity="0.7860" transform="rotate(222.54 497.00 781.00)" />
  <rect x="-53.00" y="468.50" width="164.00" height="187.00" fill="rgb(170,178,191)" fill-opacity="0.8733" transform="rotate(155.03 29.00 562.00)" />
  <rect x="682.50" y="875.50" width="57.00" height="81.00" fill="rgb(108,126,138)" fill-opacity="0.8667" transform="rotate(166.79 711.00 916.00)" />
  <rect x="108.00" y="455.50" width="208.00" height="211.00" fill="rgb(180,182,193)" fill-opacity="0.8571" transform="rotate(223.00 212.00 561.00)" />
  <rect x="85.00" y="430.50" width="48.00" height="63.00" fill="rgb(196,197,208)" fill-opacity="0.7630" transform="rotate(160.77 109.00 462.00)" />
  <rect x="172.50" y="967.50" width="79.00" height="45.00" fill="rgb(145,158,156)" fill-opacity="0.7620" transform="rotate(270.19 212.00 990.00)" />
  <rect x="181.50" y="703.50" width="247.00" height="35.00" fill="rgb(81,92,93)" fill-opacity="0.8139" transform="rotate(196.54 305.00 721.00)" />
  <rect x="224.00" y="716.00" width="46.00" height="36.00" fill="rgb(60,71,69)" fill-opacity="0.8953" transform="rotate(317.83 247.00 734.00)" />
  <rect x="789.00" y="631.00" width="106.00" height="74.00" fill="rgb(141,149,169)" fill-opacity="0.8529" transform="rotate(215.67 842.00 668.00)" />
  <rect x="135.50" y="808.50" width="203.00" height="23.00" fill="rgb(189,184,177)" fill-opacity="0.8052" transform="rotate(125.08 237.00 820.00)" />
  <rect x="83.00" y="503.50" width="66.00" height="31.00" fill="rgb(120,131,147)" fill-opacity="0.7246" transform="rotate(15.58 116.00 519.00)" />
  <rect x="29.00" y="478.50" width="160.00" height="45.00" fill="rgb(120,140,154)" fill-opacity="0.9800" transform="rotate(190.31 109.00 501.00)" />
  <rect x="643.00" y="498.50" width="64.00" height="165.00" fill="rgb(180,185,197)" fill-opacity="0.7308" transform="rotate(110.50 675.00 581.00)" />
  <rect x="782.00" y="1000.00" width="132.00" height="186.00" fill="rgb(32,27,34)" fill-opacity="0.7437" transform="rotate(226.75 848.00 1093.00)" />
  <rect x="406.50" y="957.50" width="249.00" height="205.00" fill="rgb(15,14,19)" fill-opacity="0.7000" transform="rotate(357.29 531.00 1060.00)" />
  <rect x="42.00" y="607.50" width="116.00" height="79.00" fill="rgb(143,144,153)" fill-opacity="0.8130" transform="rotate(131.56 100.00 647.00)" />
  <rect x="-14.00" y="821.50" width="50.00" height="191.00" fill="rgb(153,155,161)" fill-opacity="0.8327" transform="rotate(209.07 11.00 917.00)" />
  <rect x="313.50" y="779.50" width="203.00" height="37.00" fill="rgb(30,33,38)" fill-opacity="0.7273" transform="rotate(280.53 415.00 798.00)" />
  <rect x="625.00" y="974.00" width="88.00" height="122.00" fill="rgb(18,15,20)" fill-opacity="0.8836" transform="rotate(45.10 669.00 1035.00)" />
  <rect x="190.50" y="388.00" width="103.00" height="122.00" fill="rgb(191,194,205)" fill-opacity="0.8750" transform="rotate(301.69 242.00 449.00)" />
  <rect x="868.00" y="937.50" width="122.00" height="89.00" fill="rgb(115,119,146)" fill-opacity="0.8389" transform="rotate(43.13 929.00 982.00)" />
  <rect x="117.50" y="968.00" width="111.00" height="42.00" fill="rgb(159,163,153)" fill-opacity="0.9544" transform="rotate(192.21 173.00 989.00)" />
  <rect x="721.00" y="1071.50" width="80.00" height="21.00" fill="rgb(23,19,25)" fill-opacity="0.8711" transform="rotate(222.05 761.00 1082.00)" />
  <rect x="571.00" y="694.00" width="84.00" height="148.00" fill="rgb(182,179,193)" fill-opacity="0.9033" transform="rotate(121.04 613.00 768.00)" />
  <rect x="73.50" y="558.50" width="39.00" height="191.00" fill="rgb(141,149,156)" fill-opacity="0.8707" transform="rotate(200.66 93.00 654.00)" />
  <rect x="405.50" y="773.50" width="27.00" height="45.00" fill="rgb(19,21,25)" fill-opacity="0.7778" transform="rotate(12.14 419.00 796.00)" />
  <rect x="533.50" y="608.50" width="119.00" height="33.00" fill="rgb(188,189,213)" fill-opacity="0.7374" transform="rotate(312.25 593.00 625.00)" />
  <rect x="612.50" y="642.00" width="95.00" height="62.00" fill="rgb(114,125,142)" fill-opacity="0.8658" transform="rotate(274.54 660.00 673.00)" />
  <rect x="870.00" y="1109.50" width="114.00" height="221.00" fill="rgb(16,16,20)" fill-opacity="0.8285" transform="rotate(69.45 927.00 1220.00)" />
  <rect x="109.00" y="944.50" width="98.00" height="21.00" fill="rgb(88,100,90)" fill-opacity="0.8672" transform="rotate(160.33 158.00 955.00)" />
  <rect x="433.50" y="755.00" width="41.00" height="36.00" fill="rgb(169,167,163)" fill-opacity="0.7000" transform="rotate(62.91 454.00 773.00)" />
  <rect x="795.50" y="892.50" width="41.00" height="135.00" fill="rgb(171,175,184)" fill-opacity="0.7000" transform="rotate(112.29 816.00 960.00)" />
  <rect x="702.00" y="439.00" width="126.00" height="58.00" fill="rgb(167,176,190)" fill-opacity="0.8618" transform="rotate(243.33 765.00 468.00)" />
</svg>
