<svg xmlns="http://www.w3.org/2000/svg" width="1280" height="860" viewBox="0 0 1280 860">
  <rect width="100%" height="100%" fill="rgb(191,193,182)"/>
  <circle cx="649.00" cy="842.00" r="138.00" fill="rgb(232,221,211)" fill-opacity="0.8331" />
  <circle cx="273.00" cy="530.00" r="88.00" fill="rgb(31,76,131)" fill-opacity="0.7563" />
  <circle cx="975.00" cy="683.00" r="464.00" fill="rgb(255,255,217)" fill-opacity="0.7459" />
  <circle cx="352.00" cy="295.00" r="428.00" fill="rgb(254,233,201)" fill-opacity="0.8084" />
  <circle cx="445.00" cy="387.00" r="164.00" fill="rgb(159,158,160)" fill-opacity="0.8191" />
  <circle cx="723.00" cy="794.00" r="403.00" fill="rgb(239,230,201)" fill-opacity="0.8285" />
  <circle cx="1275.00" cy="523.00" r="45.00" fill="rgb(17,49,82)" fill-opacity="0.8459" />
  <circle cx="444.00" cy="247.00" r="93.00" fill="rgb(14,53,102)" fill-opacity="0.8244" />
  <circle cx="765.00" cy="699.00" r="199.00" fill="rgb(146,152,168)" fill-opacity="0.9399" />
  <circle cx="1174.00" cy="693.00" r="113.00" fill="rgb(26,61,82)" fill-opacity="0.7385" />
  <circle cx="1180.00" cy="657.00" r="70.00" fill="rgb(215,229,214)" fill-opacity="0.9376" />
  <circle cx="1006.00" cy="769.00" r="73.00" fill="rgb(48,67,100)" fill-opacity="0.8099" />
  <circle cx="588.00" cy="791.00" r="23.00" fill="rgb(45,97,134)" fill-opacity="0.9545" />
  <circle cx="253.00" cy="493.00" r="121.00" fill="rgb(42,81,108)" fill-opacity="0.7970" />
  <circle cx="274.00" cy="416.00" r="86.00" fill="rgb(199,220,211)" fill-opacity="0.9179" />
  <circle cx="364.00" cy="122.00" r="87.00" fill="rgb(249,240,223)" fill-opacity="0.9136" />
  <circle cx="692.00" cy="601.00" r="40.00" fill="rgb(88,98,96)" fill-opacity="0.9185" />
  <circle cx="552.00" cy="170.00" r="66.00" fill="rgb(207,204,212)" fill-opacity="0.9179" />
  <circle cx="1265.00" cy="844.00" r="68.00" fill="rgb(180,193,166)" fill-opacity="0.8295" />
  <circle cx="383.00" cy="460.00" r="72.00" fill="rgb(23,93,127)" fill-opacity="0.8538" />
  <circle cx="130.00" cy="829.00" r="116.00" fill="rgb(36,63,104)" fill-opacity="0.8407" />
  <circle cx="388.00" cy="123.00" r="90.00" fill="rgb(248,242,226)" fill-opacity="0.9800" />
  <circle cx="476.00" cy="442.00" r="66.00" fill="rgb(47,79,104)" fill-opacity="0.8050" />
  <circle cx="136.00" cy="543.00" r="114.00" fill="rgb(55,55,55)" fill-opacity="0.8736" />
  <circle cx="1.00" cy="190.00" r="162.00" fill="rgb(211,192,150)" fill-opacity="0.7593" />
  <circle cx="452.00" cy="546.00" r="67.00" fill="rgb(255,252,233)" fill-opacity="0.9708" />
  <circle cx="428.00" cy="773.00" r="21.00" fill="rgb(63,80,102)" fill-opacity="0.9112" />
  <circle cx="27.00" cy="621.00" r="128.00" fill="rgb(235,223,199)" fill-opacity="0.9127" />
  <circle cx="870.00" cy="702.00" r="61.00" fill="rgb(217,237,225)" fill-opacity="0.8671" />
  <circle cx="407.00" cy="251.00" r="59.00" fill="rgb(21,54,82)" fill-opacity="0.8848" />
  <circle cx="194.00" cy="167.00" r="76.00" fill="rgb(240,227,208)" fill-opacity="0.8392" />
  <circle cx="870.00" cy="685.00" r="32.00" fill="rgb(250,248,227)" fill-opacity="0.7000" />
  <circle cx="1277.00" cy="754.00" r="73.00" fill="rgb(43,69,103)" fill-opacity="0.8321" />
  <circle cx="1107.00" cy="718.00" r="65.00" fill="rgb(248,245,226)" fill-opacity="0.7598" />
  <circle cx="134.00" cy="515.00" r="143.00" fill="rgb(152,155,156)" fill-opacity="0.8254" />
  <circle cx="989.00" cy="546.00" r="71.00" fill="rgb(139,153,132)" fill-opacity="0.8993" />
  <circle cx="1230.00" cy="545.00" r="28.00" fill="rgb(48,115,157)" fill-opacity="0.9452" />
  <circle cx="123.00" cy="557.00" r="105.00" fill="rgb(187,197,185)" fill-opacity="0.7979" />
  <circle cx="178.00" cy="679.00" r="12.00" fill="rgb(188,208,196)" fill-opacity="0.7408" />
  <circle cx="841.00" cy="843.00" r="68.00" fill="rgb(236,233,200)" fill-opacity="0.7019" />
  <circle cx="828.00" cy="800.00" r="39.00" fill="rgb(230,171,145)" fill-opacity="0.7373" />
  <circle cx="1044.00" cy="708.00" r="43.00" fill="rgb(43,76,120)" fill-opacity="0.7093" />
  <circle cx="104.00" cy="583.00" r="17.00" fill="rgb(42,68,101)" fill-opacity="0.7959" />
  <circle cx="1071.00" cy="594.00" r="32.00" fill="rgb(255,248,236)" fill-opacity="0.7037" />
  <circle cx="261.00" cy="509.00" r="58.00" fill="rgb(38,63,94)" fill-opacity="0.7213" />
  <circle cx="1205.00" cy="440.00" r="40.00" fill="rgb(246,249,227)" fill-opacity="0.8741" />
  <circle cx="1112.00" cy="631.00" r="30.00" fill="rgb(199,229,219)" fill-opacity="0.7826" />
  <circle cx="754.00" cy="794.00" r="36.00" fill="rgb(235,186,153)" fill-opacity="0.7693" />
  <circle cx="1076.00" cy="802.00" r="30.00" fill="rgb(29,66,88)" fill-opacity="0.8929" />
  <circle cx="1028.00" cy="770.00" r="34.00" fill="rgb(255,252,229)" fill-opacity="0.7570" />
  <circle cx="804.00" cy="755.00" r="21.00" fill="rgb(31,61,89)" fill-opacity="0.7701" />
  <circle cx="468.00" cy="453.00" r="39.00" fill="rgb(35,71,94)" fill-opacity="0.8242" />
  <circle cx="260.00" cy="750.00" r="56.00" fill="rgb(189,211,198)" fill-opacity="0.9248" />
  <circle cx="503.00" cy="849.00" r="54.00" fill="rgb(26,45,103)" fill-opacity="0.8440" />
  <circle cx="57.00" cy="590.00" r="30.00" fill="rgb(38,65,94)" fill-opacity="0.8336" />
  <circle cx="163.00" cy="729.00" r="13.00" fill="rgb(195,212,194)" fill-opacity="0.8420" />
  <circle cx="1223.00" cy="692.00" r="27.00" fill="rgb(51,101,144)" fill-opacity="0.7404" />
  <circle cx="562.00" cy="739.00" r="54.00" fill="rgb(18,47,77)" fill-opacity="0.8370" />
  <circle cx="106.00" cy="676.00" r="58.00" fill="rgb(237,235,203)" fill-opacity="0.8151" />
  <circle cx="1178.00" cy="581.00" r="33.00" fill="rgb(39,65,90)" fill-opacity="0.7360" />
  <circle cx="663.00" cy="812.00" r="32.00" fill="rgb(23,56,89)" fill-opacity="0.8601" />
  <circle cx="551.00" cy="451.00" r="38.00" fill="rgb(249,237,215)" fill-opacity="0.7659" />
  <circle cx="560.00" cy="371.00" r="70.00" fill="rgb(255,247,225)" fill-opacity="0.8409" />
  <circle cx="679.00" cy="601.00" r="84.00" fill="rgb(130,133,126)" fill-opacity="0.8675" />
  <circle cx="203.00" cy="837.00" r="48.00" fill="rgb(40,54,74)" fill-opacity="0.8634" />
  <circle cx="314.00" cy="307.00" r="76.00" fill="rgb(244,237,218)" fill-opacity="0.7312" />
  <circle cx="1164.00" cy="683.00" r="23.00" fill="rgb(214,228,213)" fill-opacity="0.7755" />
  <circle cx="497.00" cy="310.00" r="29.00" fill="rgb(55,78,110)" fill-opacity="0.9149" />
  <circle cx="492.00" cy="739.00" r="52.00" fill="rgb(213,227,212)" fill-opacity="0.7389" />
  <circle cx="1121.00" cy="670.00" r="20.00" fill="rgb(33,70,97)" fill-opacity="0.9237" />
  <circle cx="293.00" cy="673.00" r="71.00" fill="rgb(213,222,210)" fill-opacity="0.7038" />
  <circle cx="435.00" cy="859.00" r="52.00" fill="rgb(172,165,191)" fill-opacity="0.8956" />
  <circle cx="146.00" cy="474.00" r="45.00" fill="rgb(41,74,109)" fill-opacity="0.8952" />
  <circle cx="1209.00" cy="623.00" r="39.00" fill="rgb(230,224,198)" fill-opacity="0.9062" />
  <circle cx="167.00" cy="480.00" r="59.00" fill="rgb(61,106,133)" fill-opacity="0.8356" />
  <circle cx="1070.00" cy="500.00" r="51.00" fill="rgb(185,178,160)" fill-opacity="0.9145" />
  <circle cx="408.00" cy="673.00" r="41.00" fill="rgb(224,225,207)" fill-opacity="0.7226" />
  <circle cx="98.00" cy="604.00" r="43.00" fill="rgb(54,57,107)" fill-opacity="0.8217" />
  <circle cx="589.00" cy="539.00" r="51.00" fill="rgb(146,151,135)" fill-opacity="0.7308" />
  <circle cx="381.00" cy="260.00" r="82.00" fill="rgb(44,86,115)" fill-opacity="0.7952" />
  <circle cx="1235.00" cy="855.00" r="56.00" fill="rgb(213,218,195)" fill-opacity="0.9709" />
  <circle cx="1123.00" cy="788.00" r="28.00" fill="rgb(56,101,132)" fill-opacity="0.8207" />
  <circle cx="695.00" cy="660.00" r="25.00" fill="rgb(221,234,224)" fill-opacity="0.9601" />
  <circle cx="427.00" cy="235.00" r="17.00" fill="rgb(25,59,96)" fill-opacity="0.8076" />
  <circle cx="311.00" cy="450.00" r="32.00" fill="rgb(202,212,203)" fill-opacity="0.9056" />
  <circle cx="705.00" cy="698.00" r="39.00" fill="rgb(21,51,86)" fill-opacity="0.7024" />
  <circle cx="804.00" cy="699.00" r="45.00" fill="rgb(229,242,225)" fill-opacity="0.7000" />
  <circle cx="165.00" cy="682.00" r="58.00" fill="rgb(236,235,218)" fill-opacity="0.7229" />
  <circle cx="134.00" cy="313.00" r="31.00" fill="rgb(240,236,210)" fill-opacity="0.8521" />
  <circle cx="700.00" cy="837.00" r="16.00" fill="rgb(11,47,81)" fill-opacity="0.7842" />
  <circle cx="749.00" cy="859.00" r="12.00" fill="rgb(255,240,229)" fill-opacity="0.7523" />
  <circle cx="473.00" cy="349.00" r="19.00" fill="rgb(34,64,98)" fill-opacity="0.9238" />
  <circle cx="597.00" cy="682.00" r="61.00" fill="rgb(234,232,209)" fill-opacity="0.7432" />
  <circle cx="1207.00" cy="559.00" r="31.00" fill="rgb(44,80,109)" fill-opacity="0.9152" />
  <circle cx="382.00" cy="639.00" r="80.00" fill="rgb(255,246,223)" fill-opacity="0.7352" />
  <circle cx="343.00" cy="310.00" r="31.00" fill="rgb(247,238,243)" fill-opacity="0.7452" />
  <circle cx="1255.00" cy="624.00" r="27.00" fill="rgb(237,232,221)" fill-opacity="0.8275" />
  <circle cx="750.00" cy="810.00" r="17.00" fill="rgb(230,220,201)" fill-opacity="0.8624" />
  <circle cx="1082.00" cy="634.00" r="39.00" fill="rgb(229,224,209)" fill-opacity="0.8226" />
  <circle cx="609.00" cy="798.00" r="29.00" fill="rgb(44,62,85)" fill-opacity="0.8221" />
  <circle cx="1004.00" cy="682.00" r="25.00" fill="rgb(227,237,229)" fill-opacity="0.8590" />
  <circle cx="255.00" cy="859.00" r="84.00" fill="rgb(33,80,107)" fill-opacity="0.8640" />
  <circle cx="684.00" cy="783.00" r="36.00" fill="rgb(207,173,139)" fill-opacity="0.8821" />
  <circle cx="473.00" cy="337.00" r="46.00" fill="rgb(34,69,102)" fill-opacity="0.8102" />
  <circle cx="1158.00" cy="513.00" r="45.00" fill="rgb(255,253,234)" fill-opacity="0.7535" />
  <circle cx="353.00" cy="789.00" r="58.00" fill="rgb(216,233,214)" fill-opacity="0.9723" />
  <circle cx="159.00" cy="816.00" r="48.00" fill="rgb(28,65,92)" fill-opacity="0.7450" />
  <circle cx="528.00" cy="731.00" r="24.00" fill="rgb(37,69,108)" fill-opacity="0.7810" />
  <circle cx="497.00" cy="387.00" r="18.00" fill="rgb(43,113,154)" fill-opacity="0.9087" />
  <circle cx="538.00" cy="785.00" r="12.00" fill="rgb(255,254,232)" fill-opacity="0.8086" />
  <circle cx="314.00" cy="629.00" r="41.00" fill="rgb(249,244,224)" fill-opacity="0.8068" />
  <circle cx="621.00" cy="633.00" r="35.00" fill="rgb(250,244,220)" fill-opacity="0.8621" />
</svg>
