<svg xmlns="http://www.w3.org/2000/svg" width="500" height="745" viewBox="0 0 500 745">
  <rect width="100%" height="100%" fill="rgb(86,72,53)"/>
  <circle cx="241.00" cy="330.00" r="87.00" fill="rgb(229,187,68)" fill-opacity="0.7378" />
  <ellipse cx="459.00" cy="126.00" rx="131.00" ry="132.00" fill="rgb(156,166,112)" fill-opacity="0.8274" transform="rotate(143.22 459.00 126.00)" />
  <rect x="257.00" y="132.00" width="78.00" height="246.00" fill="rgb(50,31,35)" fill-opacity="0.8644" transform="rotate(80.87 296.00 255.00)" />
  <circle cx="137.00" cy="64.00" r="131.00" fill="rgb(103,132,77)" fill-opacity="0.7457" />
  <circle cx="224.00" cy="180.00" r="81.00" fill="rgb(184,139,63)" fill-opacity="0.8070" />
  <circle cx="499.00" cy="664.00" r="249.00" fill="rgb(36,16,46)" fill-opacity="0.7843" />
  <rect x="172.50" y="359.50" width="63.00" height="59.00" fill="rgb(223,175,84)" fill-opacity="0.8422" transform="rotate(61.48 204.00 389.00)" />
  <ellipse cx="4.00" cy="682.00" rx="287.00" ry="155.00" fill="rgb(7,5,40)" fill-opacity="0.9600" transform="rotate(219.71 4.00 682.00)" />
  <rect x="434.00" y="151.00" width="78.00" height="190.00" fill="rgb(81,87,69)" fill-opacity="0.8595" transform="rotate(265.54 473.00 246.00)" />
  <circle cx="204.00" cy="671.00" r="248.00" fill="rgb(41,22,37)" fill-opacity="0.8116" />
  <rect x="219.00" y="-30.00" width="128.00" height="146.00" fill="rgb(103,121,73)" fill-opacity="0.7476" transform="rotate(47.97 283.00 43.00)" />
  <ellipse cx="75.00" cy="467.00" rx="21.00" ry="217.00" fill="rgb(75,48,48)" fill-opacity="0.8770" transform="rotate(211.31 75.00 467.00)" />
  <ellipse cx="68.00" cy="99.00" rx="110.00" ry="97.00" fill="rgb(133,140,85)" fill-opacity="0.8046" transform="rotate(83.27 68.00 99.00)" />
  <circle cx="124.00" cy="141.00" r="43.00" fill="rgb(164,166,111)" fill-opacity="0.9419" />
  <ellipse cx="134.00" cy="642.00" rx="24.00" ry="37.00" fill="rgb(121,76,49)" fill-opacity="0.7568" transform="rotate(20.74 134.00 642.00)" />
  <circle cx="201.00" cy="620.00" r="69.00" fill="rgb(187,124,52)" fill-opacity="0.9101" />
  <rect x="303.50" y="362.50" width="47.00" height="127.00" fill="rgb(31,50,39)" fill-opacity="0.9415" transform="rotate(46.26 327.00 426.00)" />
  <circle cx="77.00" cy="685.00" r="74.00" fill="rgb(24,12,33)" fill-opacity="0.7212" />
  <ellipse cx="288.00" cy="656.00" rx="168.00" ry="110.00" fill="rgb(31,15,29)" fill-opacity="0.7319" transform="rotate(316.47 288.00 656.00)" />
  <rect x="253.00" y="127.00" width="120.00" height="64.00" fill="rgb(16,0,19)" fill-opacity="0.7796" transform="rotate(56.48 313.00 159.00)" />
  <rect x="157.50" y="409.50" width="103.00" height="37.00" fill="rgb(88,72,40)" fill-opacity="0.9333" transform="rotate(31.84 209.00 428.00)" />
  <ellipse cx="246.00" cy="70.00" rx="148.00" ry="28.00" fill="rgb(136,139,79)" fill-opacity="0.7795" transform="rotate(184.13 246.00 70.00)" />
  <rect x="50.50" y="406.00" width="91.00" height="148.00" fill="rgb(54,37,43)" fill-opacity="0.8327" transform="rotate(36.73 96.00 480.00)" />
  <rect x="79.00" y="339.50" width="122.00" height="47.00" fill="rgb(45,26,35)" fill-opacity="0.8151" transform="rotate(130.27 140.00 363.00)" />
  <rect x="131.00" y="614.50" width="124.00" height="37.00" fill="rgb(134,88,42)" fill-opacity="0.7000" transform="rotate(3.83 193.00 633.00)" />
  <rect x="102.00" y="581.50" width="188.00" height="43.00" fill="rgb(181,135,57)" fill-opacity="0.8321" transform="rotate(22.04 196.00 603.00)" />
  <ellipse cx="55.00" cy="507.00" rx="84.00" ry="107.00" fill="rgb(54,40,49)" fill-opacity="0.9053" transform="rotate(344.23 55.00 507.00)" />
  <ellipse cx="392.00" cy="21.00" rx="66.00" ry="120.00" fill="rgb(121,131,79)" fill-opacity="0.7220" transform="rotate(271.04 392.00 21.00)" />
  <rect x="313.00" y="241.50" width="114.00" height="203.00" fill="rgb(69,42,31)" fill-opacity="0.7433" transform="rotate(167.25 370.00 343.00)" />
  <rect x="201.50" y="345.50" width="41.00" height="33.00" fill="rgb(239,208,111)" fill-opacity="0.7564" transform="rotate(27.20 222.00 362.00)" />
  <rect x="131.50" y="579.00" width="23.00" height="76.00" fill="rgb(137,101,48)" fill-opacity="0.7331" transform="rotate(204.62 143.00 617.00)" />
  <circle cx="488.00" cy="306.00" r="75.00" fill="rgb(117,112,68)" fill-opacity="0.8061" />
  <circle cx="215.00" cy="161.00" r="66.00" fill="rgb(219,177,87)" fill-opacity="0.7327" />
  <circle cx="256.00" cy="84.00" r="28.00" fill="rgb(82,43,24)" fill-opacity="0.8415" />
  <rect x="427.00" y="284.50" width="40.00" height="81.00" fill="rgb(134,125,69)" fill-opacity="0.9251" transform="rotate(72.95 447.00 325.00)" />
  <circle cx="312.00" cy="740.00" r="59.00" fill="rgb(10,5,26)" fill-opacity="0.8580" />
  <ellipse cx="221.00" cy="598.00" rx="15.00" ry="47.00" fill="rgb(180,133,58)" fill-opacity="0.9571" transform="rotate(167.21 221.00 598.00)" />
  <ellipse cx="10.00" cy="496.00" rx="66.00" ry="21.00" fill="rgb(90,59,57)" fill-opacity="0.8861" transform="rotate(314.84 10.00 496.00)" />
  <rect x="113.50" y="77.50" width="59.00" height="73.00" fill="rgb(141,142,92)" fill-opacity="0.7800" transform="rotate(123.26 143.00 114.00)" />
  <circle cx="282.00" cy="35.00" r="41.00" fill="rgb(109,128,79)" fill-opacity="0.8087" />
  <ellipse cx="50.00" cy="129.00" rx="158.00" ry="40.00" fill="rgb(155,159,105)" fill-opacity="0.7350" transform="rotate(354.03 50.00 129.00)" />
  <ellipse cx="27.00" cy="392.00" rx="88.00" ry="79.00" fill="rgb(134,82,57)" fill-opacity="0.9163" transform="rotate(7.03 27.00 392.00)" />
  <rect x="11.50" y="160.50" width="101.00" height="77.00" fill="rgb(85,90,61)" fill-opacity="0.7622" transform="rotate(187.85 62.00 199.00)" />
  <rect x="198.00" y="519.50" width="134.00" height="65.00" fill="rgb(29,18,40)" fill-opacity="0.7146" transform="rotate(29.05 265.00 552.00)" />
  <rect x="415.00" y="145.50" width="50.00" height="47.00" fill="rgb(176,175,107)" fill-opacity="0.8618" transform="rotate(62.47 440.00 169.00)" />
  <rect x="3.50" y="286.50" width="45.00" height="189.00" fill="rgb(118,88,44)" fill-opacity="0.8404" transform="rotate(42.20 26.00 381.00)" />
  <rect x="289.00" y="225.50" width="50.00" height="45.00" fill="rgb(14,3,4)" fill-opacity="0.7390" transform="rotate(192.24 314.00 248.00)" />
  <rect x="196.00" y="325.50" width="92.00" height="49.00" fill="rgb(253,202,108)" fill-opacity="0.9277" transform="rotate(259.57 242.00 350.00)" />
  <circle cx="71.00" cy="617.00" r="46.00" fill="rgb(29,15,40)" fill-opacity="0.8173" />
  <rect x="96.50" y="504.50" width="53.00" height="129.00" fill="rgb(85,56,42)" fill-opacity="0.8493" transform="rotate(299.60 123.00 569.00)" />
  <ellipse cx="393.00" cy="694.00" rx="120.00" ry="71.00" fill="rgb(5,2,21)" fill-opacity="0.7484" transform="rotate(222.92 393.00 694.00)" />
  <rect x="278.50" y="566.50" width="61.00" height="157.00" fill="rgb(65,29,27)" fill-opacity="0.8662" transform="rotate(58.16 309.00 645.00)" />
  <circle cx="243.00" cy="357.00" r="48.00" fill="rgb(229,191,101)" fill-opacity="0.8914" />
  <rect x="70.00" y="191.50" width="138.00" height="21.00" fill="rgb(84,80,55)" fill-opacity="0.9250" transform="rotate(2.08 139.00 202.00)" />
  <rect x="279.00" y="174.50" width="48.00" height="77.00" fill="rgb(41,24,31)" fill-opacity="0.7707" transform="rotate(221.42 303.00 213.00)" />
  <circle cx="220.00" cy="415.00" r="21.00" fill="rgb(118,90,36)" fill-opacity="0.8796" />
  <ellipse cx="140.00" cy="396.00" rx="35.00" ry="3.00" fill="rgb(47,26,29)" fill-opacity="0.8954" transform="rotate(117.60 140.00 396.00)" />
  <rect x="277.50" y="592.00" width="77.00" height="34.00" fill="rgb(105,53,23)" fill-opacity="0.7647" transform="rotate(175.61 316.00 609.00)" />
  <rect x="275.00" y="398.00" width="66.00" height="120.00" fill="rgb(31,15,34)" fill-opacity="0.7224" transform="rotate(160.59 308.00 458.00)" />
  <circle cx="389.00" cy="393.00" r="25.00" fill="rgb(14,0,20)" fill-opacity="0.7859" />
  <rect x="89.50" y="407.00" width="81.00" height="52.00" fill="rgb(52,39,48)" fill-opacity="0.7797" transform="rotate(139.41 130.00 433.00)" />
  <circle cx="281.00" cy="512.00" r="46.00" fill="rgb(28,20,37)" fill-opacity="0.8728" />
  <rect x="130.50" y="585.50" width="75.00" height="31.00" fill="rgb(168,115,58)" fill-opacity="0.9135" transform="rotate(135.11 168.00 601.00)" />
  <circle cx="123.00" cy="331.00" r="28.00" fill="rgb(90,73,43)" fill-opacity="0.7062" />
  <rect x="227.00" y="123.00" width="34.00" height="110.00" fill="rgb(157,114,35)" fill-opacity="0.7079" transform="rotate(213.73 244.00 178.00)" />
  <circle cx="378.00" cy="209.00" r="34.00" fill="rgb(48,75,59)" fill-opacity="0.7497" />
  <ellipse cx="407.00" cy="240.00" rx="37.00" ry="113.00" fill="rgb(73,91,67)" fill-opacity="0.7421" transform="rotate(148.68 407.00 240.00)" />
  <circle cx="343.00" cy="311.00" r="36.00" fill="rgb(41,19,27)" fill-opacity="0.7399" />
  <circle cx="122.00" cy="404.00" r="39.00" fill="rgb(45,31,44)" fill-opacity="0.9151" />
  <rect x="236.00" y="278.00" width="10.00" height="62.00" fill="rgb(206,175,77)" fill-opacity="0.7183" transform="rotate(339.16 241.00 309.00)" />
  <rect x="352.00" y="117.00" width="80.00" height="26.00" fill="rgb(152,158,104)" fill-opacity="0.8059" transform="rotate(33.22 392.00 130.00)" />
  <rect x="152.50" y="477.50" width="41.00" height="87.00" fill="rgb(36,24,41)" fill-opacity="0.8928" transform="rotate(101.77 173.00 521.00)" />
  <circle cx="27.00" cy="377.00" r="66.00" fill="rgb(107,67,45)" fill-opacity="0.8871" />
  <rect x="136.00" y="140.50" width="92.00" height="13.00" fill="rgb(124,85,54)" fill-opacity="0.8143" transform="rotate(106.83 182.00 147.00)" />
  <rect x="297.50" y="388.00" width="19.00" height="8.00" fill="rgb(92,51,33)" fill-opacity="0.9058" transform="rotate(280.96 307.00 392.00)" />
  <rect x="141.50" y="551.00" width="39.00" height="70.00" fill="rgb(173,123,64)" fill-opacity="0.8380" transform="rotate(333.15 161.00 586.00)" />
  <ellipse cx="490.00" cy="419.00" rx="47.00" ry="40.00" fill="rgb(150,84,76)" fill-opacity="0.8271" transform="rotate(59.18 490.00 419.00)" />
  <ellipse cx="251.00" cy="616.00" rx="43.00" ry="29.00" fill="rgb(116,53,44)" fill-opacity="0.7869" transform="rotate(65.28 251.00 616.00)" />
  <circle cx="190.00" cy="291.00" r="28.00" fill="rgb(52,24,30)" fill-opacity="0.7740" />
  <rect x="205.50" y="284.00" width="101.00" height="28.00" fill="rgb(157,114,44)" fill-opacity="0.7596" transform="rotate(168.30 256.00 298.00)" />
  <rect x="158.00" y="128.00" width="38.00" height="120.00" fill="rgb(56,24,24)" fill-opacity="0.7193" transform="rotate(181.62 177.00 188.00)" />
  <rect x="171.00" y="164.50" width="126.00" height="47.00" fill="rgb(163,122,59)" fill-opacity="0.9008" transform="rotate(312.41 234.00 188.00)" />
  <rect x="440.50" y="163.00" width="23.00" height="50.00" fill="rgb(152,150,94)" fill-opacity="0.8016" transform="rotate(231.50 452.00 188.00)" />
  <circle cx="166.00" cy="225.00" r="26.00" fill="rgb(65,29,37)" fill-opacity="0.7336" />
  <circle cx="229.00" cy="435.00" r="10.00" fill="rgb(80,61,27)" fill-opacity="0.8397" />
  <circle cx="286.00" cy="103.00" r="27.00" fill="rgb(37,20,24)" fill-opacity="0.7883" />
  <rect x="216.00" y="583.00" width="36.00" height="50.00" fill="rgb(151,104,53)" fill-opacity="0.8240" transform="rotate(178.77 234.00 608.00)" />
  <circle cx="256.00" cy="681.00" r="32.00" fill="rgb(41,19,31)" fill-opacity="0.7000" />
  <rect x="133.50" y="284.00" width="93.00" height="44.00" fill="rgb(56,30,29)" fill-opacity="0.7521" transform="rotate(324.32 180.00 306.00)" />
  <rect x="113.50" y="256.50" width="37.00" height="59.00" fill="rgb(104,113,85)" fill-opacity="0.7993" transform="rotate(74.69 132.00 286.00)" />
  <rect x="227.00" y="401.50" width="72.00" height="23.00" fill="rgb(125,78,40)" fill-opacity="0.8336" transform="rotate(165.11 263.00 413.00)" />
  <ellipse cx="451.00" cy="268.00" rx="39.00" ry="94.00" fill="rgb(74,84,67)" fill-opacity="0.9125" transform="rotate(270.38 451.00 268.00)" />
  <circle cx="315.00" cy="669.00" r="33.00" fill="rgb(15,7,26)" fill-opacity="0.8315" />
  <circle cx="460.00" cy="538.00" r="79.00" fill="rgb(35,30,50)" fill-opacity="0.8574" />
  <ellipse cx="135.00" cy="81.00" rx="19.00" ry="37.00" fill="rgb(141,149,89)" fill-opacity="0.7438" transform="rotate(264.65 135.00 81.00)" />
  <rect x="186.50" y="167.50" width="69.00" height="51.00" fill="rgb(204,162,81)" fill-opacity="0.9124" transform="rotate(336.63 221.00 193.00)" />
  <rect x="-20.50" y="440.50" width="43.00" height="43.00" fill="rgb(80,60,61)" fill-opacity="0.9187" transform="rotate(89.27 1.00 462.00)" />
  <circle cx="499.00" cy="488.00" r="48.00" fill="rgb(91,66,65)" fill-opacity="0.7997" />
  <ellipse cx="449.00" cy="117.00" rx="33.00" ry="54.00" fill="rgb(152,152,97)" fill-opacity="0.8788" transform="rotate(330.60 449.00 117.00)" />
  <rect x="98.00" y="332.50" width="26.00" height="55.00" fill="rgb(105,73,32)" fill-opacity="0.8367" transform="rotate(203.73 111.00 360.00)" />
  <circle cx="17.00" cy="175.00" r="28.00" fill="rgb(96,95,67)" fill-opacity="0.8562" />
  <circle cx="463.00" cy="326.00" r="42.00" fill="rgb(129,110,70)" fill-opacity="0.7299" />
  <circle cx="59.00" cy="383.00" r="49.00" fill="rgb(144,98,41)" fill-opacity="0.7288" />
  <circle cx="214.00" cy="141.00" r="33.00" fill="rgb(218,176,85)" fill-opacity="0.7287" />
  <rect x="273.50" y="214.00" width="73.00" height="74.00" fill="rgb(51,25,31)" fill-opacity="0.7706" transform="rotate(48.05 310.00 251.00)" />
  <ellipse cx="402.00" cy="538.00" rx="35.00" ry="59.00" fill="rgb(27,15,35)" fill-opacity="0.9427" transform="rotate(194.84 402.00 538.00)" />
  <circle cx="235.00" cy="598.00" r="27.00" fill="rgb(186,140,61)" fill-opacity="0.7000" />
  <ellipse cx="123.00" cy="137.00" rx="20.00" ry="52.00" fill="rgb(163,165,110)" fill-opacity="0.8120" transform="rotate(72.94 123.00 137.00)" />
  <ellipse cx="120.00" cy="323.00" rx="22.00" ry="19.00" fill="rgb(66,47,28)" fill-opacity="0.7292" transform="rotate(141.20 120.00 323.00)" />
  <circle cx="265.00" cy="121.00" r="12.00" fill="rgb(137,93,42)" fill-opacity="0.7435" />
  <ellipse cx="31.00" cy="379.00" rx="42.00" ry="41.00" fill="rgb(113,72,45)" fill-opacity="0.7927" transform="rotate(2.40 31.00 379.00)" />
  <rect x="39.00" y="-21.00" width="108.00" height="58.00" fill="rgb(95,115,71)" fill-opacity="0.7000" transform="rotate(349.15 93.00 8.00)" />
  <ellipse cx="72.00" cy="500.00" rx="17.00" ry="51.00" fill="rgb(58,40,49)" fill-opacity="0.7433" transform="rotate(213.07 72.00 500.00)" />
  <rect x="172.00" y="637.50" width="28.00" height="63.00" fill="rgb(64,34,33)" fill-opacity="0.7000" transform="rotate(239.16 186.00 669.00)" />
  <ellipse cx="136.00" cy="660.00" rx="23.00" ry="13.00" fill="rgb(119,68,38)" fill-opacity="0.9275" transform="rotate(43.72 136.00 660.00)" />
  <circle cx="153.00" cy="563.00" r="16.00" fill="rgb(206,165,83)" fill-opacity="0.7415" />
  <rect x="11.50" y="533.50" width="51.00" height="29.00" fill="rgb(44,32,49)" fill-opacity="0.7591" transform="rotate(71.07 37.00 548.00)" />
  <rect x="-10.00" y="385.50" width="30.00" height="65.00" fill="rgb(56,48,55)" fill-opacity="0.9550" transform="rotate(335.79 5.00 418.00)" />
  <ellipse cx="469.00" cy="414.00" rx="33.00" ry="41.00" fill="rgb(89,56,52)" fill-opacity="0.7874" transform="rotate(295.78 469.00 414.00)" />
  <rect x="209.50" y="68.50" width="19.00" height="39.00" fill="rgb(102,63,20)" fill-opacity="0.9171" transform="rotate(253.31 219.00 88.00)" />
  <circle cx="343.00" cy="556.00" r="34.00" fill="rgb(21,15,38)" fill-opacity="0.8309" />
  <ellipse cx="265.00" cy="52.00" rx="30.00" ry="12.00" fill="rgb(124,134,89)" fill-opacity="0.9367" transform="rotate(164.85 265.00 52.00)" />
  <ellipse cx="159.00" cy="635.00" rx="15.00" ry="26.00" fill="rgb(165,126,55)" fill-opacity="0.7605" transform="rotate(277.78 159.00 635.00)" />
  <ellipse cx="391.00" cy="11.00" rx="53.00" ry="21.00" fill="rgb(87,107,66)" fill-opacity="0.7000" transform="rotate(0.97 391.00 11.00)" />
  <circle cx="396.00" cy="401.00" r="41.00" fill="rgb(29,24,42)" fill-opacity="0.8160" />
  <circle cx="316.00" cy="542.00" r="51.00" fill="rgb(15,14,34)" fill-opacity="0.7506" />
  <ellipse cx="279.00" cy="604.00" rx="24.00" ry="11.00" fill="rgb(125,88,37)" fill-opacity="0.9348" transform="rotate(155.21 279.00 604.00)" />
  <ellipse cx="244.00" cy="381.00" rx="31.00" ry="12.00" fill="rgb(240,205,124)" fill-opacity="0.7718" transform="rotate(149.01 244.00 381.00)" />
  <ellipse cx="246.00" cy="716.00" rx="32.00" ry="46.00" fill="rgb(10,4,24)" fill-opacity="0.8112" transform="rotate(49.15 246.00 716.00)" />
  <rect x="159.00" y="552.50" width="26.00" height="25.00" fill="rgb(203,158,73)" fill-opacity="0.8141" transform="rotate(9.73 172.00 565.00)" />
  <ellipse cx="461.00" cy="3.00" rx="51.00" ry="14.00" fill="rgb(67,105,72)" fill-opacity="0.7781" transform="rotate(5.43 461.00 3.00)" />
  <circle cx="239.00" cy="547.00" r="30.00" fill="rgb(27,22,38)" fill-opacity="0.7731" />
  <ellipse cx="452.00" cy="488.00" rx="27.00" ry="47.00" fill="rgb(45,40,57)" fill-opacity="0.8273" transform="rotate(173.17 452.00 488.00)" />
  <circle cx="187.00" cy="267.00" r="26.00" fill="rgb(53,23,31)" fill-opacity="0.8690" />
  <rect x="141.00" y="407.00" width="34.00" height="24.00" fill="rgb(87,63,41)" fill-opacity="0.7995" transform="rotate(296.07 158.00 419.00)" />
  <circle cx="262.00" cy="225.00" r="19.00" fill="rgb(174,136,61)" fill-opacity="0.7419" />
  <ellipse cx="314.00" cy="356.00" rx="16.00" ry="32.00" fill="rgb(112,70,36)" fill-opacity="0.8616" transform="rotate(351.35 314.00 356.00)" />
  <ellipse cx="147.00" cy="154.00" rx="14.00" ry="18.00" fill="rgb(177,171,102)" fill-opacity="0.8718" transform="rotate(21.18 147.00 154.00)" />
  <rect x="103.00" y="541.50" width="24.00" height="21.00" fill="rgb(110,68,42)" fill-opacity="0.9139" transform="rotate(308.91 115.00 552.00)" />
  <circle cx="373.00" cy="481.00" r="20.00" fill="rgb(34,18,35)" fill-opacity="0.7000" />
  <ellipse cx="193.00" cy="581.00" rx="23.00" ry="20.00" fill="rgb(194,148,66)" fill-opacity="0.7774" transform="rotate(9.70 193.00 581.00)" />
  <ellipse cx="172.00" cy="95.00" rx="15.00" ry="26.00" fill="rgb(149,153,99)" fill-opacity="0.8037" transform="rotate(48.26 172.00 95.00)" />
  <circle cx="392.00" cy="461.00" r="26.00" fill="rgb(25,15,34)" fill-opacity="0.7171" />
  <circle cx="432.00" cy="296.00" r="13.00" fill="rgb(130,118,64)" fill-opacity="0.8035" />
  <ellipse cx="166.00" cy="381.00" rx="3.00" ry="21.00" fill="rgb(104,59,24)" fill-opacity="0.7147" transform="rotate(333.84 166.00 381.00)" />
  <circle cx="150.00" cy="599.00" r="11.00" fill="rgb(85,51,40)" fill-opacity="0.7735" />
  <ellipse cx="387.00" cy="157.00" rx="13.00" ry="14.00" fill="rgb(112,133,83)" fill-opacity="0.9441" transform="rotate(252.53 387.00 157.00)" />
  <ellipse cx="251.00" cy="613.00" rx="3.00" ry="25.00" fill="rgb(84,42,33)" fill-opacity="0.7546" transform="rotate(313.30 251.00 613.00)" />
  <circle cx="111.00" cy="371.00" r="10.00" fill="rgb(146,109,46)" fill-opacity="0.8938" />
  <circle cx="201.00" cy="175.00" r="14.00" fill="rgb(122,74,33)" fill-opacity="0.8857" />
</svg>
