<svg xmlns="http://www.w3.org/2000/svg" width="500" height="745" viewBox="0 0 500 745">
  <rect width="100%" height="100%" fill="rgb(86,72,53)"/>
  <circle cx="234.00" cy="369.00" r="49.00" fill="rgb(228,195,106)" fill-opacity="0.7234" />
  <circle cx="219.00" cy="58.00" r="282.00" fill="rgb(119,138,85)" fill-opacity="0.7643" />
  <circle cx="317.00" cy="655.00" r="247.00" fill="rgb(19,9,29)" fill-opacity="0.9784" />
  <circle cx="295.00" cy="191.00" r="88.00" fill="rgb(47,18,28)" fill-opacity="0.9112" />
  <circle cx="251.00" cy="320.00" r="44.00" fill="rgb(207,153,67)" fill-opacity="0.8197" />
  <circle cx="126.00" cy="254.00" r="94.00" fill="rgb(78,80,57)" fill-opacity="0.8620" />
  <circle cx="372.00" cy="259.00" r="58.00" fill="rgb(71,68,76)" fill-opacity="0.8888" />
  <circle cx="226.00" cy="183.00" r="79.00" fill="rgb(145,103,42)" fill-opacity="0.7303" />
  <circle cx="258.00" cy="117.00" r="54.00" fill="rgb(81,65,35)" fill-opacity="0.9110" />
  <circle cx="178.00" cy="678.00" r="218.00" fill="rgb(47,25,41)" fill-opacity="0.7863" />
  <circle cx="183.00" cy="632.00" r="81.00" fill="rgb(119,84,44)" fill-opacity="0.8197" />
  <circle cx="166.00" cy="586.00" r="40.00" fill="rgb(177,117,62)" fill-opacity="0.7665" />
  <circle cx="211.00" cy="356.00" r="45.00" fill="rgb(236,199,104)" fill-opacity="0.8628" />
  <circle cx="206.00" cy="195.00" r="68.00" fill="rgb(173,127,62)" fill-opacity="0.9000" />
  <circle cx="149.00" cy="237.00" r="41.00" fill="rgb(77,75,55)" fill-opacity="0.8849" />
  <circle cx="498.00" cy="103.00" r="150.00" fill="rgb(133,143,96)" fill-opacity="0.7337" />
  <circle cx="178.00" cy="242.00" r="17.00" fill="rgb(56,30,32)" fill-opacity="0.8226" />
  <circle cx="237.00" cy="132.00" r="26.00" fill="rgb(221,182,88)" fill-opacity="0.7598" />
  <circle cx="162.00" cy="131.00" r="68.00" fill="rgb(141,130,76)" fill-opacity="0.8745" />
  <circle cx="369.00" cy="116.00" r="44.00" fill="rgb(139,151,103)" fill-opacity="0.7622" />
  <circle cx="297.00" cy="147.00" r="43.00" fill="rgb(29,10,23)" fill-opacity="0.7412" />
  <circle cx="240.00" cy="447.00" r="65.00" fill="rgb(78,58,40)" fill-opacity="0.7699" />
  <circle cx="12.00" cy="391.00" r="99.00" fill="rgb(118,81,45)" fill-opacity="0.9642" />
  <circle cx="223.00" cy="610.00" r="40.00" fill="rgb(189,132,52)" fill-opacity="0.7695" />
  <circle cx="134.00" cy="555.00" r="32.00" fill="rgb(204,185,70)" fill-opacity="0.7019" />
  <circle cx="252.00" cy="554.00" r="30.00" fill="rgb(27,22,40)" fill-opacity="0.9195" />
  <circle cx="162.00" cy="213.00" r="31.00" fill="rgb(67,26,28)" fill-opacity="0.8387" />
  <circle cx="174.00" cy="282.00" r="45.00" fill="rgb(59,23,28)" fill-opacity="0.7516" />
  <circle cx="329.00" cy="264.00" r="53.00" fill="rgb(39,28,21)" fill-opacity="0.7955" />
  <circle cx="183.00" cy="684.00" r="32.00" fill="rgb(52,31,33)" fill-opacity="0.9219" />
  <circle cx="148.00" cy="318.00" r="42.00" fill="rgb(43,15,32)" fill-opacity="0.7612" />
  <circle cx="496.00" cy="450.00" r="93.00" fill="rgb(91,69,71)" fill-opacity="0.8298" />
  <circle cx="370.00" cy="383.00" r="54.00" fill="rgb(21,7,21)" fill-opacity="0.8228" />
  <circle cx="56.00" cy="675.00" r="75.00" fill="rgb(30,17,38)" fill-opacity="0.9002" />
  <circle cx="6.00" cy="424.00" r="31.00" fill="rgb(53,35,48)" fill-opacity="0.8319" />
  <circle cx="179.00" cy="577.00" r="24.00" fill="rgb(200,154,74)" fill-opacity="0.7450" />
  <circle cx="147.00" cy="308.00" r="62.00" fill="rgb(76,67,35)" fill-opacity="0.9709" />
  <circle cx="266.00" cy="350.00" r="36.00" fill="rgb(228,188,97)" fill-opacity="0.8846" />
  <circle cx="431.00" cy="262.00" r="77.00" fill="rgb(81,88,70)" fill-opacity="0.8908" />
  <circle cx="130.00" cy="505.00" r="48.00" fill="rgb(75,40,38)" fill-opacity="0.8959" />
  <circle cx="358.00" cy="347.00" r="58.00" fill="rgb(78,54,31)" fill-opacity="0.7026" />
  <circle cx="286.00" cy="628.00" r="40.00" fill="rgb(153,79,48)" fill-opacity="0.7766" />
  <circle cx="322.00" cy="217.00" r="24.00" fill="rgb(56,27,48)" fill-opacity="0.7916" />
  <circle cx="194.00" cy="282.00" r="39.00" fill="rgb(56,28,31)" fill-opacity="0.8657" />
  <circle cx="54.00" cy="612.00" r="44.00" fill="rgb(23,19,45)" fill-opacity="0.7221" />
  <circle cx="465.00" cy="340.00" r="63.00" fill="rgb(112,95,71)" fill-opacity="0.7117" />
  <circle cx="321.00" cy="209.00" r="41.00" fill="rgb(28,19,31)" fill-opacity="0.8048" />
  <circle cx="208.00" cy="128.00" r="28.00" fill="rgb(251,209,117)" fill-opacity="0.9709" />
  <circle cx="447.00" cy="133.00" r="61.00" fill="rgb(158,161,101)" fill-opacity="0.8083" />
  <circle cx="310.00" cy="363.00" r="35.00" fill="rgb(145,98,42)" fill-opacity="0.7561" />
  <circle cx="237.00" cy="131.00" r="3.00" fill="rgb(243,215,105)" fill-opacity="0.8650" />
  <circle cx="341.00" cy="79.00" r="39.00" fill="rgb(130,139,86)" fill-opacity="0.9276" />
  <circle cx="468.00" cy="398.00" r="29.00" fill="rgb(105,63,55)" fill-opacity="0.8718" />
  <circle cx="141.00" cy="460.00" r="67.00" fill="rgb(55,40,49)" fill-opacity="0.7705" />
  <circle cx="268.00" cy="360.00" r="12.00" fill="rgb(218,183,88)" fill-opacity="0.8259" />
  <circle cx="160.00" cy="603.00" r="12.00" fill="rgb(96,70,24)" fill-opacity="0.9295" />
  <circle cx="422.00" cy="319.00" r="27.00" fill="rgb(134,136,74)" fill-opacity="0.8926" />
  <circle cx="117.00" cy="408.00" r="25.00" fill="rgb(20,11,38)" fill-opacity="0.9013" />
  <circle cx="112.00" cy="125.00" r="33.00" fill="rgb(171,184,103)" fill-opacity="0.8446" />
  <circle cx="184.00" cy="81.00" r="40.00" fill="rgb(130,137,78)" fill-opacity="0.8882" />
  <circle cx="293.00" cy="727.00" r="104.00" fill="rgb(0,3,23)" fill-opacity="0.7370" />
  <circle cx="246.00" cy="390.00" r="30.00" fill="rgb(248,213,126)" fill-opacity="0.9381" />
  <circle cx="34.00" cy="99.00" r="52.00" fill="rgb(137,146,90)" fill-opacity="0.9439" />
  <circle cx="336.00" cy="439.00" r="62.00" fill="rgb(48,31,35)" fill-opacity="0.8950" />
  <circle cx="250.00" cy="655.00" r="31.00" fill="rgb(95,53,34)" fill-opacity="0.8260" />
  <circle cx="221.00" cy="586.00" r="12.00" fill="rgb(190,140,57)" fill-opacity="0.8759" />
  <circle cx="99.00" cy="583.00" r="42.00" fill="rgb(76,44,42)" fill-opacity="0.7644" />
  <circle cx="229.00" cy="159.00" r="61.00" fill="rgb(181,137,56)" fill-opacity="0.7226" />
  <circle cx="72.00" cy="624.00" r="40.00" fill="rgb(25,20,40)" fill-opacity="0.8776" />
  <circle cx="294.00" cy="114.00" r="31.00" fill="rgb(37,11,21)" fill-opacity="0.8262" />
  <circle cx="390.00" cy="0.00" r="45.00" fill="rgb(64,94,61)" fill-opacity="0.7456" />
  <circle cx="218.00" cy="126.00" r="24.00" fill="rgb(223,181,88)" fill-opacity="0.7045" />
  <circle cx="394.00" cy="488.00" r="87.00" fill="rgb(35,35,48)" fill-opacity="0.7543" />
  <circle cx="337.00" cy="334.00" r="43.00" fill="rgb(112,68,32)" fill-opacity="0.8696" />
  <circle cx="182.00" cy="502.00" r="47.00" fill="rgb(45,35,40)" fill-opacity="0.7761" />
  <circle cx="49.00" cy="405.00" r="25.00" fill="rgb(143,84,43)" fill-opacity="0.8958" />
  <circle cx="275.00" cy="279.00" r="35.00" fill="rgb(96,62,32)" fill-opacity="0.8815" />
  <circle cx="165.00" cy="312.00" r="26.00" fill="rgb(54,22,38)" fill-opacity="0.8669" />
  <circle cx="358.00" cy="113.00" r="28.00" fill="rgb(142,154,102)" fill-opacity="0.7508" />
  <circle cx="341.00" cy="521.00" r="100.00" fill="rgb(24,17,35)" fill-opacity="0.8487" />
  <circle cx="490.00" cy="600.00" r="78.00" fill="rgb(39,39,55)" fill-opacity="0.7265" />
  <circle cx="231.00" cy="243.00" r="28.00" fill="rgb(161,124,53)" fill-opacity="0.7415" />
  <circle cx="329.00" cy="615.00" r="30.00" fill="rgb(93,34,20)" fill-opacity="0.8080" />
  <circle cx="72.00" cy="265.00" r="56.00" fill="rgb(94,92,61)" fill-opacity="0.8750" />
  <circle cx="258.00" cy="366.00" r="41.00" fill="rgb(225,192,100)" fill-opacity="0.7259" />
  <circle cx="201.00" cy="677.00" r="31.00" fill="rgb(51,27,33)" fill-opacity="0.8519" />
  <circle cx="10.00" cy="362.00" r="32.00" fill="rgb(106,66,49)" fill-opacity="0.7803" />
  <circle cx="141.00" cy="200.00" r="21.00" fill="rgb(78,78,45)" fill-opacity="0.8166" />
  <circle cx="391.00" cy="39.00" r="28.00" fill="rgb(117,128,76)" fill-opacity="0.7997" />
  <circle cx="164.00" cy="617.00" r="38.00" fill="rgb(164,117,54)" fill-opacity="0.9058" />
  <circle cx="222.00" cy="138.00" r="29.00" fill="rgb(225,183,92)" fill-opacity="0.7258" />
  <circle cx="397.00" cy="401.00" r="40.00" fill="rgb(21,16,34)" fill-opacity="0.7906" />
  <circle cx="384.00" cy="238.00" r="41.00" fill="rgb(66,80,62)" fill-opacity="0.7256" />
  <circle cx="200.00" cy="585.00" r="26.00" fill="rgb(192,146,61)" fill-opacity="0.7583" />
  <circle cx="0.00" cy="254.00" r="72.00" fill="rgb(57,59,46)" fill-opacity="0.7488" />
  <circle cx="187.00" cy="625.00" r="15.00" fill="rgb(136,83,42)" fill-opacity="0.8797" />
  <circle cx="79.00" cy="548.00" r="27.00" fill="rgb(101,63,43)" fill-opacity="0.8967" />
  <circle cx="436.00" cy="326.00" r="42.00" fill="rgb(132,115,60)" fill-opacity="0.7000" />
  <circle cx="323.00" cy="287.00" r="13.00" fill="rgb(31,14,18)" fill-opacity="0.8767" />
  <circle cx="116.00" cy="118.00" r="64.00" fill="rgb(146,156,101)" fill-opacity="0.8467" />
  <circle cx="268.00" cy="95.00" r="20.00" fill="rgb(54,21,23)" fill-opacity="0.7442" />
  <circle cx="437.00" cy="186.00" r="28.00" fill="rgb(164,164,105)" fill-opacity="0.7230" />
  <circle cx="76.00" cy="727.00" r="76.00" fill="rgb(19,11,34)" fill-opacity="0.7800" />
  <circle cx="249.00" cy="417.00" r="30.00" fill="rgb(95,68,36)" fill-opacity="0.8604" />
  <circle cx="128.00" cy="416.00" r="41.00" fill="rgb(53,40,51)" fill-opacity="0.9496" />
  <circle cx="179.00" cy="135.00" r="12.00" fill="rgb(67,32,24)" fill-opacity="0.7301" />
  <circle cx="309.00" cy="452.00" r="48.00" fill="rgb(31,29,36)" fill-opacity="0.9500" />
  <circle cx="170.00" cy="152.00" r="14.00" fill="rgb(74,35,25)" fill-opacity="0.9273" />
  <circle cx="409.00" cy="393.00" r="47.00" fill="rgb(35,32,41)" fill-opacity="0.7459" />
  <circle cx="202.00" cy="659.00" r="29.00" fill="rgb(77,49,33)" fill-opacity="0.7428" />
  <circle cx="203.00" cy="339.00" r="13.00" fill="rgb(214,176,84)" fill-opacity="0.9337" />
  <circle cx="176.00" cy="716.00" r="38.00" fill="rgb(29,9,30)" fill-opacity="0.8855" />
  <circle cx="303.00" cy="614.00" r="26.00" fill="rgb(136,83,34)" fill-opacity="0.9114" />
  <circle cx="7.00" cy="452.00" r="12.00" fill="rgb(77,54,54)" fill-opacity="0.8868" />
  <circle cx="275.00" cy="675.00" r="20.00" fill="rgb(28,15,29)" fill-opacity="0.7203" />
  <circle cx="302.00" cy="625.00" r="27.00" fill="rgb(73,39,24)" fill-opacity="0.7547" />
  <circle cx="345.00" cy="312.00" r="36.00" fill="rgb(40,20,29)" fill-opacity="0.8502" />
  <circle cx="139.00" cy="155.00" r="27.00" fill="rgb(176,182,115)" fill-opacity="0.8763" />
  <circle cx="152.00" cy="512.00" r="37.00" fill="rgb(42,23,42)" fill-opacity="0.7398" />
  <circle cx="79.00" cy="243.00" r="45.00" fill="rgb(78,80,54)" fill-opacity="0.8728" />
  <circle cx="214.00" cy="89.00" r="15.00" fill="rgb(106,55,23)" fill-opacity="0.7731" />
  <circle cx="249.00" cy="378.00" r="28.00" fill="rgb(235,204,120)" fill-opacity="0.8397" />
  <circle cx="375.00" cy="181.00" r="39.00" fill="rgb(88,107,68)" fill-opacity="0.7229" />
  <circle cx="275.00" cy="163.00" r="19.00" fill="rgb(113,76,38)" fill-opacity="0.7484" />
  <circle cx="459.00" cy="2.00" r="29.00" fill="rgb(72,102,79)" fill-opacity="0.7934" />
  <circle cx="354.00" cy="435.00" r="36.00" fill="rgb(76,52,33)" fill-opacity="0.7894" />
  <circle cx="408.00" cy="292.00" r="23.00" fill="rgb(82,80,54)" fill-opacity="0.9698" />
  <circle cx="316.00" cy="323.00" r="26.00" fill="rgb(92,47,30)" fill-opacity="0.7266" />
  <circle cx="313.00" cy="263.00" r="31.00" fill="rgb(37,20,28)" fill-opacity="0.8697" />
  <circle cx="350.00" cy="610.00" r="31.00" fill="rgb(82,45,20)" fill-opacity="0.7579" />
  <circle cx="200.00" cy="199.00" r="23.00" fill="rgb(225,179,92)" fill-opacity="0.7388" />
  <circle cx="136.00" cy="368.00" r="24.00" fill="rgb(42,14,32)" fill-opacity="0.7957" />
  <circle cx="125.00" cy="645.00" r="15.00" fill="rgb(130,80,39)" fill-opacity="0.8733" />
  <circle cx="175.00" cy="175.00" r="22.00" fill="rgb(75,43,44)" fill-opacity="0.9396" />
  <circle cx="50.00" cy="458.00" r="21.00" fill="rgb(148,108,58)" fill-opacity="0.8876" />
  <circle cx="25.00" cy="496.00" r="39.00" fill="rgb(69,49,59)" fill-opacity="0.7000" />
  <circle cx="253.00" cy="198.00" r="16.00" fill="rgb(219,169,81)" fill-opacity="0.7565" />
  <circle cx="367.00" cy="219.00" r="16.00" fill="rgb(67,73,50)" fill-opacity="0.8602" />
  <circle cx="139.00" cy="280.00" r="22.00" fill="rgb(123,130,102)" fill-opacity="0.7037" />
  <circle cx="281.00" cy="313.00" r="27.00" fill="rgb(193,156,58)" fill-opacity="0.7498" />
  <circle cx="319.00" cy="311.00" r="18.00" fill="rgb(75,37,30)" fill-opacity="0.8736" />
  <circle cx="264.00" cy="270.00" r="12.00" fill="rgb(64,41,30)" fill-opacity="0.7074" />
  <circle cx="193.00" cy="190.00" r="17.00" fill="rgb(206,163,78)" fill-opacity="0.7217" />
  <circle cx="348.00" cy="199.00" r="9.00" fill="rgb(82,100,62)" fill-opacity="0.9100" />
  <circle cx="142.00" cy="596.00" r="15.00" fill="rgb(90,51,40)" fill-opacity="0.9501" />
  <circle cx="238.00" cy="272.00" r="14.00" fill="rgb(93,60,49)" fill-opacity="0.8638" />
  <circle cx="220.00" cy="252.00" r="11.00" fill="rgb(212,168,74)" fill-opacity="0.8709" />
  <circle cx="189.00" cy="137.00" r="4.00" fill="rgb(188,149,69)" fill-opacity="0.8350" />
  <circle cx="206.00" cy="409.00" r="24.00" fill="rgb(124,89,51)" fill-opacity="0.8735" />
  <circle cx="111.00" cy="375.00" r="8.00" fill="rgb(143,107,46)" fill-opacity="0.9071" />
</svg>
